<?xml version="1.0" encoding="utf-8"?>
<!-- Generator: Adobe Illustrator 17.0.0, SVG Export Plug-In . SVG Version: 6.00 Build 0)  -->
<!DOCTYPE svg PUBLIC "-//W3C//DTD SVG 1.1//EN" "http://www.w3.org/Graphics/SVG/1.1/DTD/svg11.dtd">
<svg version="1.1" id="Capa_1" xmlns="http://www.w3.org/2000/svg" xmlns:xlink="http://www.w3.org/1999/xlink" x="0px" y="0px"
	 width="32px" height="32px" viewBox="0 0 32 32" enable-background="new 0 0 32 32" xml:space="preserve">
<g>
	<g opacity="0.8">
		<g>
			<defs>
				<rect id="SVGID_1_" x="1" y="1" width="30" height="30"/>
			</defs>
			<clipPath id="SVGID_2_">
				<use xlink:href="#SVGID_1_"  overflow="visible"/>
			</clipPath>
			<path clip-path="url(#SVGID_2_)" fill="#FFFFFF" d="M16,30.786c8.166,0,14.786-6.62,14.786-14.786
				c0-8.166-6.62-14.786-14.786-14.786C7.834,1.215,1.214,7.834,1.214,16C1.214,24.166,7.834,30.786,16,30.786"/>
		</g>
	</g>
	<g opacity="0.8">
		<g>
			<defs>
				<rect id="SVGID_3_" x="2.294" y="3.687" width="24.744" height="24.744"/>
			</defs>
			<clipPath id="SVGID_4_">
				<use xlink:href="#SVGID_3_"  overflow="visible"/>
			</clipPath>
			<path clip-path="url(#SVGID_4_)" fill="#544540" d="M11.374,24.036c0,0,0,2.289,1.926,1.053l12.118-7.777
				c0,0,1.926-1.236,0-2.472L13.3,7.063c0,0-1.926-1.236-1.926,1.053V24.036z"/>
		</g>
	</g>
</g>
</svg>
