<?xml version="1.0" standalone="no"?>
<!DOCTYPE svg PUBLIC "-//W3C//DTD SVG 1.1//EN" "http://www.w3.org/Graphics/SVG/1.1/DTD/svg11.dtd" >
<svg xmlns="http://www.w3.org/2000/svg" xmlns:xlink="http://www.w3.org/1999/xlink" version="1.1">
<metadata></metadata>
<defs>
<font id="jellyka_beesantique_handwriRg" horiz-adv-x="1243" >
<font-face units-per-em="2048" ascent="1638" descent="-410" />
<missing-glyph horiz-adv-x="508" />
<glyph horiz-adv-x="0" />
<glyph unicode="&#xd;" horiz-adv-x="508" />
<glyph unicode=" "  horiz-adv-x="508" />
<glyph unicode="&#x09;" horiz-adv-x="508" />
<glyph unicode="&#xa0;" horiz-adv-x="508" />
<glyph unicode="!" horiz-adv-x="295" d="M32 -48q28 27 28 42l-14 15v9q10 19 24 19l19 -9q12 38 19 38l9 -10q0 -9 -14 -9v-5h5l28 5l24 -24v-19q-44 -93 -66 -95h-24l-10 9l10 29h-10l-14 -10zM146 317v5l9 10l5 -5v5l-5 14l5 24v19h-9v4l14 19l-5 15q10 0 24 71q9 0 19 52l-5 19q19 21 114 351l24 57l-5 14 q24 52 38 124l10 19l-5 5l9 9l-4 5l9 9l-5 5v5l10 9l-5 5l10 10l-5 4l5 5h4l-4 5v9h9v5l-5 5v5l5 4h5l-5 5v10h10l-5 19q3 52 14 52l5 -5v10q-12 0 -19 52l-5 -5h-5l-14 14q0 10 29 19q0 16 23 34v4l-14 -9h-9l-10 9v10l14 14h10q19 -8 19 -33h14q0 28 19 28l19 -14v-5 q0 -9 -19 -9l-5 -5v-5l19 -9v-5l-4 -5v-4h14v-5q-13 -18 -43 -166q-55 -180 -85 -214l4 -14q-42 -82 -114 -328l-28 -104l5 -19q-13 0 -24 -57l5 -19l-19 -90l9 -72l-33 -33l-14 14l4 5v5q-9 0 -9 14l-14 -9z" />
<glyph unicode="&#x22;" horiz-adv-x="327" d="M273 651v28l8 8l4 -4v24h-8v8q0 8 12 8v8l-4 -4h-4l-4 4v4q0 8 12 8v4l-4 4v4l8 8v8h-8v4h8l-4 28v4q12 17 12 32h-8l8 12l-4 4h-4l4 12l-4 12h12v4l-8 12v24l8 8l4 -4v12l-4 -4h-8l-12 40l12 8q12 0 12 -16h4l-4 20v8l8 12l-12 16v8l8 8h4l8 -8v-4l-4 -20l4 4h12l20 -20 h4v-8l-4 -16l4 -12q-28 -176 -28 -260v-16q0 -16 -20 -32q0 -16 -8 -16h-4q-8 0 -12 32l-12 -8h-4zM353 1019l4 4h4l8 -8l-4 -20h-8zM373 959v8l8 8l4 -4v-4l-8 -8h-4zM409 723v4h4v-8h4l8 56l-12 40l-4 4v4l8 8l4 -4v44h-8v8l8 8l4 -4l4 24q-2 16 -12 16v4q12 15 12 36 l-4 -4h-8l-4 64l24 12l-4 28v8l8 8q8 0 8 -24l24 -4q3 24 12 24l12 -12v-8q0 -12 -16 -12v-4l4 -24q-20 -79 -20 -148h-4l4 -4l-8 -64l4 -4v-4l-8 -12l4 -60v-44q-3 -12 -28 -20q-20 19 -20 68zM497 1011v8l8 8l4 -4v-8l-8 -8z" />
<glyph unicode="#" horiz-adv-x="1249" d="M21 162v5h9v4l-4 18q18 91 91 91h9q54 0 173 -68l95 -45l14 104l-5 28q14 0 23 223h-4l4 4v9h-4l-328 73l-9 9v14q9 18 23 18q191 -32 191 -50l13 5q37 -3 37 -14l4 5h5l68 -14l5 14l-5 22l-4 -4h-9v9q0 9 13 9v23l5 4l-5 5v77h-9v5h9v127l-4 -4h-5l-9 9v50h9v-36h5v36 l-5 23h-4v-14h-10l-9 32v14l14 13l5 -4h4l5 13q-9 0 -9 14l4 5v4l-4 18v5l9 9h13l9 -9v-14l-9 -13l32 -5q0 27 9 27h5q9 0 9 -13l-14 -23l5 -5v-4l-9 -18l4 -5l-4 -18l4 -123v-169l-9 -9l5 -4v-32l-14 -41l14 -18l27 4q71 -3 100 -13h14q36 43 36 86h-4q11 43 41 87 q34 103 95 159q78 100 169 100h4q110 -36 110 -123l4 -45q0 -58 -77 -160q-103 -109 -146 -109l-5 -4l-9 9h-4q-9 0 -9 -14l-5 -5h-13l4 5v5h-4l-28 -23l-4 4v5l4 4h-9q0 -18 -9 -18l-5 5l-9 -9l-4 13h-9q0 -22 -32 -22l-5 4v5l5 4h-37q-9 -73 -18 -73l5 -4v-18l-9 -19l4 -4 v-5l-13 -22l9 -10v-9l-5 -4l5 -5v-4l-5 -5l5 -23q14 -273 63 -273q135 -32 173 -32l28 5l27 -9h55l13 9q32 0 32 -9l237 50l4 -5h5l18 5h5l9 -9v-9q0 -23 -114 -46l-86 -14l-19 5l-68 -5l-9 -9l-46 5h-31l-41 -5l-196 46v-5q29 -72 64 -113l13 -32q-9 -21 -18 -23l5 -5v-18 l-10 -9h-22q-39 24 -110 214q0 14 -68 27q-9 16 -109 50h-18q0 -95 -110 -227l-27 -9l-4 4h-5q0 -9 -14 -9q-61 0 -164 114l5 14q-10 0 -41 82q-8 0 -14 31l-4 5q-8 59 -23 59zM80 176q2 -50 46 -141q65 -85 114 -105h36q38 0 82 105l-5 4v5l28 63q-28 10 -28 23l-4 -4h-9 q-25 18 -41 18v4l4 5v5q-22 0 -22 9v4h-5v-9l-18 9l4 5v4l-4 5h-5l-9 -9q0 13 -9 13v-4l5 -5h-10q-77 21 -77 32l-5 -4h-9l-18 4l-4 -4h-5l-18 4zM121 581v14h5l9 -9l-5 -5h-9zM230 -120v-5l14 -4l5 4v5h-19zM385 526v5l5 4h4l5 -4v-5l-5 -4h-4zM422 153q75 -55 168 -73 l9 -9h5v9q9 0 9 -18h9q-27 78 -36 196h-10v-5l10 -23h-10l-9 37l5 4h4l5 -4q7 105 18 105l-4 13l9 68l-5 5v5l5 4v5l-5 13l9 9l-4 14h4l-4 14h-5l-36 -9q-70 8 -100 22l-9 -27l4 -4l-14 -192l5 -22q-12 -24 -27 -137zM490 972v14h9v-14h-9zM631 16q8 -41 18 -41v5l-13 41h-5 v-5zM667 572l14 -5q93 0 228 82q91 84 91 137v9h4l5 -5h4v14h-9v9q14 0 14 14h-5l-4 -5h-5l-4 5v4l9 9l4 -4v9l-9 32l-4 -5h-5q0 34 -82 46l-86 -50q-66 -73 -105 -160h-9v-13q-13 -57 -36 -87zM749 -70h5l32 -18v-14l-9 -9q-13 0 -28 36v5zM781 -129l9 -9v-5l-9 9v5z" />
<glyph unicode="$" horiz-adv-x="649" d="M-259 -97l12 12h4q11 0 80 -48q73 -44 136 -44q84 0 84 28q137 455 228 652l84 216v20l-12 20l4 12l-16 52l4 4v4q-17 0 -36 168l4 4v4l-16 88l8 8l-8 24v32h-8v4l16 24l-4 12l4 16l-4 12h4l4 4l4 32h-4l-4 4l12 16l-4 4v4l12 24l-4 4q8 0 8 24q53 125 144 168l64 16 l96 -12q0 20 -20 24v4q0 12 24 12q0 19 8 28l-12 12v8l12 12h4l16 -16l-4 -12h4q32 0 32 -44l-8 -68q49 -31 92 -144l12 4l12 -32q0 -6 -16 -12l4 -4v-8q0 -28 -20 -28l4 -4v-16l-8 -8h-20q-8 0 -8 28l-4 -4h-8q-8 0 -12 24h4l-4 4v4l4 16q-27 100 -52 112 q-44 -134 -68 -184q-100 -221 -204 -500l8 -24l-4 -12q10 0 12 -40h-4l8 -16l-4 -24q4 -88 16 -100v-8l-8 -8l12 -56v-8q-9 -16 -16 -144l4 -24l-12 -8l8 -12q-4 -30 -16 -44l4 -20q-16 -87 -84 -180q-37 -84 -68 -84l-8 -8l-8 -20q-22 0 -56 -44q-9 0 -28 -20l-4 4 q-51 -5 -68 -24h-20l-4 -16l4 -4v-12q-13 -10 -24 -68l4 -4v-4q-20 -116 -44 -116l-16 32l-4 -4h-8v8l24 64h4l-4 4v4l8 12l-4 4q12 0 28 60l-8 24h-44v-4h28v-8l-16 -4l-4 4h-4l-16 -4v4l-4 -4h-12l-8 8l8 8l-40 4v-12h-4l-12 4v8h12v4q-44 7 -44 20l-4 -4h-4l-12 8l-4 -4 l-4 4v4l-4 -4h-12l-72 52v8l4 -4h4v4l-12 12v16zM-83 -221l4 4h4l8 -8v-4h-8zM-47 -221v-4h16v4h-16zM81 -161h4q18 0 96 48q13 0 40 32q14 0 64 76q15 2 80 160v8l-4 4v4q8 0 12 24l8 8l-4 4v4q2 40 12 40l-4 20q16 22 16 116l-4 48l4 48l-8 24l8 8l-24 148h-4 q-193 -473 -276 -768zM337 1107l8 -24l-4 -76q13 0 16 -52h-4q8 -11 24 -96l-4 -24l12 -12l-4 -20q4 -32 12 -32q149 370 172 444q0 15 16 28l-4 4v12l4 4l-4 4v4l24 52l-4 4l8 8l-4 4v4l8 8l-4 4l4 4h4l-4 12l12 16l-4 4v4q8 14 12 56q-48 12 -48 20l8 8h-20l4 -4v-4 l-28 -8l-16 4q-59 -8 -112 -60q-60 -104 -72 -220h-4l4 -4v-32l-4 -4l4 -4v-16q0 -20 -8 -20zM685 1591l8 8h8l8 -8v-8l-8 -8z" />
<glyph unicode="%" horiz-adv-x="675" d="M-277 -411q51 95 100 156q0 15 44 64q198 282 536 728q0 14 32 40q0 20 32 44q0 25 40 60q0 19 68 108q88 146 88 192l16 4l-4 20l4 4h4l-8 20l12 8h8l8 -8v-4l-4 -4v-4l24 -4v4q0 20 8 20h8l8 -8v-12l-16 -12l4 -20q0 -25 -136 -232q-14 -11 -60 -88q-24 -4 -24 -32 q-38 -34 -48 -64q-13 0 -32 -44q-29 -21 -148 -188q-351 -455 -432 -604q-28 -21 -28 -48q-7 0 -60 -108q-12 0 -12 -12l-4 -4h-4q-1 13 -24 28zM163 725q13 63 116 184v4l-4 -4h-12v4l16 24h12q8 0 8 -24h8l12 8h16l8 -8v-4l-8 -8l-12 8v-4l16 -60q13 -13 20 -64 q0 -52 -72 -112l-32 -8h-8l-4 4l-36 -8q-44 40 -44 68zM171 713l12 -20h4v4l-8 20h-8v-4zM223 725l28 -4q35 0 52 44q0 44 -28 48v12h-4q-48 -63 -48 -96v-4zM231 673h8v-4l12 4v4h-20v-4zM275 149l4 4h8v-8h4v8q0 12 -12 12q0 49 40 112h4l-4 4v8l4 -4h4l8 16l-8 8v8l8 8h4 q8 0 8 -20h20l12 8q7 -20 52 -60l32 -44v-20q-34 -108 -104 -108h-8q-49 0 -76 68zM303 797l4 -24h4v24h-8zM335 169q8 -18 16 -20h12q14 0 40 20q-19 52 -32 52q0 -16 -16 -24h-8l-4 4h-4zM347 865v4l8 8l4 -4v-4l-8 -8zM747 973v4l8 8l4 -4v-4l-4 -4h-8z" />
<glyph unicode="&#x26;" horiz-adv-x="895" d="M-79 726l12 12h4l4 -4h4q0 19 8 28v4q-12 0 -12 8v12l8 8h12q24 -12 24 -28h4q0 16 8 16l20 -12v-8l-20 4q2 -14 84 -20l104 4v-4q0 7 164 20l16 -4l24 8l4 -4h4q23 11 104 20l16 -4q30 10 64 36l-20 24v4h12l-8 28q60 142 224 228l68 40q172 64 228 64q111 0 144 -56 q12 -15 12 -28v-16q-33 -101 -104 -140q-58 -52 -76 -52v4q-27 -9 -36 -20q-22 0 -36 -16q-28 0 -100 -44v4l-104 -32l-4 4l-32 -20l-24 4q0 -9 -60 -20l-4 4h-4q-19 -13 -44 -16l-28 4l-12 -12l-20 4q-98 -35 -260 -176q-188 -180 -228 -272q-52 -121 -52 -216l36 -84 q2 -19 68 -76q31 -23 124 -44l40 4l8 -8h36l32 8l8 -8l4 4h40q18 16 36 16l4 -4h4q102 23 132 48q23 3 44 24q26 0 72 48l52 60l16 12h12q16 -8 16 -24q-10 -25 -60 -68l-4 4h-4q0 -12 -76 -56q-34 -35 -108 -48l-120 -40l-4 4l-20 -4h-32l-12 -8l-20 4v-4l16 -24 q-24 -30 -24 -44q-12 0 -12 -36l-4 -4h-16l-20 4q-171 -239 -184 -372v-32q-16 -13 -16 -32l-4 -4h-8l-12 12l4 4v4q-9 24 -16 24l-4 -4l-4 4v4q25 104 36 104l-4 4l36 76l88 160l88 124l-4 4v4l4 20l-24 8l-56 -4l-72 24l-4 -4h-4q-13 20 -60 52q0 9 -16 24q-44 68 -44 112 q-7 0 -12 28q0 100 68 252q35 61 152 184q146 153 244 200v4h-8l-32 -4l-12 4l-8 -8l-28 4q0 -9 -44 -12l4 -4v-4l-4 -4h-8v8h-36l8 -12l-4 -4h-20v8h8v4h-44l4 -4v-8h-16l4 4v8l-4 -4h-4l-16 4l-12 -4l4 -4v-4l-32 -8v8h16v4h-24l-4 -4v-4l4 -4l-12 -8h-88l-16 4l-16 -4 h-20q-44 0 -44 12v8l4 4v4q-26 0 -28 12zM301 -138v-4q0 -7 20 -12l12 16h-32zM345 -206h12v-4l-8 -8l-4 4v8zM617 870q0 -12 16 -12v-4q32 0 64 28q91 36 148 36l-4 4v4l4 4h4q0 -12 16 -12q24 -8 24 -32q59 9 88 32l20 4q0 11 60 40q117 72 132 132h4v16l-4 -4h-4 q-3 18 -48 40h-24v12h8v4h-44v-16h-24l-4 4h-4l-8 -8l-4 4v4l4 4h-12v-12h-8v8q-47 0 -52 -24h-8v8h-4v-12h-8v8q-8 0 -8 -12h-4v8h-8v-12h-4l-4 4h-4v-12h-12l-4 4h-4v-12l-12 8q0 -16 -36 -16q-35 -14 -136 -96q-92 -75 -92 -124zM1145 1270l24 44l-4 16l20 20l4 -4h4 q101 170 128 268q9 28 32 28l16 -16v-4q0 -58 -140 -308l-20 -52q0 -26 -20 -36h-8q-16 8 -16 20l8 20l-4 4h-4q0 -12 -8 -12h-4q-8 0 -8 12zM1229 1266v12h4l8 -8v-4h-12z" />
<glyph unicode="'" horiz-adv-x="198" d="M413 1041q4 16 28 44l-8 8v8l20 24l12 -8l16 12l4 4v4l-4 4h-4l-12 -8v4l12 12h12l40 -32l8 -40q0 -34 -52 -196q-9 -60 -28 -60l4 -4v-4l-8 -8h-12v12l4 4v4q-12 0 -12 12l-4 -4h-8v4l4 4l-4 4q12 65 44 124l-4 4v4l8 28h-20l-12 12l8 24l-4 4h-4q0 -12 -8 -12h-8z" />
<glyph unicode="(" horiz-adv-x="501" d="M140 87v4q12 12 12 28h4l-8 24l4 -4h4q15 156 32 156l-8 20q7 0 20 52q13 2 44 144q17 0 32 76q12 0 24 56l120 220q35 45 44 80l76 100q0 11 56 80q8 0 40 48l76 76q76 46 76 52q0 12 8 12t8 -16q36 0 36 -36q-28 -78 -48 -88h-8l-8 8v4l4 4v4l-24 4l4 20 q-103 -62 -228 -232q0 -14 -56 -84q-144 -236 -144 -280q-24 -17 -24 -56q-16 0 -32 -92q-17 0 -44 -112l4 -4v-4q-12 -49 -24 -64l4 -24l-20 -96h-4l4 -4v-24q0 -20 -8 -20l4 -4v-96q0 -136 48 -220h4v20h16l12 -12v-8l-12 -12l-12 4l12 -20q0 -24 -16 -24l4 -20v-4 l-12 -12q-22 0 -36 32q-24 0 -52 140h4l-4 4v8h8v-16h4v4q-12 66 -12 148v56h-8zM160 -125v-8q6 -48 16 -48v4l-12 52h-4z" />
<glyph unicode=")" horiz-adv-x="377" d="M-161 -331q0 12 28 28l44 48q0 17 100 136q163 247 292 552q60 165 100 316l-4 24q11 0 16 40l-4 12q4 28 12 28l-4 20l8 16l-4 16q16 19 16 92l-4 40l-4 -4h-8v16h4l4 -4h4v4q-21 176 -60 176l4 12h-4l-60 56q-41 0 -56 32l-20 16v4q0 8 12 8l12 -4l-4 4v4l12 24 q-20 3 -20 12v8l12 12h8l24 -24q0 12 16 20h4q7 0 20 -36l4 -4h-8l-12 8h-4v-4q121 -103 144 -200q16 -69 16 -152q-11 0 -16 -112l4 -16l-8 -8l4 -24l-4 -4h-4l4 -16l-20 -64l4 -20q-18 -22 -76 -236q-133 -359 -360 -700q-6 -21 -96 -124q0 -11 -20 -24q0 -17 -24 -28 q-12 0 -24 24zM399 1173h8l4 -12h-8zM419 1085v12h8v-12h-8z" />
<glyph unicode="*" horiz-adv-x="493" d="M10 868v4q0 8 24 16q3 24 24 24v4h-4l-20 -8l-8 12v4l12 12h20l12 -12l4 4h16l4 -4l4 4h4l12 -8l68 8v4q0 30 -32 64v4q0 8 12 8l12 -4v4l8 24l-12 16v4l8 8h8q8 0 8 -24l44 -24l-4 -12l4 -56h4q32 54 40 84l16 24l4 4l-4 4v4l4 4v4l-4 16l20 16l8 -8l-4 -20h4l16 4l4 -4 q0 16 16 24h4q39 -12 40 -20v-20q-32 -59 -96 -128v-4q108 -16 124 -44v-12l-16 -16l-20 4v-8h12l-4 -4v-4l-40 16l-4 -4h-4l-24 12l-12 -4q0 8 -20 8l-4 4v4l8 8h-36l4 -4v-4q-24 -8 -24 -24l12 -132q-20 -12 -20 -32h-8q-11 0 -16 40h-8l4 -4v-4h-4q-8 0 -12 40 q-12 0 -12 8v20h-8q-7 0 -48 -60h-4q-21 0 -24 12v12l8 12v4h-4l-12 -8h-8l-8 8v4l4 4q25 18 36 40q16 4 60 48v4h-8l-88 -24l-20 -16h-20l-8 8v16l4 4v4h-4l-12 -8zM98 828q7 16 28 16h8v-4l-20 -20h-8zM166 776v4l4 4h4l4 -4v-4l-4 -4h-4zM206 760l4 -20h4v20h-8z M214 1044l8 8h8l12 -12l-12 -12zM238 1000v4h12v-12h-4zM310 880h16v4h-16v-4z" />
<glyph unicode="+" horiz-adv-x="777" d="M43 420v4q0 23 16 40q-12 0 -12 8v4q0 12 40 12l4 -4v-4l-8 -12h4l40 12l4 -4v-4l-24 -4q6 -20 52 -20h128l32 -8h24q68 131 68 152q16 4 16 24v4q-12 0 -12 8l4 28l-16 -12h-4q-8 0 -8 12l20 36l-8 12v8q30 22 84 112q22 28 36 28l-8 12v4h4l40 -20l8 -36 q-43 -102 -68 -120l4 -4v-8q-26 -25 -44 -80l-16 -16l4 -4v-4q-68 -103 -68 -132q39 -12 148 -16l28 4q0 -12 44 -12l28 4q0 -12 76 -16l32 4l12 -16v-12l-12 -12h-16l-24 12l-4 -4l-56 8l-20 -4q-20 12 -40 12l-44 -4q0 13 -120 16l-32 -4l-24 8q-22 -39 -28 -80 q-18 -11 -48 -104l4 -4v-4l-20 -80v-4l4 -68l-16 -16l4 -16l-4 -4h-12q-12 0 -12 32l-12 -8h-8v32h8v-8h4v40h-8v12l12 16l-4 4q15 63 44 108l36 100l28 52h-8l-32 -8h-148v-4h40v-8l-100 -8q-32 0 -32 32z" />
<glyph unicode="," horiz-adv-x="182" d="M1 -3l20 40l-4 4v4q0 24 24 36q1 16 8 16l-4 4v4l4 4l-4 4v8q0 8 16 8q0 32 28 32q16 0 28 -20l-4 -4v-4q0 -16 24 -20v8h12l8 -8v-4l-8 -12v-60l-4 -24l4 -4v-4q-16 -164 -40 -200l-8 -8h-16q-8 0 -8 12l4 20l-4 4h-4q0 -12 -8 -12l-8 8v8l20 44l-4 4v8l8 8l-4 4v8l4 4 l-4 4v4l8 24v28h4l4 -4h4v16l-4 -4h-4l-4 12l4 4l-4 36h-4q0 -16 -20 -60q0 -16 -8 -16h-20l-8 8l4 28l-16 -12zM61 169v4l8 8h4l8 -8v-4l-8 -8h-4zM109 157v12h12v-8l-8 -8zM157 69l4 4h4v-12z" />
<glyph unicode="-" horiz-adv-x="450" d="M37 244l12 12l12 -4v4l8 24l-16 12v12l8 8h12l28 -16l16 4q0 -12 20 -12v-8l-20 4l8 -8h16l256 12l12 -16q0 -21 -20 -28q0 -12 -8 -12l-4 4v4l4 4h-44l4 -4v-12h-24v8h12v4h-44l8 -12l-4 -4h-32v8h20v4h-44v-4q12 0 12 -8l-4 -4h-32v8h12v4h-40v-4l4 -4v-4l-12 -8h-24 l-44 -8h-20q-24 0 -24 28q-24 0 -24 12z" />
<glyph unicode="." horiz-adv-x="279" d="M59 49l43 60h22l60 -22l16 5l11 -16v-5l-11 -11h-11l-21 11h-11v-6q28 0 38 -43l-16 -22h-11l5 -27l-11 -11h-32q-71 55 -71 87zM157 114v11h16l-11 -11h-5z" />
<glyph unicode="/" horiz-adv-x="263" d="M-139 33l24 44l-4 12l24 28l4 -4h4l164 224q0 14 100 116q97 137 416 492q0 12 88 100q85 80 116 80h4l16 -16v-16l-16 -16l4 -4v-4q0 -10 -48 -20q-56 -40 -72 -60l-60 -60l-16 -4l4 -4v-8q-20 0 -176 -184q-264 -300 -300 -384l-124 -168q-92 -122 -92 -180l-24 -8 l-12 12v4l4 28l-16 -12h-4q-8 0 -8 12zM-51 37v4l8 8v-12h-8z" />
<glyph unicode="0" horiz-adv-x="718" d="M37 189q12 17 28 112q112 287 224 464q0 14 36 60q17 39 48 68q0 27 132 200l64 64h-4l-12 -4l-4 4v4l28 20h8l12 -12v-8l-4 -4v-4q16 0 28 -20v-4q0 -24 -16 -24l8 -20l-60 -16q0 -8 -48 -48q-80 -116 -128 -164q0 -17 -32 -48q-20 -50 -40 -68q-110 -179 -184 -372 l4 -12q-20 -80 -32 -80l4 -4v-4q0 -20 -8 -20l4 -4v-4l-8 -52v-64l-4 -4v-4q8 0 8 -24q25 -56 64 -56h16q55 0 172 100q0 9 52 56q0 14 52 68q17 37 44 68q228 399 228 640l-4 28l4 4v4l-4 24l4 4q-16 72 -44 72l-20 24l-4 -4h-4q-8 0 -8 16q-22 0 -32 20v4l32 20h4 q76 -24 76 -52q7 0 16 -64l12 -32l8 -8l-4 -20l4 -20q-8 -9 -28 -172q-56 -211 -164 -416l-72 -132q-12 0 -44 -60l-44 -48q0 -36 -144 -148h-8l-4 4h-4q-16 -28 -44 -28v8h-20v-16h-4l-4 4l-24 -12q-46 17 -60 48h-8q0 11 -24 20v8h8v-8h4v8q-11 0 -20 56l4 4l-4 28v52h-8z M149 -7l4 -4v-4l16 4v4h-20zM629 1121h16v-8h-8z" />
<glyph unicode="1" horiz-adv-x="236" d="M0 -20l4 28v20h4l4 -4h4v8l-4 28l4 4h4l-4 4v8h8v8h-8l16 48h-8l16 40h-8l12 16l-4 4v4l12 32h-4l8 12l-4 4v4l28 100q16 21 20 68l-4 4q7 0 12 24l-4 4l4 4h4l-4 4v4l8 12l-4 4q24 22 64 196l4 20l-4 4v36h8v-24h4v20q0 36 -12 36v20h8v-8h4v20h-8v8h8l-4 16q5 52 16 64 l-4 4l8 8l-4 4v4l4 4h4l-4 4v4l8 12l-4 4l4 4h4l-4 4q49 154 112 276q47 88 68 112l-4 20l8 8l8 -8v-4l-4 -4v-4q24 0 32 -8l4 4v-28l-136 -376q-6 0 -20 -36l4 -12q-28 -96 -52 -132v-20h4l12 4l12 -20v-16q0 -8 -12 -8v-16q0 -21 -16 -28l4 -4v-16l-8 -8h-20q-8 0 -8 16 h-4l-40 -140l4 -4v-4l-40 -124l4 -4v-4q-44 -158 -64 -328l4 -16v-8q0 -14 -24 -48h-12q-8 0 -8 12l4 12q-8 0 -8 16h-4q0 -16 -8 -16zM248 896h8l12 44l-8 8z" />
<glyph unicode="2" horiz-adv-x="611" d="M-31 -100q16 17 16 44l4 4q16 0 16 24h8v4l-8 12l8 8h8v-8q38 15 72 88q11 4 56 80q11 2 172 244q271 363 348 508l56 124l-4 12q8 0 8 12l-4 12h8q-15 28 -28 28v-4l4 -4v-4l-12 -8h-8l-4 4l-84 -28q-97 -66 -192 -184l4 -4v-8q-14 -11 -32 -84l-4 -4h-12q-16 0 -16 36 l-4 -4h-8l-8 8v24l32 56l4 -4q14 36 140 156q138 100 208 100h8q49 0 64 -48q-21 -119 -116 -240q-109 -165 -460 -660q-44 -82 -76 -124v-8q159 68 200 68l12 -4q0 17 108 24h44q80 -15 80 -48v-4q-20 -18 -20 -32h-12q-47 28 -72 28h-36v8h12v4h-44l4 -4v-12h-8v16l-48 -8 v4q-16 -12 -72 -24l-24 -16l-4 4h-4l-16 -12l-4 4h-4l-16 -12l-4 4q0 -7 -20 -12v-8q-19 0 -36 -16l-4 4q0 -19 -48 -36l-24 -28q-32 -25 -60 -92l-12 -8h-4q-8 0 -12 32h-4l-8 -8l-4 4v20zM409 816l8 8l8 -8v-8h-8zM477 100h16v4h-16v-4z" />
<glyph unicode="3" horiz-adv-x="911" d="M107 1012v8q0 8 20 8q0 28 44 36v4h-16l-12 -8h-8l-8 8v8l8 8l24 -4l4 4l40 -8q248 130 464 196h4q40 -9 40 -40q-20 -57 -56 -68q-72 -85 -108 -96q-8 0 -36 -32q-12 0 -20 -24l-68 -52h8q0 11 104 24l60 -4l56 4l4 -4v-4l12 4q71 0 188 -76q80 -108 80 -188v-40 q0 -14 -16 -32l4 -20q-22 -37 -48 -104q-6 0 -12 -36q-7 0 -20 -36q-19 -10 -120 -148q-82 -87 -216 -192q-7 -13 -56 -40q0 -8 -24 -8q0 -19 -40 -24q0 -25 -172 -56l4 -4v-8h-12q0 9 -36 16l-12 -4l-12 12v-8h-4l-8 8l4 4q-16 4 -16 24v8q0 9 20 12q60 -24 104 -24l104 36 q0 6 36 12q0 16 28 16q18 23 120 80q194 168 244 256q46 61 52 92q25 0 52 128q0 10 16 12l-12 32h-4v4l12 16q0 115 -100 188q0 24 -124 52l-52 4h-4l-12 8h-20l-32 -8l4 -4v-4l-8 -8l-8 8l4 4h-36l4 -4v-8h-8v8h-8q0 -24 -80 -40q-63 -24 -120 -88q-16 -44 -32 -44h-4 l-12 12l4 16l-8 8l-4 -4h-4l-8 8q7 36 24 36v4l-12 20q8 18 16 20h8q8 0 8 -12h4q53 53 128 108q9 25 72 72l28 24q12 0 36 36l100 96v12h-4v-16h-8v12q-36 0 -36 -20l-4 4h-8v-8h-4l-12 4q-4 -13 -16 -16l-20 4q-2 -12 -32 -12l-4 -4q-5 -8 -44 -20q0 -16 -48 -28 q0 -6 -44 -16q0 -25 -68 -48q-96 -54 -100 -64l-44 -16l-12 12v12l8 12h-8l-20 -4zM167 -20h12v-8h-4zM311 808v4l4 4h4l4 -4v-4l-4 -4h-4zM715 920v4h12l-8 -8z" />
<glyph unicode="4" horiz-adv-x="547" d="M27 709l72 124q34 26 148 172q0 11 136 168q52 57 52 76l-8 8q28 26 28 48l-8 8l12 12h8l8 -8v-4l-4 -4v-4q36 0 36 -32v-4q0 -38 -48 -80q-173 -200 -212 -224q-114 -138 -160 -224v-12h4l172 20v-4q8 7 60 12l16 -8q34 71 40 160l16 12l-4 4v4l8 16l-4 12q6 16 12 16h4 l12 -12q-7 -20 -20 -20v-4h8l8 8h20q0 28 12 28h8l12 -12v-8q-8 -16 -20 -16v-20q0 -31 -68 -120l-20 -44l24 -8h8l32 4q56 -5 56 -20v-12q-8 -16 -20 -16l-60 16l-52 -4l-4 4q-188 -472 -188 -732l8 -104q-24 -10 -24 -20h-4l-16 36v48l12 60l-4 4q31 280 112 488 q0 21 76 216h-32v-12h-4v12l-76 -12h-12q0 -16 -8 -16h-8v4l4 4v4h-12v-4l4 -4v-4l-4 -4h-12v12l-8 -8l4 -4l-32 -12h-8l-4 4l-4 -4h-4l-8 8l4 4l-4 4h-4l-12 -4l4 -4v-8h-16zM111 -67h8v-12l-8 8v4zM467 905v8l8 8l4 -4v-4l-8 -8h-4zM499 1301v4l8 8h4l8 -8l-12 -12z" />
<glyph unicode="5" horiz-adv-x="970" d="M5 913v12q24 25 24 36l-8 8l20 28h4q8 0 8 -16q77 64 88 64q0 41 -28 132h-4v-4l8 -24h-8l-8 28l4 12v4h-4v-8h-8q0 16 -28 48q11 0 16 28l16 12q51 0 84 -196q63 28 300 80q33 16 340 44l4 4h8l12 -8h44l80 -12l24 4l24 -24q0 -13 -40 -16q0 15 -84 20h-32l-36 -4l-12 8 l-4 -4h-4q-245 0 -528 -92l-88 -64v-48l4 -16l-4 -16v-56q165 144 424 144h4q224 0 296 -208l12 -80v-20l-8 -12l12 -12q-13 -124 -32 -124l4 -12q-26 -80 -64 -136l-12 -12l4 -4v-4q-24 -44 -164 -208l-112 -104l4 -4v-8h-4l-4 4h-4q-25 -12 -36 -28l-120 -88 q-15 0 -72 -44q-21 0 -64 -32l-4 4h-4q-16 0 -16 -16h-8v8h-4v-8h-4l-4 4h-4v-12h-8v8h-4q0 -16 -8 -16h-4v12h-8q0 -16 -24 -24h-32q-32 0 -68 44l8 8l4 -12h4v8l-4 4v4q9 24 28 24l32 -20q82 0 232 80l68 48h4h4l32 16v4l-8 12l4 4h4l12 -4v4l4 -4h4q52 49 92 76 q0 15 56 48q2 13 68 80q52 60 72 104q40 53 40 68q14 14 24 48h8v12q20 67 28 72l-4 4v4l12 28v8l-4 12h8v12l-4 20h8v28l8 12q-8 6 -16 80q-14 79 -100 144l-44 28l4 4q-54 20 -100 20v-4l-16 -8l-24 4l-4 -4h-4l-40 16l-20 -4l8 -12l-4 -4h-4q-8 0 -8 12h-20q0 -16 -8 -16 h-4v4l4 4v4h-16q0 -16 -8 -16h-4v4l4 4v4h-12q0 -16 -8 -16l-4 4v4l4 4h-8q0 -21 -80 -36l-80 -48q-78 -50 -104 -120h-4q-44 5 -44 20v8l4 4v4l-4 4l-4 -4h-8l-8 8v4q0 15 20 44l-4 4v4l8 32v24l4 4l-4 4v8l4 4l-4 4l4 28v16h-8q0 -12 -24 -20q-26 -31 -52 -88h-12l-16 16 l4 24v4h-4q0 -12 -8 -12h-4zM213 797v4l4 20l8 -8v-16h-12zM573 977h60v4h-60v-4z" />
<glyph unicode="6" horiz-adv-x="465" d="M42 78v28h8v36h-8v24l8 8v-16h4v12l-4 4v4l8 12l-4 4v24h-8v12q12 0 12 8v12h-8v4l12 16v12h-8v8h8l-4 20l12 12l-4 4v4l8 12l-4 4l4 4v4l-4 4v4l8 8v4l-4 4v4l8 8l-4 4q6 0 20 44l4 4l-4 4v4q15 56 32 56l-4 24q24 76 40 76v16q6 40 24 40v16q46 119 132 252 q66 118 264 292q59 44 104 44l-4 4v8h16q0 -15 32 -24v-8h4l4 16l-4 4h4l12 -12v-4q0 -12 -16 -12l4 -4v-8q0 -29 -12 -32l4 -4v-4q0 -32 -28 -32l-12 12v16l4 4v4l-20 -4l-12 8q-45 0 -200 -144q-51 -55 -132 -172q-57 -100 -100 -196q-8 -24 -20 -24v-8q-5 -48 -24 -48v-8 q-16 -88 -44 -88l8 -28q55 46 100 52q94 0 108 -152q0 -250 -156 -440q-37 -28 -72 -28h-12q-68 53 -68 88h4q9 0 12 -28h4v8q-20 47 -20 108h-4v-8h-8zM94 126q0 -148 52 -148q75 0 148 232h4l-4 4v8l8 8l-4 4v8l8 8l-4 4v16l8 8l-4 4v8h8v8h-8v8q12 14 12 48v32l-12 -8 l-4 4v4l4 12l4 -4h4v4q0 30 -12 32l-4 -4q-16 40 -48 40q-63 0 -116 -100q-40 -53 -40 -240zM758 1202v12h8v-12h-8z" />
<glyph unicode="7" horiz-adv-x="555" d="M3 -153l16 28l-4 16h8l-4 20l8 8v4l-4 4v4l8 8l-4 4l8 8l-4 4v4l8 8l-4 4v4l20 44q7 0 16 64q14 9 68 168l-4 4v12q24 31 96 204q106 213 240 392q25 24 36 52q8 1 204 212l112 120l-4 4h-4l-60 -12l-4 12q-8 0 -8 -12h-4v8q-48 -8 -48 -24h-4v8h-4q-8 0 -8 -12l-4 4h-8 v-8h-4l-4 4h-4q0 -10 -16 -12v8q-52 -7 -72 -28v-4l-4 4h-4q-16 0 -16 -16l-20 4q0 -27 -156 -72l-72 -28h-20l-8 8v20q-24 0 -24 8v4q0 8 20 8q2 32 32 32v4l-20 -4h-8l-12 12v4q0 9 20 12l12 -12l32 8l28 -20q208 72 236 72l44 24q129 44 232 60v4q44 -11 44 -40 q-22 -61 -116 -132q-24 -29 -96 -84q-123 -126 -128 -148q-10 0 -32 -36q-13 0 -68 -76q-166 -220 -284 -532l-16 -40l-52 -144l4 -12l-24 -56l4 -16l-40 -172q-8 0 -8 -12l-4 -4h-8l-8 8l4 4v4l-16 12l-4 -4l-4 4v4z" />
<glyph unicode="8" horiz-adv-x="680" d="M-113 -71q0 19 20 32q11 40 24 52q0 16 20 44l32 56q240 460 364 632l-4 4v4l4 4q-21 44 -36 44l4 4q-72 126 -72 180l-12 -8l-4 4v4l4 12l4 -4h4v32l-4 -4h-4l-4 4v8h12l-8 28l4 4h4l-4 4v4q60 138 120 164q106 64 196 64h24q105 0 128 -72v-12q0 -27 -48 -100l4 -16 l-12 -16l-4 4q-8 0 -36 -44q-16 0 -52 -60q-103 -148 -148 -192l-12 -20q204 -270 204 -416v-56q0 -226 -216 -388q-57 -47 -88 -56l-32 -28h-8l-4 4h-4l-4 -16h-4l-20 4l-8 -12l-12 4l4 -4v-4l-4 -4h-8v8h-4v-8h-4l-12 4l4 -4v-4l-8 -8v12h-8v-12h-4l-4 4l-4 -4h-4l-12 4 v-4q0 -12 -8 -12h-4v4l4 4v4h-16l4 -4v-4l-8 -8h-4v12h-16l4 -4v-4l-8 -8h-4l-8 8h8v4h-36v-4l4 -4v-4l-4 -4h-8l-8 8l12 4v4h-48v-4h8v-8l-20 -4q0 8 -24 8v8l4 4v4l-20 8q4 32 20 32q64 -2 64 -8l4 4h28q207 0 420 228l56 96l-4 4l4 4h4l-4 4v4l12 16l-4 4v4l8 12l-4 12 l4 4h4l-4 20q0 8 12 8v28h-8v44h8v24q0 124 -96 260h-8l4 4l-12 24l-4 -4h-4l-8 8l4 4v4l-12 20l-4 -4h-4l-16 20l4 16q-12 0 -12 12l-4 -4h-4l-16 24q-90 -125 -196 -324q-135 -235 -176 -336q0 -12 -16 -28q0 -16 -20 -44l-24 -44q0 -32 -24 -44q-18 8 -20 16v8zM-37 -215 v-4h16v4h-16zM263 881v4h8v-12zM283 1025q0 -98 96 -228l52 92q31 31 132 188l-4 16q18 13 32 40q-12 0 -12 8v4l28 32h4l-4 4v4l12 12h4l12 -8l4 4l-4 4v4l4 16q-53 24 -80 24v8q16 0 16 8h-4l-4 -4h-4l-16 4h-4v-4l4 -4v-4q-16 -12 -52 -12l-4 4l-108 -44 q-100 -64 -100 -168zM675 1129v4l8 8h8l-12 -12h-4z" />
<glyph unicode="9" horiz-adv-x="525" d="M-55 -68q3 24 12 24h20l28 -20h12q47 0 100 56l36 40q12 37 32 48q9 33 44 84q120 241 120 280q18 0 88 224q76 206 76 248l-4 4h-4q-120 -137 -204 -188l-16 -4l-4 4q0 -9 -40 -12q-30 33 -40 56h8q0 -12 8 -12v4l-4 24l-12 -8l-4 4v4q15 0 20 60l4 4l-4 12l8 8h-4 q17 62 56 100q8 39 68 116q10 0 68 68q53 50 140 72h36q54 -20 76 -80l4 -4v-4q0 -38 -20 -84q0 -21 -16 -28h-8l-16 16l8 24l-4 4h-4l-100 -284q-112 -317 -128 -380q-9 -3 -132 -264q-18 -66 -40 -76q-8 -28 -32 -52q-22 -63 -92 -108l-48 -32h-12v4l4 4v4h-32l4 -4v-4 l-8 -8h-4q-39 34 -44 52v4zM253 804l8 -20q67 0 216 160q85 111 104 196l12 4v4q-16 20 -52 20l-12 -4v4l-20 -8l-8 8q0 -15 -64 -48l-52 -44l-92 -124l-32 -92l-4 -36v-16zM673 1076v12h8v-12h-8z" />
<glyph unicode=":" horiz-adv-x="279" d="M59 49l43 60h22l60 -22l16 5l11 -16v-5l-11 -11h-11l-21 11h-11v-6q28 0 38 -43l-16 -22h-11l5 -27l-11 -11h-32q-71 55 -71 87zM134 519l43 60h22l60 -22l16 5l11 -16v-5l-11 -11h-11l-21 11h-11v-6q28 0 38 -43l-16 -22h-11l5 -27l-11 -11h-32q-71 55 -71 87zM157 114 v11h16l-11 -11h-5zM232 584v11h16l-11 -11h-5z" />
<glyph unicode=";" horiz-adv-x="241" d="M7 30l30 34l-3 5l1 3q6 24 32 29q5 15 12 13l-3 5l1 4l5 3l-2 5l2 8q2 7 17 3q8 31 35 24q16 -4 22 -27l-5 -3l-1 -3q-4 -16 18 -26l2 8l12 -3l6 -10l-1 -4l-11 -10l-16 -58l-10 -22l3 -5l-1 -3q-58 -155 -90 -183l-10 -6l-16 4q-7 2 -4 14l9 18l-3 5l-4 1q-3 -11 -11 -9 l-5 9l2 8l30 37l-2 5l2 8l9 6l-2 5l2 7l5 3l-3 5l1 4l14 21l7 27l4 -1l3 -5l4 -1l4 16l-5 -3l-4 1l-1 12l5 3l5 36l-3 1q-5 -15 -35 -53q-4 -15 -12 -13l-19 5l-6 10l11 26l-19 -8zM109 181l2 4l9 5l4 -1l6 -10l-1 -3l-10 -6l-4 1zM134 526l43 60h22l60 -22l16 5l11 -16v-5 l-11 -11h-11l-21 11h-11v-6q28 0 38 -43l-16 -22h-11l5 -27l-11 -11h-32q-71 55 -71 87zM153 157l3 11l11 -3l-2 -8l-9 -5zM176 59l5 3l4 -1l-3 -11zM232 591v11h16l-11 -11h-5z" />
<glyph unicode="&#x3c;" horiz-adv-x="724" d="M27 156v8q15 42 176 140l68 36q245 141 320 192l8 12h-4l-4 -4h-4l-4 4q0 44 32 44q12 0 12 -16l-8 -16h20q0 18 16 24h4l8 -8v-12q0 -12 -16 -12v-20q-7 -60 -40 -60l-160 -80l-4 4l-24 -20h-4l-4 4h-4q0 -12 -44 -32l-12 4v-4l-8 -8v-4h-20q-12 -20 -36 -20l4 -4v-4 q-54 -22 -92 -56q-12 0 -88 -64h4q312 0 416 -136v-20l-20 -16v-12h-12l-56 56l-84 40l-4 -4h-4l-8 8l-4 -4h-4l-8 8l-4 -4h-4q-32 10 -32 16l12 4v4h-20l4 -4v-8h-4l-24 4l-16 -4l-8 8h-16l-20 -4l-8 12l12 4v4h-36v-4h8v-4l-8 -8h-36l-8 8q-22 -8 -68 -8l-8 24 q-20 0 -20 12zM95 136l32 -4v8h-32v-4zM219 128l20 -4l4 4v4h-24v-4zM255 124l16 -4l4 4v4h-20v-4zM307 116h16v4h-16v-4z" />
<glyph unicode="=" horiz-adv-x="981" d="M44 168v4q0 8 20 8q0 32 40 32v4l-12 4l-8 -8q-20 5 -20 12l40 12l8 -8l24 4l12 -12q292 80 332 80l12 -4l112 20l4 -4h4l20 8l24 -8q44 4 52 12h8l8 -8l4 4h12l4 -4h4l8 8h72q13 -12 92 -12l-52 -24l-108 -4l-28 8h-4l-8 -8l-40 4h-32l-16 -8l-20 4l-4 -4v-4l-28 4 q-46 0 -104 -20l-4 4h-4q0 -8 -144 -36l-4 -4q-8 0 -8 -12h-4v8h-12l4 -4v-8l-12 8l-4 -12h-4v8h-4q-8 0 -8 -12l-4 4h-8v-8h-8v8h-4q0 -16 -8 -16l-4 4l-4 -4h-8v8q-8 0 -8 -16q-23 0 -128 -52h-8l-12 20l4 12h-4q-20 0 -20 8zM134 378q0 12 24 12q0 28 44 36l8 8l8 -8 l-4 -4v-4h88l40 4l24 -4q74 0 96 16h8l8 -8l28 12h8l8 -8q141 16 340 20l8 -12v-8q0 -8 -12 -8q-323 -4 -344 -24l-36 4l-4 -4v-4l-28 4l-136 -20l4 -4v-4l-8 -8h-16v8h12v4h-32l-4 -4q0 -19 -88 -28h-12l-8 8v12l4 4v4h-8l-12 -4zM154 430v8l8 8h4l20 -16l-24 -8z" />
<glyph unicode="&#x3e;" horiz-adv-x="633" d="M47 -33q41 53 148 112q3 8 72 48h20q0 19 168 104q65 32 92 60v8l-48 12l-12 -4l-4 4v4l8 12l-48 4l4 -4v-4l-4 -4h-4l-8 8l8 8h-20l4 -4v-4l-4 -4h-8l-8 8l12 4v4h-32v-4l16 -4v-4h-24l-8 8l12 4v4h-36v-4h16v-8h-4l-4 4l-4 -4h-16l-8 8l16 4v4h-104l-16 -4l-4 4h-4 l-16 -4l4 -4v-4q0 -9 -56 -12l-12 -12h-32l-8 8v8l8 12h-4l-24 -4l-4 4v8l24 16l8 20q-20 0 -20 12v8l12 12q66 -7 84 -24v4l4 -4h68q181 0 336 -44q28 -29 28 -48q-25 -59 -36 -60l-32 -20h-20q0 -14 -60 -44l-16 4q0 -8 -48 -24q0 -8 -16 -8q0 -13 -60 -32 q-32 -16 -112 -80q-13 0 -44 -32l-4 4h-4q0 -7 -52 -48l-16 -24h-12l-12 12l8 12l-12 8l-8 -8zM231 335v8h28l4 -4l4 4h8v-8h-44zM459 315v12h4l12 -4v-8l-4 4l-4 -4h-8z" />
<glyph unicode="?" horiz-adv-x="461" d="M80 0v4q0 13 20 36l-4 16q7 0 12 28l20 4v-4l20 8q0 -8 20 -8l4 -12h4q1 20 12 20l8 -8v-4l-12 -16l4 -12l20 4h12l12 -12v-20l-20 -16q0 -28 -56 -28h-4q0 -16 -32 -16h-8q-12 0 -12 28l-4 -4h-4zM108 328v12h8v40l-8 12q12 0 12 44q17 7 32 64q20 15 72 104 q63 84 80 124q15 0 152 156q208 212 208 220t60 60q0 9 64 88q0 13 16 36l-4 4l4 4h4q0 88 -76 88l-8 12l8 8h-76l4 -4v-4l-8 -8l-4 4v4l4 4h-4q-33 0 -80 -20v-4h-4l-4 4h-4l-8 -12l-4 4h-4q-45 -17 -64 -32q-59 -25 -88 -68q-156 -130 -156 -236l20 -20v-16q0 -8 -20 -8 l4 -4v-4l-16 -40l4 -12l-12 -8h-16q-8 0 -12 24l4 4h-4l-16 -4l-4 4v48l4 4l-4 4v4q11 121 188 296l112 68q0 8 28 8q0 37 208 64h16q123 0 144 -108v-8q0 -96 -156 -236q0 -16 -24 -16l-168 -176q-306 -318 -332 -440l-20 -20l4 -4l-4 -68v-4q0 -43 60 -72l4 -4v-16 q-6 -16 -24 -16l4 -4v-4l-8 -8h-4q-22 0 -68 60l4 16q-8 0 -8 16zM672 1392v8h48v-8h-48zM808 1344l4 -12h4v4l-4 12h-4v-4z" />
<glyph unicode="@" horiz-adv-x="1495" d="M54 -34l8 16l-4 32l8 12l-4 4v4l16 48l-4 16v4l16 24l-4 12q0 19 64 148q0 14 36 60q0 29 140 176q155 157 300 232l88 52q16 0 44 20q27 0 60 28l40 8v-4l84 32l12 -4l64 20l4 -4h4l24 8l4 -4l16 8l16 -4q59 4 64 12l44 -4l84 4l4 -4v-4l4 4h4q120 0 244 -76 q84 -61 84 -172v-16q0 -163 -200 -364q-12 0 -12 -16q-208 -187 -252 -200q0 -9 -20 -12l-4 4q0 -10 -24 -24l-8 8q0 -14 -24 -24l-8 8q0 -19 -52 -28l-8 -8h-4l-4 4h-4l-4 -4v-4l-20 4l-12 -8h-20l-12 12l8 8h-20l4 -4v-4l-8 -8q-50 0 -116 80l-12 44h-8 q-82 -107 -152 -124l-4 -4h-8q-52 0 -68 36q-6 0 -28 36q0 106 176 272q87 64 180 76l16 -4l28 4q0 -10 36 -24q0 -12 8 -12v12l-12 16v4q32 -20 32 -40v-4q-16 -19 -20 -48l-4 -4h-4l4 -4v-4q-4 -24 -12 -24h-20l-8 8l4 28v4h-4q0 -16 -12 -16l-4 4h-4q0 -12 -60 -120v-12 q0 -120 108 -120h12q132 0 368 196q26 31 68 60q144 172 144 208q11 4 20 44h4l-4 4v4l8 12l-4 4v4l8 8l-4 4v4q12 3 12 32v8h-8v4l8 12l-8 8h12q-11 80 -24 80l-4 -4q-8 28 -24 28q0 16 -40 36l-4 4v4l-4 -4h-4q0 12 -16 12v8l-4 -4h-8q0 34 -200 52h-20l-12 8h-16l-24 -8 l-64 4l-40 -12l-12 4l-8 -8l-16 4l-24 -8l-4 4h-4q-44 -8 -56 -20l-16 4l-156 -56q0 -9 -44 -20q0 -11 -52 -24q-162 -77 -364 -280q-79 -91 -92 -132q-15 0 -40 -64q-29 -28 -48 -124l-24 -40l4 -20v-4q-15 -18 -16 -36l4 -20l-8 -12l4 -4v-8l-8 -28l4 -24l-8 -12l8 -24 l-4 -56l32 -88q59 -111 180 -164q76 -41 104 -48l12 4l56 -20l24 4q0 -9 20 -12l24 4q0 -12 52 -12l28 4l8 -8h56l16 -4l4 4l16 -4q345 0 1152 288q774 248 1356 248h8l24 4l16 -4l4 4h4l16 -4l12 4l20 -4h100l4 -4l4 4l20 -4q169 0 412 -60l20 4l60 -28l16 4l56 -32l4 4h12 q20 -21 60 -28q0 -6 56 -28q0 -8 40 -28q88 -68 88 -144q0 -94 -156 -156l-72 -12l-4 4v4l8 8l-32 4v8q14 0 16 28q70 8 160 56q19 19 24 44h4l4 -4v12q-12 0 -12 8l8 8l4 -4v8l-8 28h-4v-4l8 -24h-8l-8 28l4 12q-19 0 -68 72l-32 16l-4 -4q-9 24 -36 24q-19 28 -60 28 q0 6 -44 28l-4 -4h-12l-48 24l-12 -4q-49 29 -268 60q-155 20 -284 20h-84l-4 4l-4 -4h-24q-700 0 -1724 -372q-482 -164 -824 -164h-40l-36 -4q-19 12 -52 12l-28 -4l-28 12l-16 -4l-24 12l-20 -4l-60 24l-4 -4l-8 8l-4 -4q0 8 -44 12q-7 12 -52 24q0 6 -44 28l-4 -4 l-28 28l-4 -4h-4q-8 0 -24 32l-4 -4h-12l-8 16h8v4q-26 0 -76 124l-8 44l4 4v4l-12 36v36l4 24zM578 82q10 -24 32 -24q67 0 172 144q23 132 40 132h-8q-52 -8 -144 -84q-85 -88 -92 -144v-24zM786 126l4 -12h4v16h-8v-4zM794 106q7 -36 16 -36v4l-12 36h-4v-4zM962 2h4 l12 4v4h-12l-4 -4v-4zM1234 870v8h4l4 -4h4l4 4v-8h-16zM1550 738h8l4 -20q-7 0 -12 20z" />
<glyph unicode="A" horiz-adv-x="1249" d="M24 -303q0 82 100 188q23 0 48 28h16l8 -8v-4q-2 -8 -20 -16l4 -20q-4 -16 -16 -16l4 -4v-20q0 -6 -48 -24q-35 -39 -40 -92q0 -76 40 -76q93 0 260 204q0 14 52 68l204 304l-44 60v4l8 8h4l12 -8l4 32l-16 16v8l12 12h12l8 -8v-24l16 -4q0 28 8 28h12l12 -12l-4 -36 l-12 8h-4l8 -20h8q372 608 764 1160q2 13 40 56v4q-12 0 -12 8q20 37 24 64h4l4 -4h4q24 52 36 52l-4 4v8h8v8l-8 12q8 24 16 24h4q8 0 8 -12q58 72 80 72q24 -9 24 -28q-5 -26 -84 -124l-80 -144q-56 -112 -104 -180q-139 -261 -252 -620q-56 -207 -80 -380h4q0 20 132 48 l4 -4q76 20 88 32h8l4 -4h4l12 12h8l4 -4h4l12 12h8l4 -4h4l12 12l16 -4q119 32 128 44h8l4 -4h4q0 12 36 16l4 -4h4q559 152 1116 152h48q322 0 660 -72l16 4l84 -28l12 4q32 -5 32 -16l4 4h12q17 -14 100 -40l12 4q13 0 60 -28q45 0 184 -76l4 -12q0 -18 -24 -24 q-24 9 -24 16l-4 -4h-4l-16 4v4h8v4h-4l-12 -4v4l-12 12l-8 -8l-8 8l4 4l-4 4h-4l-4 -4q0 16 -24 16l-4 -4q0 9 -44 24q0 13 -68 24q0 10 -96 40l-4 -4h-12l-12 12l-4 -4h-4l-88 28l-12 -4q-87 36 -408 72q-173 16 -332 16q-543 0 -1116 -156q0 -10 -36 -12l-4 4l-12 -12 l-16 4q-120 -33 -128 -44h-8l-4 4h-4l-12 -12h-8l-4 4h-4l-12 -12h-8l-4 4h-4l-12 -12h-8l-4 4l-96 -32l4 -4v-4h-4l-4 4h-4l-100 -24l-4 4v4q-9 -1 -24 -24h4q-7 -4 -20 -244q0 -261 52 -420l8 -8v-8l-4 -4l48 -104v-4q-11 -20 -32 -20q-41 72 -44 124l-8 8v8l4 4 q-20 60 -44 260v124q0 125 12 272l-4 4l4 4h-4q-64 -8 -64 -20v-4h-12l4 4v4h-12q0 -16 -8 -16l-4 4v4l4 4h-16v-16h-12v4l4 4v4h-16q-8 0 -8 -16h-24v8h16v4h-40v-4h8v-12h-16l-68 -4l-4 4v4l-4 -4h-4q-100 11 -100 28l-228 -340q-217 -288 -296 -288h-24q-50 0 -84 80h4 q9 0 12 -20h4v8l-8 24l-12 -8l-4 4v16h8v-8h4v16q-12 0 -12 8v8zM28 -307h8v20h-4zM104 -115l28 32h4l8 -8v-4q-1 -7 -40 -20zM180 -143l24 8l4 -4v-8l-24 -4l-4 4v4zM696 249q50 -24 136 -24l4 4h4l4 -4q136 12 204 36q80 421 140 564q68 173 212 480l4 20v4h-4 q-354 -510 -704 -1072v-8zM752 181l16 -4l4 4v4h-20v-4zM796 177h36v4h-36v-4zM1612 1593v12h8v-4zM1616 1729v4l8 8h8v-4l-12 -12z" />
<glyph unicode="B" horiz-adv-x="1219" d="M-32 150v16h8v-16h-8zM-24 166q0 30 64 72q66 84 112 84l20 16q16 40 40 68q0 12 100 152l224 336l-4 4h-4l-12 -12h-4l-8 8v4q55 64 96 88l-4 4v4q3 15 32 44l48 136l-4 12q8 0 8 12l-4 12q0 24 12 24v4l-8 8l-4 -4q0 8 -28 20l-8 -8l-12 12l4 4h-8v-12l-20 4l4 -4v-4 q-89 -47 -100 -64q-45 -11 -192 -184q-124 -171 -124 -272l4 4h4l32 -20v-8l-8 -8h-4l-24 28v-8q20 -21 20 -36v-12l-12 -16l4 -20l-12 -8h-16q-48 37 -48 92l4 4h4l4 -4v24h-4v-16h-8q0 78 116 260q270 328 412 328q76 0 76 -88q0 -85 -92 -216v-4h4q197 96 320 96l4 4h4 q152 0 152 -80v-8q-44 -89 -104 -116q-67 -64 -92 -64l-4 4h-4l-12 -12h-24q-7 -21 -112 -64l-12 4l-28 -12v-4l-12 4q-28 0 -48 -28q72 -8 72 -16l4 4h16l8 -8l12 4q35 0 148 -48q66 0 152 -88q11 0 44 -40q47 -39 68 -180v-20q0 -35 -16 -52l4 -24q-23 -75 -84 -128 q-62 -44 -84 -44q-10 -25 -80 -48q0 -12 -12 -12v4q-24 -7 -24 -16l-20 8q-214 -76 -492 -76h-4l-36 -4l-16 8l-28 -4l-12 8l-4 -4h-20q-8 0 -8 12l-28 -4q-26 0 -40 16l-4 -4h-4q-26 0 -100 28v-8h-4q-8 0 -16 24l-4 -4h-4l-12 8q-1 -34 -32 -68h-4l-8 8l8 12l-16 8l-4 -4 h-4l-4 4v4q9 0 20 40l4 4l-4 4q12 4 12 24q-20 8 -36 48v20l8 12v4zM16 142l16 -36q21 0 52 88q15 0 32 60q12 0 12 8h-4q-46 -10 -68 -40q-40 -62 -40 -80zM68 70q48 -36 128 -56l8 -8l20 4q36 -7 36 -16l20 4h8l12 -8l24 4q0 -8 12 -8l28 4l8 -8h40q353 0 564 124 q39 0 140 108q17 21 40 88v4h-8l8 20l-8 8v8h4l4 -4h4l-4 20v44q-21 64 -48 100l-12 -4v4l4 12q-8 0 -8 12l-4 -4h-8v8l4 4v4l-24 28q-11 0 -40 24l-12 -4l4 4v8h-4v-8h-8v4l4 4v4l-20 -4l-20 12v4l4 4v4q-20 0 -20 8l-4 -4h-8q0 26 -68 36l-4 -4h-4q-24 12 -144 32l-4 -4 l-28 4h-32l-4 4l-4 -4h-8l-4 4l-4 -4h-56v-4h36v-8h-16l-24 -4l-12 4l-16 -4l-4 4l-8 -8h-36l-12 -8h-20l-8 8v4l4 4v4l-4 4h-20q-142 -200 -152 -236q-56 -71 -56 -88l-16 -20h4l24 4l24 -4l24 4q0 -12 112 -24v-4l4 4h4q26 0 68 -32v-8l-8 -8q-28 0 -28 8l-4 -4h-4l-68 24 l-68 8l-28 -4l-8 8q-8 -8 -76 -20l-28 -56l-24 -32q-8 -8 -8 -32q-44 -44 -44 -88q-8 0 -8 -16zM224 682h4q16 -6 16 -12l-4 -4h-4zM456 726q46 0 224 56q15 0 52 24q298 114 336 216v12l-40 16h-44l-16 -4l-16 4v8h8v4h-28l4 -4v-4l-8 -8h-4v4l4 4v4h-20l4 -4v-4l-32 -16 l-12 4l-8 -8l-4 4h-4q0 -8 -36 -16l-4 4l-8 -8l-4 4q-8 -9 -116 -44l-76 -56q0 -18 -24 -24q-17 -26 -56 -60zM524 950q0 17 36 24v-4l-20 -24v-4h-8zM688 682l4 4h4l8 -8l-4 -4h-4zM1004 1058l28 -4l4 4v4h-32v-4z" />
<glyph unicode="C" horiz-adv-x="1378" d="M-350 1088l28 55l-5 14l23 19l5 -5v5l-5 4v5l70 60q66 28 107 28h9q62 0 412 -97q51 -4 51 -14l24 4q25 -18 102 -18q207 199 408 324l139 79q14 0 32 19l19 4h4l10 -9q41 14 60 37l56 9l4 -4h5q17 14 102 23q148 -22 148 -107v-41q-51 -129 -157 -177v5l-28 -23l-5 5h-4 q0 -13 -51 -19q-39 -30 -98 -51q-3 -18 -102 -32q-156 -56 -176 -56l-14 5l-23 -14l-23 4l-10 -9l-37 5q-14 -14 -111 -24l-51 10l-93 -5q-231 -275 -264 -454q-12 -18 -32 -167q18 -183 55 -241q25 -24 37 -56q78 -97 130 -116q68 -56 130 -65l42 -23l28 5q0 -16 143 -24h5 l5 -4l4 4l51 -4h39q312 0 565 91l9 -14v-4q0 -18 -316 -82q-136 -19 -264 -19h-28l-204 14l-23 -5l-112 37q-14 24 -79 42q-87 75 -171 172q-7 0 -14 18q-14 0 -14 42q-27 46 -51 232q34 224 111 371q81 131 190 259l-55 10l-19 -5q-66 0 -296 60l-5 -14l-23 10l-5 -5h-5 l-9 9l-4 -4h-5l-9 9l-5 -5q-70 20 -70 28l10 9h-23l4 -4v-14h-18l-10 9q-167 -32 -167 -107l-18 -55l-5 -5h-14l-18 19l4 28v4h-4q0 -14 -9 -14h-10zM-248 1092v14h9v-14h-9zM-123 1213h28v4l-23 5l-5 -5v-4zM-49 1213l10 -10l4 5v5h-14zM146 1143v14h9v-14h-9zM522 1152 l9 -9h42l37 9h42l51 5l23 -5l32 14l23 -4l10 9l32 -5q0 13 46 19l19 -5q125 34 185 70q30 0 89 37q39 0 55 32q163 78 186 163h4v23q-18 0 -18 32l-23 14l-5 -4h-5l-28 13l-18 -4l-19 4h-14v5l5 5v4h-42l-18 5q-36 -23 -84 -23l-4 4v5q-34 -7 -61 -37q-33 -5 -51 -23 q-128 -25 -440 -297zM1319 1570l14 -5l5 5v4h-19v-4z" />
<glyph unicode="D" horiz-adv-x="1212" d="M-217 727v28h8v-8h4v24h-8q53 174 172 244l96 56q27 15 76 24q0 13 72 36l4 -4h4l60 20l4 -4h4l44 16l16 -4q27 16 56 16v-4q22 12 64 12l12 -4l24 8h40l32 -8l24 4l12 -4q79 76 108 76q28 0 28 -28l-24 -60h4l32 -16l24 4q0 -13 152 -48q0 -11 72 -40v-4l4 4h4 q108 -43 108 -72q25 0 36 -32q40 -17 88 -84q47 -71 68 -168l-4 -68l4 -32q-22 -143 -72 -204q-81 -115 -108 -132q-12 0 -124 -116l-172 -104q-30 -28 -60 -28l-96 -56v4q-142 -32 -148 -44l-16 4q-29 -5 -40 -16l-20 4l-4 -4v-4l-28 4l-160 -8q-71 8 -132 32h-4v-4h8v-8 q-20 0 -20 -40q-21 -66 -40 -72l-24 36q8 0 8 16q7 0 12 36l4 4h4l-4 4v4l12 28l-4 4l4 4q-11 0 -60 56h8l4 -4h4l-4 4v16l16 16h16l40 -40l72 212q10 8 92 204l4 4v4h-12v8h4l12 -4v4q11 45 28 60q109 225 240 456q0 17 96 184v4h-8q-22 0 -108 -100h-8q0 -12 -36 -44 q-133 -167 -148 -224l-28 -48q-72 -172 -72 -224v-8h20l12 -12v-12q0 -8 -28 -8l8 -12v-4q0 -24 -16 -24l8 -20l-12 -8h-24q-36 39 -36 48q7 91 72 236q27 53 48 76q0 20 84 136l120 168l80 96l-80 -8l-24 8q0 -9 -64 -12l-4 4q0 -8 -32 -12l-24 4q0 -9 -20 -12l-12 4 l-68 -20v4q-21 -4 -32 -16q-87 -22 -136 -56h-8q0 -13 -32 -28l-12 4q-15 -18 -52 -40q-136 -106 -136 -240q0 -96 112 -176q41 -28 64 -28q0 12 8 12l4 -4l4 4h24q9 0 12 -20l-4 -4l24 -20v-20q0 -12 -16 -12l8 -12v-8l-8 -8h-28l-124 68q-88 69 -88 92v4l12 -8v8 q-17 0 -48 120v8h-8zM71 519v8l20 4h4l8 -8v-8l-12 -12h-4zM131 -17l88 -36l4 4h20l8 -8l4 4h16l12 -8h68q49 0 88 12h4l4 -4l20 8l12 -4l44 16l12 -4q88 23 136 48q55 11 116 52l24 16q41 0 252 172l80 88q53 65 96 160l-4 4l12 16l-4 4q8 0 16 44l-4 12q9 0 20 64v24 q-8 8 -20 92l-48 88q-32 42 -32 52l-4 -4h-8l4 4v4q-32 48 -56 48h-8l4 4q0 15 -24 24v-8h-8v4l4 4v4l-16 8h-4l-4 -4h-4q0 14 -24 28h-8l-4 -4h-4q0 24 -84 52q-20 0 -56 24l-92 28l-16 -4q-14 12 -36 16l-16 -4l-20 4q-88 -162 -140 -224q-224 -405 -224 -452 q-37 -35 -116 -248q0 -17 -28 -64zM691 1259v4l4 4h4l4 -4v-4l-4 -4h-4z" />
<glyph unicode="E" horiz-adv-x="1151" d="M134 346q13 11 43 128q68 149 174 298q161 172 333 303q74 52 154 94v4l-47 13l-5 -4h-4q-24 0 -64 60v8q0 9 13 9v8h-9q44 120 90 120q53 61 90 81h21q0 19 77 46q0 9 47 30l25 -4q0 11 64 30q14 18 77 30l4 -5h4q19 9 69 9h17q114 0 132 -81l13 -34v-4q-21 -33 -39 -94 l-4 -4h-13l-17 17l9 25l-5 4h-4q0 -12 -8 -12h-5l-8 8q0 16 17 43v25q0 35 -64 43l-34 4v5l21 4v-4l4 4h5l4 -4h4l5 4v4h-56v-4l4 -13l-4 -4l-34 4l-43 -13l-4 5h-4l-17 -5h-5q0 13 -8 13h-4l-64 -17v4q-13 0 -13 -17q-162 -75 -162 -98q-15 0 -39 -25q-27 0 -51 -43 q-37 -43 -38 -68q0 -47 107 -47q49 0 166 38q25 -9 25 -34q-17 -21 -17 -38l-51 -13l-4 4h-4l-22 -4v4l-42 -17l-9 9l-25 -18v5q-138 -44 -397 -273q-178 -174 -192 -226q-132 -207 -132 -290l-9 -21l5 -18l-9 -8q22 -201 56 -201v-12l-5 -5v-4q136 -126 209 -132 q56 -26 73 -26l21 5l13 -13h128q238 0 499 89l17 5l8 -13q0 -18 -230 -77q-145 -30 -290 -30h-119l-43 -4q0 10 -51 21l-13 -4q-22 0 -145 77q-115 92 -115 123q-25 67 -47 218zM731 1237l4 -13h9q-7 18 -13 18v-5zM799 1195q0 -8 26 -13l4 4v4zM833 1182l13 -4l4 4v4h-17 v-4zM1226 1544l21 5v4h-21v-9zM1447 1429l5 21h8v-21h-13z" />
<glyph unicode="F" horiz-adv-x="518" d="M36 -123l20 36l-8 12v8q36 29 48 88l24 52l-4 4v4l16 36l-4 4l8 8l-4 4q7 0 12 20l-4 4q7 0 12 24l-4 4l8 8l-4 4q6 0 16 32l-4 4l64 172q9 0 12 20l-8 8q36 43 36 96q44 90 60 160q23 27 40 108q17 7 48 132q12 1 28 64l-4 12q7 0 12 20q-28 0 -28 8v20q-24 0 -24 12v8 q0 8 20 8l12 24q-20 0 -20 24l12 12h12l12 -12v-20h8q1 24 24 24l8 -8h8q16 86 40 108l16 36l-8 16q4 28 12 28l-4 4v4l8 20h-8l4 20v12q12 0 12 40h-8l4 -4v-16h-8q0 29 -12 44q15 39 24 40h20q24 -14 24 -64q-15 -152 -44 -152l-8 -16l4 -4v-4q0 -47 -40 -116v-16l112 20 l4 -4l8 8h8l16 -4q40 8 84 28l16 4l4 -4h4q138 38 156 52h8l4 -4h4q0 12 36 16l4 -4h4q571 152 1092 152l160 -4l4 -4h4l4 4q89 0 296 -60l12 4q13 0 64 -32l4 4h4q14 0 64 -36q9 0 20 -16q37 -11 80 -68q28 -62 28 -84q-21 -80 -92 -140l-8 8l4 4v4l-16 12l-4 -4h-4v4 q12 33 32 44q32 32 32 56l-4 12l4 4h4l4 -4v8q0 38 -28 64v-8h-4q0 10 -12 20l-12 28h-4l-4 -4h-4q0 16 -32 28q0 10 -20 12q0 8 -40 24q0 11 -68 24q0 20 -240 60q-120 12 -272 12l-180 -8l-4 4q-263 -20 -568 -76q-269 -61 -320 -88h-12l-4 4l-12 -12l-16 4l-180 -56h-4v4 l-92 -28q-42 -12 -64 -32q-19 0 -28 -8l-16 4l-8 -8h-8l-4 4h-4l-8 -8h-20q0 -27 -36 -96q0 -37 -32 -88l-28 -96q-15 0 -44 -120q-15 0 -36 -108q-44 -88 -44 -104h4q8 0 8 12h8q20 0 20 -12l16 4l256 12h20l12 -12v-20q0 -12 -32 -12v-4q16 0 16 -8l-4 -4h-4l-28 4v8h16v4 h-72q0 -16 -8 -16h-20v4l4 4v4l-20 4q-12 0 -12 -16l-52 -12l-44 4l-8 -8h-36l-68 -36l-120 -388l4 -16q-33 -83 -44 -88h-16l-8 8l4 28l-16 -12h-4q-8 0 -8 12zM124 -111h8v-4l-8 -8v12zM356 381l28 4v4h-28v-8zM412 385l24 4v4h-24v-8zM532 389v8h24v-8h-24zM1516 985l8 8 h4l-8 -8h-4z" />
<glyph unicode="G" horiz-adv-x="886" d="M-77 -595l28 84l4 4h4l12 -4q48 72 160 72h20q134 -30 176 -84l132 -96q0 -18 128 -128h4q104 288 216 900l68 296q-10 0 -12 16l12 56v8h12v4l-8 8l-4 -4l-8 48h-4q-36 -68 -56 -84q0 -20 -176 -196l-72 -68l-152 -96l-4 4h-12l4 -4v-8h-8v8h-20q-17 -12 -40 -12 q0 -16 -28 -24h-4l-8 8l-4 -4h-4q-34 9 -84 60q0 16 -12 16v4h8q-12 15 -12 32l-4 -4h-8v16h12v8q0 8 -12 8q12 9 20 72q10 0 40 116q15 0 20 36q18 6 36 56q12 0 12 24q49 69 128 144q11 0 32 36q13 0 44 44q149 81 200 84h40q85 0 156 -172h4q4 18 60 116l8 20l-4 4h4 l-4 4v4l36 92l20 28l-4 4v8q8 -8 32 -8l12 -16v-12l-64 -148q-28 -112 -48 -152l-16 -84v-24l4 4h4l8 -24l-12 -4v-16q-15 -60 -20 -60h-20q-64 -274 -176 -836q-76 -263 -112 -360q322 -299 495.5 -371.5t440.5 -72.5h56q126 0 368 64q201 71 316 152q39 20 48 40 q88 63 88 124l12 8q-8 56 -28 56q0 10 -32 36l4 4v4h-8q0 -12 -8 -12q0 20 -20 20q-36 14 -120 28l-4 -4h-12q-31 0 -36 16v16l12 12q87 0 220 -40q72 -43 72 -144q-9 -31 -72 -104q0 -15 -20 -28q-11 -24 -56 -40q-17 -24 -60 -36q-122 -76 -340 -148q-239 -48 -296 -48 h-72q-294 0 -458.5 72t-365.5 252l-128 112l-28 -40l4 -4v-12q-16 -16 -28 -52q-14 -7 -84 -120q-12 0 -12 -20l-52 -28q-10 -19 -100 -48v-8h-8l4 4v8q-110 16 -172 60l-24 20l4 4v4q-28 0 -28 16v4h8v4q-12 0 -12 12q-22 24 -68 120l-40 52v12l16 16h8q13 0 44 -84 l116 -140q78 -52 100 -52v-4l4 4h4l44 -8q52 12 104 44q102 96 120 160q12 0 12 32q16 0 28 60l12 12q-227 213 -276 232q-12 0 -52 28l-8 -8l-12 4v4l4 4v4l-24 8l-4 -4q0 9 -28 12v-8l4 4h8v-8l-20 -4l-44 12q0 -7 -68 -16q-52 -24 -52 -48q-12 0 -12 -24q-12 0 -12 -40 l-12 -8h-16l-8 8v20l4 4v4h-8q0 -12 -8 -12h-4l-8 8v4zM7 -587h12l-8 -8l-4 4v4zM127 -483v-8l24 4v4h-24zM211 -503l12 -4v-4h-12v8zM219 225q33 -56 92 -56l48 4l4 -4q1 9 88 40q1 9 40 24q87 55 104 80q148 131 148 164q16 0 20 24q19 0 36 44q12 0 56 72v8q0 30 -52 124 q-44 52 -72 52v8l4 4v4h-28v-4h8v-8h-20v4l4 4v4h-4q-8 0 -8 -12h-4v8h-4q-8 0 -8 -12l-4 4h-8v-8h-4v8h-4q-15 0 -80 -40l-12 4l4 -4v-4l-68 -44l-4 4q0 -9 -60 -56l-116 -148q0 -13 -28 -40q-4 -26 -28 -48l4 -12q-32 -42 -40 -96l4 -4v-4q-8 -34 -8 -88zM847 677l12 -44 l8 8l-16 40h-4v-4zM871 589l8 -20h-4l4 -20h4v16l-4 28l-4 -4h-4zM911 649l4 -20q10 0 16 44h-4q-8 0 -16 -24zM2179 -699l4 4h4l4 -4v-4l-4 -4h-4l-4 4v4z" />
<glyph unicode="H" horiz-adv-x="810" d="M-142 10v9h9v-9h5v22h-9l13 32l-4 5q8 0 13 32h5l-5 4v5q34 99 128 168q75 72 227 137q29 0 114 68q80 141 114 223q48 58 100 223l46 119l-5 4l9 9l-4 5l9 9l-5 4l5 5h4l-4 5v4l9 18l-5 5v4q18 52 18 96l-4 14h4l-4 4v18q0 9 27 9v5l-9 18l5 14l-9 9v9l13 14h14l9 -9 v-19l-5 -4v-5l28 -4l-5 23l9 9h14l9 -9v-14l-23 -37v-4l5 -18q-85 -313 -159 -415q-64 -128 -64 -154q-17 -3 -100 -164h4q97 54 109 54l19 19h22q0 19 37 27q17 20 114 68q45 31 45 46q0 19 96 159q0 11 50 91q0 18 23 37l91 118q0 17 27 36q22 67 218 251q41 27 78 27h23 l22 -23v-41q-32 -135 -86 -173q-9 -49 -137 -173q-14 -33 -109 -132q-36 -32 -50 -32v-13h-5l-4 4h-5q-11 -22 -145 -123q-29 -36 -50 -36q-22 0 -91 -173q0 -19 -19 -36l-22 -69q-21 -17 -64 -200l-9 -64l4 -36l-4 -5h-5l9 -27v-18l-4 -5q20 -86 68 -86v-5q58 0 107 49 q0 18 9 18l-4 5v5q23 10 37 10q21 0 21 -22q0 -13 -8 -34l-48 -40q-10 -17 -82 -54l-5 4l-9 -9h-13q-48 0 -96 64q-18 62 -18 141h4l-4 4v14l32 132q0 33 45 173l18 36q16 58 41 87l41 91h-4q-116 -91 -146 -91q-15 -23 -36 -23q0 -10 -23 -27l-77 -50h-5l-5 4h-4 q0 -13 -18 -13q0 -9 -23 -9q0 -14 -9 -14l-14 4q-102 -170 -209 -327q-6 -24 -87 -96q0 -17 -91 -91h-32q-30 0 -63 46l-5 18h9l9 -23h5v5l-14 41h-4v-14h-9zM-78 28q0 -46 36 -46q90 54 109 91q129 138 242 333v4q-33 -15 -91 -59h-10q0 -18 -18 -18l-4 4h-5 q-35 -17 -118 -86l-5 4h-4q-132 -121 -132 -227zM737 1234v9l9 9v-18h-9zM814 756q66 43 123 105q18 0 77 77q141 129 200 223q31 47 51 55q50 114 50 137v9h-9v4q-53 -18 -187 -159q0 -14 -64 -73q0 -16 -36 -45q-71 -128 -110 -155q0 -24 -31 -55q-64 -102 -64 -118v-5z " />
<glyph unicode="I" horiz-adv-x="219" d="M29 494l4 28v16h8v12h-8v36l8 8l4 -4v8l-4 12h8v8h-8v4h8v4l-4 20l4 4h4l-4 4v12l8 8l-4 4v12h8l-4 12q0 13 12 24l-4 12l8 8l-4 4l8 8l-4 4v4q6 16 12 16l-4 4v4l8 12l-4 4q7 0 28 72l4 12h4l-4 4v4q16 25 60 148q7 0 16 36l40 76q58 146 256 408q63 72 84 72h12 q24 -14 24 -48h-4l4 -4q-40 -202 -148 -520q-13 0 -48 -136q-7 0 -32 -64l4 -12q0 -13 -24 -52q-164 -418 -178 -513l-52 -220l4 -24q-9 0 -16 -36l4 -24q-10 0 -12 -16l4 -24l-8 -16l4 -4v-4q-5 -32 -12 -32l4 -4v-4l-8 -44l4 -4q-13 -129 -20 -136q-8 0 -8 -12l-4 -4h-8 q-6 0 -16 28l-4 -4h-4l-4 4l16 52h-8v4l12 16v4l-4 16l28 136h4l-4 4v4q0 13 12 28l-4 28q11 0 16 40l-4 20q13 0 36 136q60 253 206 621q0 24 44 112l-4 12l48 124v8l-4 4v4q44 118 76 236l-4 4l8 8l-4 4q8 0 12 28l-4 4l8 8l-4 4l4 4h4l-4 4v4l8 8l-4 4v4l8 12l-4 4l4 4h4 l-4 4l12 32l-4 4v4l12 48l-4 4l4 20v12h-4l-80 -96l-64 -88q-116 -177 -192 -368q-116 -288 -116 -456l4 -4v-4l-4 -4v-4q0 -12 12 -12v-8h-8q0 -18 24 -36v-20q0 -12 -16 -12l8 -12v-8l-8 -8h-28q-40 39 -40 56v12l4 4v4l-4 4h-4zM41 490l4 -12h4v12h-8zM105 498v8l20 4h4 l8 -8v-8l-12 -12h-4z" />
<glyph unicode="J" horiz-adv-x="330" d="M-501 -383l12 12l-4 16l4 13l-4 4l9 8l-5 4v4l9 9l-4 4v4q7 1 41 95q107 166 272 227l21 -4q0 30 124 45v-4l25 9h41q124 -5 124 -25l4 4h12q19 -17 29 -17v4q58 376 149 876l-4 25q7 0 12 20l-4 25l12 25l-4 25q10 0 13 20l-4 25q7 0 12 21l-4 20l12 21l-4 25 q12 16 12 37h5l-5 4v21l13 20l-8 29q12 0 12 37l-4 13q8 0 8 12l-4 13h8l-4 20l8 9v8l-4 4v4l8 8v13h-8q13 15 13 29h-9v4q13 16 13 37v4q-13 0 -13 17h13v37l-4 -4h-5l-4 4h-4q-106 -40 -231 -277h-8v-12q0 -18 -25 -46l-45 -173q-10 -70 -17 -70l4 -5v-8q0 -20 -8 -20 l4 -29v-33q0 -180 83 -314l4 4h16l13 -12l4 4h8l4 -4h4l9 8h12l12 -17q0 -20 -29 -20l9 -25q-17 0 -17 -37l-4 -4h-4q-51 0 -74 45q-46 61 -46 83q8 0 8 -13h5v4l-5 13h-4l-4 -4h-4l-21 57v9q9 0 25 -58h4v4q-49 121 -49 231h-4v-8h-9v21h9v-9h4v4l-4 38v4h-9v25h9v-9h4 q0 31 8 42l-4 12l-4 -4h-9q17 17 17 33v4l-4 -4h-4v4l12 25l-4 4v4q8 13 21 87h4l-4 4v4l29 87l4 4q24 38 24 66l17 8v13q35 113 202 289q27 24 75 45q50 0 53 -74q0 -80 -37 -252h-4l4 -4v-4q0 -23 -16 -46l4 -29q-12 0 -17 -37l4 -21q-9 0 -12 -20l4 -21l-12 -21l4 -28 q-10 0 -13 -17l5 -29l-13 -12l4 -37q-10 0 -12 -17l4 -29q-15 0 -45 -219q-42 -202 -116 -681q83 -22 107 -58l66 -37q28 -19 75 -74q18 0 74 -75q11 0 37 -37q17 -8 29 -41q40 -30 91 -99q7 0 29 -42q24 -28 58 -49q0 -29 115 -120l87 -74q15 -16 66 -41q51 -54 95 -54 q0 -12 37 -17q0 -16 112 -45l12 4q47 -8 58 -21l41 5l9 -9l24 4q0 -8 13 -8l70 4l4 -4v-4l12 8l42 -4h20l33 8l13 -4l8 9l25 -5q27 0 74 21l17 -4q120 33 144 54q22 0 74 33q22 0 46 29h21q0 14 90 66q18 24 75 70q91 91 103 144h4l-4 4v5l8 12v4l-4 4v4l4 5h4l-4 4v70h8 v-25h5v12l-13 83l17 12h12q19 0 25 -86v-33q0 -147 -202 -306l-13 4q-18 -23 -54 -49l5 -4q-18 0 -42 -21q-12 0 -33 -21q-22 0 -62 -33q-27 0 -70 -29q-139 -37 -161 -49l-12 4l-87 -21l-4 4l-13 -8l-41 4h-20l-29 -8l-13 4l-37 -4l-29 8h-4l-37 -4l-17 8l-16 -4l-33 13 l-21 -4l-186 57q0 8 -37 21l-115 66q0 8 -95 74q-3 18 -38 29q0 22 -128 132q0 14 -119 137q-14 38 -66 78q-2 15 -38 41q-16 46 -53 46l4 4q-37 53 -50 58h-20q0 13 -25 33l-4 -4h-8q0 33 -62 58q-15 0 -29 16q-14 0 -50 33h-8l4 -4v-4q-11 0 -45 -277l-42 -210l4 -25 q-11 0 -16 -37l4 -13l-25 -74l4 -12q-8 -46 -20 -46l4 -4v-12l-17 -25l4 -13q-58 -204 -161 -264l-24 -4h-17q-19 0 -62 21v-4l-8 -9h-21q-89 97 -148 186q-13 0 -13 33q-16 0 -16 12l4 13h-4l-4 4v4l-5 -4h-4v4l4 4q-103 185 -103 310l9 25v12l-5 17l5 4v4q0 12 -13 12 l-4 4v5zM-456 -416v-29l25 -133l21 5h4q14 -7 54 -133q63 -134 161 -218h4l12 4q0 -7 25 -17v-12l-4 -4v-4q31 -17 49 -17h25q58 19 128 202q0 13 17 29l-4 4v5l37 119l-4 13l20 62l-4 20q17 0 46 211l49 305q-110 25 -165 25h-33q-29 0 -132 -25l-21 5q-13 -29 -33 -29 l4 -4v-5l-12 -4l-13 4l-12 -12v-4l-4 4h-8l4 -4v-4q-83 -46 -136 -112q-91 -106 -91 -227q-8 0 -9 -20zM267 484v4l4 4h4l4 -4v-4l-4 -4h-4z" />
<glyph unicode="K" horiz-adv-x="1382" d="M6 51v4l40 108q0 12 12 12v4l-4 4v4q8 0 24 64q20 37 32 116q10 0 55 136q-12 0 -12 8v12l24 36l-8 8v12l12 12l4 -4h4l8 16v4l-16 -12h-4l-8 8v4l32 36q-20 3 -20 12v8q0 7 32 20h4l4 -4h4l88 268l-12 52l4 4l-4 20v12h8v-8h4v20l-12 -8l-4 4v24h8v-16h4v32l-4 -4h-8 l-4 20l4 4h4l4 -4v108h-8v8q12 0 12 32h-8q12 15 12 28h-4l4 4v12l-4 4v4l8 8l-4 12l8 8v4l-4 4v4q8 0 35.5 92t166.5 305q39 64 68 88q44 -5 44 -32q-37 -177 -72 -220l-8 -36l-4 -4l-4 -12l4 -12q-19 -64 -28 -64l4 -4v-4q-11 -13 -44 -104l4 -12q-18 -65 -40 -96 l-78 -201v-4l8 -36h4v12l-4 12h4q28 -5 28 -16v-8l-12 -12l-12 4v-4l12 -24q-4 -16 -16 -16l4 -20v-4l-8 -8h-20q-16 10 -16 28q-23 -39 -84 -244h4q9 0 84 88q92 72 236 204q442 317 560 356l236 112q25 0 80 32q109 32 156 32q13 0 28 -28q0 -34 -20 -36l4 -4v-8l-48 -44 h-8l-8 8v8l4 4v4l-12 8l-8 -8l-4 4v4l12 16v8h-4l-12 -8l-4 4h-4l-52 -12v4l-4 4q-69 -12 -96 -32q-184 -52 -512 -256q-227 -146 -448 -352q0 -12 -56 -72l-8 -12l28 4h64q131 0 172 -116l4 -68q-20 -144 -36 -252q-2 -15 -2 -29q0 -92 87 -175q60 -57 180 -88v-4l4 4h4 q44 -3 44 -12l20 4h20l12 -8h52l28 8l52 -4l48 12l4 -4l24 8h4l4 -4l16 8l20 -4q23 0 60 16l12 -4l120 20l16 -12q0 -17 -132 -36l-12 -8l-20 4q-44 -6 -56 -16h-8l-4 4l-24 -8l-16 4l-4 -4v-4l-32 4q-37 -2 -48 -12l-72 4l-76 -4l-4 4v4l-4 -4h-4q-42 0 -128 24l-8 -8v4 l4 4v4l-20 8l-4 -4l-20 16v-8h-4l-12 12l4 4q-44 0 -84 56l4 4l-24 28q-21 0 -32 28h4q8 0 8 -12l4 -4h4v4q-32 60 -44 124l-9 132l-4 4l8 8l-4 4v4q8 0 8 20h4l-4 4v4l12 28l-4 12l8 8v8l-4 12h8l-4 20v4q12 15 12 28v12q0 31 -12 64h-4v-8l4 -16q-25 48 -36 48 q-20 15 -84 28v4l-4 -4h-40l-8 8l4 4h40l4 -4h4l4 4v4h-64v-4l4 -4v-4q-10 -8 -80 -20q-40 -17 -72 -84q-22 -84 -36 -84q-21 0 -32 -64l-19 -36l4 -12q-8 -39 -28 -80l4 -12l-36 -120l4 -20q-30 -90 -48 -100h-12l-8 8l4 12l-12 8l-8 -8zM309 1015l4 -12h4v12h-8zM349 1155 l4 -80h4l90 257q14 8 36 100v20h8v4l-4 4v4l56 116q0 12 -12 12l16 44l-4 4v4l8 8l-4 4q7 36 16 36l-4 4v4l8 12l-4 4h-4q-210 -307 -210 -492v-5v-64zM557 575h8l4 -16h-4l4 -4v-8h-8z" />
<glyph unicode="L" horiz-adv-x="839" d="M-97 -114q31 91 84 132q105 67 176 84q32 64 36 92q13 0 20 44q18 9 28 72q16 0 16 36q16 1 88 180q68 106 170 334q0 15 24 52q0 24 24 60q0 13 36 80l40 116h4v8q0 32 16 32v24q19 29 48 100l-4 12q0 13 32 76l-4 12q22 43 36 96l-8 8h4l-4 4v4q6 16 12 16l-4 4v4 q4 24 12 24l-4 4v4l12 20l-4 4v4l8 8l-4 4l8 8l-4 12l4 4l-4 4l12 4l-8 12q12 28 12 52h-4q-66 -36 -172 -180q-59 -82 -80 -132l-104 -160q-64 -159 -64 -176q-20 -51 -28 -140l8 -16l12 4q0 -12 16 -12l4 -4v-12l-12 -12l-4 4h-4v-4l8 -24l-8 -12l4 -12l-16 -28h-4l-20 4 q0 -12 -8 -12h-24q-6 0 -16 28q-20 0 -20 28h4l-8 40l4 4q-8 0 -8 12q0 20 8 20l-4 4v16l8 8l4 -4v12h-8v4l16 36v4l-4 4v4l8 8l-4 4l8 8l-4 4v4q32 121 100 224l148 228q24 0 40 44q154 214 252 264q44 -19 44 -44q-56 -219 -80 -260q-7 0 -20 -64l4 -4v-4 q-20 -31 -36 -108q-27 -19 -44 -120q-10 -4 -20 -52q-6 0 -16 -36q-38 -47 -56 -140q-20 -16 -28 -72q-14 0 -28 -60q-23 -24 -98 -184l-108 -214q-51 -104 -52 -132q-8 0 -24 -56q-13 0 -24 -56q-8 0 -24 -48q-7 0 -32 -56h4l56 8l12 -4l36 4h4q97 -5 276 -84 q88 -17 88 -28l4 4h12q10 -14 176 -60q0 -5 24 -8v-4l4 4h4l56 -20l200 -56l16 4q73 -32 720 -180q719 -152 1292 -152l12 -4l24 4h140l20 4v-4l12 4q392 0 680 72q0 12 48 16q43 28 60 28q83 56 104 84l20 36l-4 4v12h8l-4 20h8v4q0 37 -32 72l-4 -4q0 11 -32 36 q0 14 -20 24l-4 -4q0 9 -20 20v-8h-4q0 17 -40 32l-16 -4l-12 4v4l4 4v4h-8l-12 -4l-12 12l-4 -4h-4q0 16 -16 16l-4 4l-4 -4v-4h-8v4l4 4v4q-68 12 -68 24l-4 -4h-24l-8 8l-4 -4h-4l-116 8q-49 0 -120 -24q0 -7 -68 -20l-8 8v8q0 8 48 24l12 12h24v8l12 8l24 -4l60 8v-4 l4 4h48l32 8h20l8 -8l4 4h16l8 -8l4 4h20l16 -12l16 4q122 -10 304 -156l40 -100q-30 -120 -88 -156l-44 -24l-4 4q0 -8 -36 -12q0 -13 -56 -24q-35 -25 -96 -32q-250 -64 -868 -64q-183 0 -356 20l-4 -4q-522 47 -752 100q-565 124 -856 200l-12 -4q-38 17 -120 36l-136 40 l-4 -4h-4q-13 0 -80 32l-144 44l-4 -4h-16q-9 9 -44 12q0 20 -120 40l-40 12v-8h-8v12h-4v-8h-4l-8 8l4 4q-75 28 -176 40l-4 4q0 -8 -16 -8q0 -16 -8 -16h-4v4l4 4v4h-24l4 -4v-8h-8l-4 12l-44 -12v-20q-20 -20 -24 -48q-22 -11 -40 -76q-11 0 -16 -32q-85 -119 -96 -124 h-16l-4 4h-4q0 -24 -8 -24h-20q-9 0 -12 28l-4 -4h-4l-12 12v24l4 4l-4 4v12l4 4v4q-9 0 -12 36l4 12l-4 4v4zM-85 -118v-16h4v16h-4zM-37 -110l8 -40l4 4h4l24 -12q46 54 80 112q12 0 32 64l12 12v8h-4l-12 -8l-12 4v-4l-4 4h-4q-85 -55 -100 -80q-17 -17 -28 -64zM283 62 v12h24l8 -8l-4 -4h-28zM285 900h4v16h-4v-16z" />
<glyph unicode="M" horiz-adv-x="667" d="M4 -196l76 224q36 47 76 192q148 441 364 880q112 197 112 228q12 0 12 28q15 11 28 48q12 2 20 52h8v16q0 31 24 60l-4 4v8h8v4l-8 24l4 4q-29 0 -112 -60q-5 -18 -52 -48q0 -9 -44 -44q-45 -65 -136 -172q0 -15 -20 -28q-127 -208 -196 -408l4 -4v-20q-14 -15 -16 -40 q-7 0 -20 -44h-24l-8 8v8l8 12l-4 12h-4q0 -16 -12 -16l-12 12l20 40l-8 8v8q0 7 28 24q109 291 208 408q0 8 16 8q0 21 28 40q0 24 132 164q72 96 92 96q89 97 148 104q44 -24 44 -48q-26 -120 -76 -184q0 -20 -20 -52q0 -13 -60 -108q-221 -423 -348 -760l-24 -60v-4h4 l156 300l80 112q7 20 52 56h20q24 -16 24 -32q-6 -47 -52 -132q-8 -40 -24 -40v-8q-11 -60 -28 -60v-12q0 -17 -24 -56q-15 -31 -24 -88q-13 -3 -48 -108l4 -12q-9 -40 -24 -56v-20h4q0 11 20 20q21 68 92 176q19 9 48 76l92 132l52 48h12q22 0 32 -20v-16 q-36 -132 -80 -224l-32 -92l4 -16q-16 -16 -48 -132l4 -16l-16 -48l4 -4v-4q-5 -32 -16 -32l4 -52l-4 -24q7 -64 20 -64q35 0 95 70q20 -5 20 -25q0 -11 -6 -28l-65 -65q-15 -12 -36 -12h-32q-8 0 -16 24h-4l-4 -4l-12 28h8l4 -16h8q-20 37 -20 60v20l4 16l-8 28h8v24l12 20 l-4 12l8 44l-4 4v4q32 67 32 88q19 42 28 104q15 1 52 156q0 28 16 28v4h-8l4 4l-4 4v4l20 64q-78 -85 -104 -132q-15 0 -40 -64q-48 -89 -64 -92v-20q-30 -27 -48 -96q-49 -80 -56 -112q-67 -136 -76 -136h-8q-8 0 -8 20l-20 4q0 23 24 60l-4 4l28 56h12l-12 16l4 4l-4 4 l8 8l-4 4l8 8l-4 4l8 8l-4 4q6 1 40 96q7 0 16 56q33 44 56 164q17 0 44 108q9 1 24 72q11 2 28 56l4 4h4l-4 4v8l8 32v4q-37 -37 -152 -220q-141 -264 -172 -372q-19 -19 -60 -148l-76 -260q-8 0 -8 -20l-4 -4h-12q-8 0 -8 12l4 12q-8 0 -8 12l-4 -4h-12z" />
<glyph unicode="N" horiz-adv-x="814" d="M15 8v4q24 21 32 40q-12 0 -12 8v8q0 7 28 24q8 0 8 -16l52 48q3 19 140 176l57 68l36 60l104 156q31 48 88 208q97 219 160 328q10 51 112 152l28 8q22 0 32 -20v-16q-41 -109 -84 -148q0 -26 -64 -108l-224 -376q-88 -308 -88 -408v-76l-4 -4l4 -4l-4 -48v-88l8 -8 q0 22 72 56q94 102 120 168q69 81 176 284q254 436 348 760l-8 24h-4l12 24h-8v8h8v52l16 16h12l16 -16v-36q0 -42 -48 -168q-93 -286 -440 -892q-38 -94 -148 -240q-82 -96 -112 -96l-12 8v-4q0 -105 52 -276q118 -309 309 -505t430 -289q172 -67 353 -67q71 1 144 11 q258 36 392 162q72 66 104 156q36 110 36 228l-8 112l12 8q16 0 24 -120q0 -147 -64 -296q-37 -58 -124 -144q-148 -112 -424 -136q-55 -5 -108 -5q-211 -1 -380 75q-211 94 -387.5 279.5t-220.5 286.5q-34 47 -132 296q-40 210 -40 344h4l-4 4l4 48v40q0 173 68 404v4h-4 l-56 -104q-10 -23 -28 -36q0 -21 -44 -68q0 -15 -49 -60q0 -15 -148 -180l-40 -80q-14 -32 -28 -44h-20l-8 8v4l8 24l-4 4h-4l-12 -12h-4zM103 12v4l12 12v-8l-8 -8h-4zM420 16l16 16l28 -4q-17 -24 -36 -24zM420 -48v-12h4l8 16v4h-4zM556 744h4q177 295 188 328l16 28 q15 8 52 100h-8q-141 -172 -184 -304q-24 -40 -68 -148v-4z" />
<glyph unicode="O" d="M-14 212q0 246 160 560q73 110 208 260q95 79 220 156q0 19 116 40l40 8l8 8l20 -4l4 4v4l224 -20l20 4q10 0 56 -32l4 4h12q42 -36 84 -44q0 -6 48 -28q58 -57 80 -96q44 -41 48 -76l-4 -4q16 -5 16 -36l-4 -4q8 0 12 -32l-4 -12q3 -56 12 -56l-4 -40v-4l8 -24 q-3 -33 -20 -52v-4l4 -28q-13 0 -44 -88q-157 -334 -524 -544q-3 -9 -136 -60q-154 -72 -284 -72l-88 -4l-60 20l-12 -4q-32 28 -32 36l-4 -4h-8q0 16 -8 16l-4 -4h-4q0 13 -32 48q-35 59 -48 104l4 12l-4 60v72l-4 36q16 34 56 196q0 18 16 28q15 53 28 64q13 20 24 60 q103 197 216 224h28l12 8q22 -7 40 -28v4l-4 16l4 4h4q32 -5 32 -32l-12 -4l-12 4l8 -24v-12q0 -12 -16 -12l8 -24l-16 -12h-8q-43 48 -60 52q-61 -19 -104 -64q-48 -48 -112 -164q-8 0 -8 -28q-15 0 -36 -72q-10 0 -48 -156l4 -16q-16 -48 -16 -116q0 -28 16 -76l-4 -12 q10 -5 44 -68q85 -96 184 -96l4 -4h36q166 0 388 124q0 5 40 16q356 214 496 536l24 84l4 12h4l-8 20l16 52v8q0 20 -8 20l4 40v8l-28 104l-24 44l-24 44l-40 28l4 4l-20 4v4l4 4v4l-48 36l-64 40q-21 0 -60 24l-88 20l-92 8h-64l-12 -8l-20 4l-8 -8l-16 4q-45 0 -100 -32 q-104 -22 -296 -200q-194 -233 -204 -300q-116 -226 -116 -468l-4 -4h-12zM518 792v8h4l8 -8l-4 -4h-4z" />
<glyph unicode="P" horiz-adv-x="333" d="M-60 -129q12 15 48 128l4 4l-4 4l8 8l-4 4v4l4 4h4l-4 4v4l8 8l-4 4v4l8 12l-4 4q8 0 8 20l4 4h4l-4 4v4l16 56l-4 4q12 3 12 32l20 32v8l-4 16l12 24l-4 4v4l12 24l-4 4l4 4h4l-4 4v4l36 84l40 140q11 0 24 52h-4q-100 8 -120 16l-12 -4q-23 0 -52 24v8l16 12l4 -4h4 l12 4q57 -24 88 -24l52 -4q-28 30 -28 44v24l4 4l-4 4v24q0 70 40 188l4 4l-4 4l8 8l-4 4q7 0 24 64q108 235 272 396q53 56 76 56q17 -5 24 -20v-12q0 -43 -64 -184h4q54 28 116 28l20 -4q35 3 44 12h16l4 -4l24 8h36q34 0 104 -24q61 0 160 -92q44 -77 44 -108v-28 q0 -92 -120 -200q-10 0 -20 -12q-19 0 -116 -68l-152 -56q-63 -21 -80 -36l-16 4l-100 -32l-4 4h-4l-44 -16l-20 4l-8 -8l-20 4l-104 -12l-4 4l-20 -4h-28l-24 -8q-13 -78 -40 -120l-32 -104l4 -4v-4l-12 -20l4 -4v-4q-24 -89 -40 -116l4 -12l-84 -328q-9 0 -20 -32h-16 l-8 8l8 16q-8 0 -8 12h-4q0 -16 -8 -16l-8 8v4zM196 707h4v8h16l4 -4h4q11 40 28 60q0 24 40 88q0 14 28 64q0 16 20 44l28 48l8 28v8q-24 0 -24 16l8 20h-4l-12 -8h-4l-8 8v4l24 32v4l-8 16q8 24 32 24v-16q92 59 92 108l28 56l-4 4v4l8 12v12h-4q-114 -102 -188 -236 q-116 -218 -116 -344v-12l4 -16l-4 -16v-16zM220 619q172 10 172 24l16 -4l20 8l12 -4l64 20l4 -4h4q65 16 76 28h8l4 -4q134 44 216 88l68 36q8 0 60 52q77 70 88 120h4l-4 4v40h8v8q0 35 -28 92h-4l-4 -4h-4v8l4 4v4l-4 4l-4 -4h-4q-16 6 -16 12l4 4v4l-8 8l-4 -4h-12 q-3 20 -12 20l-16 -4q0 11 -20 12v4l4 4v4h-4l-12 -8v4l4 4v4q-23 0 -36 20l-16 -4l-128 16l-8 -8l-48 4q-47 -11 -84 -40q-128 -31 -128 -84l-20 -16l4 -4v-4l-24 -32l4 -4v-8q-33 -33 -40 -80q-11 0 -16 -36q-15 0 -24 -48q-16 0 -44 -92q-24 -17 -24 -56q-24 -17 -24 -56 l-12 -12v-4q12 0 12 -8v-4h-12l-4 4h-4zM528 1455l4 4h4l4 -4v-8h-4zM584 1203h4l12 4v4h-12l-4 -4v-4z" />
<glyph unicode="Q" horiz-adv-x="1203" d="M-7 92v4l4 4l-4 4v4l4 12l-4 4l12 4l-8 8q23 109 88 164q33 29 88 44l4 16l-8 8v40l4 16l-8 20l4 20v40l8 16l-4 28l8 16l-4 16q12 15 16 56l-4 16l4 20h-4q29 94 64 152q6 72 116 204q64 48 92 48l-8 12v8q0 8 24 12l8 -24q16 20 32 20h8q12 -4 12 -24q-12 -12 -28 -12 l4 -24l4 4h16l8 -8l-4 -4h-8l-16 4l-16 -8l4 -20q0 -9 -28 -12l-28 4q-76 -32 -104 -92q-80 -122 -80 -164q-44 -119 -48 -160l4 -20l-8 -8l4 -20l-8 -20l4 -40l-4 -4v-4l4 -16v-12q0 -20 -8 -20l8 -24v-24l-4 -16l8 -12q161 0 388 -252l76 -68l4 -4h4q21 0 116 60 q78 33 300 256q275 310 400 640q32 99 44 204q-3 146 -24 156l4 16q0 11 -40 72q-24 73 -160 148v-8h-8q0 17 -52 24q-12 11 -112 20q-186 0 -428 -132q-115 -72 -248 -208q-103 -100 -192 -232q-156 -275 -156 -412q-12 -68 -20 -68h-4l-12 12q28 206 68 272 q97 218 176 308q222 249 300 292q114 93 228 128q148 64 276 64l84 -4l48 4q142 -49 172 -112q25 -18 72 -84q24 -20 32 -80q12 0 12 -16l-4 -12q8 -23 16 -148q-28 -179 -84 -308q-125 -256 -300 -472q-186 -211 -276 -272l-116 -92l-92 -36l80 -84q21 0 60 -52 q90 -74 128 -92q18 -20 44 -32q44 -40 52 -40q16 0 68 -48q59 -22 88 -48l88 -36q0 -12 64 -24q0 -14 152 -56l12 4l76 -24l20 4q0 -13 64 -20l24 4q0 -13 52 -16l24 4l4 -4v-4l20 4h4q14 -12 52 -12l28 4l8 -8l40 4l8 -8l52 4q0 -8 12 -8l72 4l8 -8h96l28 8l60 -4l24 8 l24 -4l24 8h4l4 -4l20 8l24 -4q0 11 84 24l16 -4l40 20l28 -4v4q0 11 104 60q68 61 80 100v4l-4 16h4l-4 4v4l8 8l4 -4v16l-4 28h-4v-20h-4q-21 70 -52 88q-53 52 -128 80q0 12 -16 24h8l-4 4v4q0 28 24 28q228 -112 228 -240q0 -88 -112 -180q-45 -33 -68 -40l-8 -8l-20 4 l-4 -4v-4l-32 8l-8 -24l-4 4h-20q-88 -28 -120 -28l-4 4h-4l-32 -12h-4l-4 4h-4l-8 -8l-36 4l-8 -8l-56 4l-16 -8l-76 4h-16l-4 4l-4 -4h-24l-4 4q-18 -8 -52 -8l-24 8l-56 -4l-24 8l-24 -4l-24 8l-24 -4q-11 8 -52 12l-28 -4l-12 8l-4 -4h-4l-68 16l-16 -4q-22 12 -72 20 l-16 -4l-40 16l-12 -4l-224 72q-2 10 -64 24q0 13 -112 56q-25 31 -88 52q-31 29 -100 68q-3 16 -32 16l4 4v4h-4l-4 -4h-4q0 22 -96 88q-21 23 -72 52q-9 28 -32 28q-21 31 -64 52v4h4q-5 20 -12 20l-4 -12l-4 4h-12q-45 -24 -92 -24l-20 4l-20 -8q-100 14 -100 28l-4 -4 q0 9 -40 16q0 8 -24 12q0 8 -16 8q-36 21 -40 52q-96 114 -96 172l-4 12l4 4v4l-8 32q-62 -8 -108 -56q-36 -46 -36 -136l8 -68h4v8l-4 4l4 4h4q0 -12 12 -12l4 -4v-20q0 -8 -12 -8l-4 -12l4 -12q-12 -14 -12 -44l-4 -4h-24q-8 0 -8 32l-12 -8l-12 12v32l4 16l-4 12l4 4h4 l4 -4v32l-4 -4h-8v8h8v60h-4v-24h-8zM221 284q70 -216 112 -216q17 -25 76 -52q0 -11 24 -16l12 4l64 -12h20l12 -8h4l80 20l4 4h4v4l-8 12l-4 -4h-4l-8 8l4 4v4q-32 10 -32 16l4 4v4q-24 0 -24 24l-4 -4h-4q0 8 -12 8l-4 4v4l4 4v4l-4 -4h-4l-12 8l4 4v8q-25 0 -40 28 q-12 0 -68 56q-105 73 -168 80v4l-4 -4h-24zM497 -52h12v-8h-12v8z" />
<glyph unicode="R" horiz-adv-x="1008" d="M70 -20l24 56l-4 4q31 43 36 96q13 0 48 124l148 362q-12 0 -12 8v12l4 4v4q-28 0 -28 8v4q0 8 24 8q0 28 24 28v4q-28 0 -28 8v4l8 8h12l4 -4h4q0 22 28 32l124 278q216 450 216 480q0 16 16 24l-4 4v4l32 76l-4 4l8 8l-4 4l8 8l-4 4l8 8l-4 4l8 8l-4 4l8 8l-4 4v4l8 8 l-4 4l8 8v4l-4 4v4l4 4h4l-4 4v16l8 12q-8 0 -8 20h-8q-95 -45 -180 -184q-39 -67 -68 -96q0 -28 -24 -64q-32 -84 -56 -224l24 -44q-15 0 -24 -48l-4 -4h-4l4 -4v-16l-8 -8h-20q-9 0 -12 28l-4 -4h-4q-10 0 -12 16q2 48 8 48l-4 4v4l16 100h12v4l-8 12q16 0 16 64 q7 1 44 84q11 0 16 36q16 0 56 104q25 25 92 132q113 124 164 128v4q43 0 48 -56q-2 -76 -80 -260q-31 -45 -176 -368l-20 -36h8q0 14 20 28q0 17 20 24q0 19 64 76q56 68 188 192q4 22 64 48l108 88l100 40q0 17 124 40q92 -17 92 -56q8 0 20 -56q-23 -141 -92 -224 q-18 -54 -108 -152q-9 0 -160 -160q-17 -2 -104 -96l-40 -36q-14 0 -84 -42q-8 -15 -52 -32q0 -11 -44 -40q0 -11 -36 -16l-16 -20l-12 4h-4v-4h8v-8h-4l-4 4h-4q-61 -23 -92 -48h-8q0 -12 24 -12q178 -52 232 -96q104 -78 104 -212v-8q0 -50 -17 -86q-20 -42 -20 -145 t190 -103l8 -8q19 -10 19 -17q0 -12 -55 -15l-72 4l4 -4v-8h-4q-36 7 -36 16l4 4v4h-8l-4 4l-4 -4v-4h-4q-50 18 -68 52l4 12q-16 29 -16 64v16l4 4l-8 16l8 20h-8l12 24h-4l3 30l-4 4v4q6 16 12 16l-4 4v4q10 36 16 36l-4 4v16h8l-4 20v12h8v28q-7 84 -24 84l-4 -4 q-45 72 -100 88l-16 16l-4 -4h-4q-33 16 -40 36h-4l-4 -4l-8 8h-4v-4l16 -8l4 4l4 -4v-4h-4q-56 8 -80 24l-4 -4h-4l-44 16l-4 -4h-4l-8 8l-4 -4q-28 3 -28 8l-4 -4h-4l-60 8l-12 -4l-8 8q-21 0 -44 -76q-124 -289 -164 -426l4 -12l-28 -56l4 -4v-4q-15 -104 -40 -104l-8 8 h4q-9 24 -24 24zM386 1144h4v36h-4v-36zM402 694h16q31 0 120 36q0 12 32 12q0 16 60 36q46 41 96 56l12 8q0 17 32 24q54 20 120 86q13 0 92 80q0 14 32 28q127 126 128 148q12 1 76 96q32 42 32 56q24 29 44 84l4 4l-4 4l8 8l-4 4l4 4h4l-4 4v4l12 24h-8v8h8l-8 32h4l-4 4 v8h8v-12h4v16q-30 48 -72 48l-8 -8l-12 4v4l4 4v4h-12q0 -24 -40 -24l-4 4l-4 -4v-4l-4 4h-4l-4 -4h-4v8l-4 -4l-4 4h-4q-12 0 -80 -40q-8 0 -24 -20q-40 0 -156 -108q-104 -76 -220 -224l-56 -76q0 -10 -60 -80q0 -13 -36 -68q-104 -217 -104 -266l4 -4v-4zM502 618l12 4v4 h-12v-8zM518 614l12 4v4h-12v-8zM787 72v4h4l12 -24v-8q-16 7 -16 28zM802 442v4h8v-12zM943 -28l4 4h8v-4l-8 -8l-4 4v4z" />
<glyph unicode="S" horiz-adv-x="1405" d="M80 72q24 12 24 48q7 19 32 24v-4l-24 -24h4q44 28 140 28q341 0 768 -168q0 -8 24 -8l92 -40q155 66 188 136q6 0 28 84q0 41 -28 100l-4 -4h-4l-8 28l-4 -4h-8q0 12 -32 44v12l-4 -4h-4l-52 56l-12 -4l-4 4v4h8v8q-13 0 -56 32l-4 -4h-4l-12 4v4h8v4h-4l-12 -4v12h-4 l-12 -4v4q0 15 -64 36q-25 23 -72 32q0 15 -64 24q-8 12 -92 40l-4 -4q-38 35 -96 40q-114 30 -152 52l-12 -4l-168 44q0 -12 -8 -12l-12 12l-4 -4h-4q-28 5 -28 24h-8l-8 -8q-184 80 -184 152v8q0 57 112 140q133 72 288 72q118 0 212 -36l4 4h40l12 -8l12 4q28 -4 28 -12 v-8l-8 -8h-4l-12 8h-4l16 -28q-8 -24 -16 -24l4 -20l-8 -8h-24q-43 49 -124 68v4l8 8l-40 4l4 -4v-4l-4 -4h-8l-8 8l12 4v4h-36v-4h12v-8h-4l-4 4l-4 -4h-8l-8 8l12 4v4h-108l8 -12l-4 -4h-16v4l4 4v4h-28v-16h-8v12h-12q0 -16 -8 -16l-8 8l4 4h-12v-16h-4l-4 4h-4l-8 -8v8 h-8q0 -12 -8 -12l-4 4l-8 -8v8h-12q0 -17 -28 -24l-4 4v4l-28 -24l-4 4h-4q0 -7 -52 -44q-28 -24 -28 -52q0 -73 288 -156l128 -44l16 4l12 -12l12 4q75 -21 120 -44q84 -21 164 -56q13 0 52 -24q23 0 56 -24q131 -41 288 -176q88 -100 88 -196q0 -119 -144 -220l-4 4h-4 q0 -11 -20 -20l-4 4h-4q0 -10 -16 -12l-4 -4v-4q144 -63 144 -76l52 -24q169 -93 204 -120q27 -4 56 -28l48 -20q0 -10 36 -16q0 -13 88 -44q14 -16 44 -16q0 -17 52 -24q0 -12 52 -28l28 -20l4 4h12l52 -32l4 4h12q15 -15 64 -36l12 4l104 -44l152 -44l24 4q0 -12 36 -16 l12 4l28 -12l24 4q0 -12 16 -12l32 4l8 -8l24 4q0 -9 72 -16l8 8h8l12 -8h88q83 0 100 12l24 -4q44 0 68 16l28 -4q0 11 40 16l4 -4h4l208 88l140 100q56 57 56 92v24q0 37 -68 76l-16 16q6 40 20 40h4q120 -42 120 -136q-15 -93 -136 -188l-64 -40l-12 4q0 -11 -44 -32 l-4 -4v-4l-4 4h-4l-52 -28v4l-36 -20v4l-148 -40v4l-28 -12l-20 4q-68 -8 -68 -16l-20 4l-136 -4h-28l-36 -4q-8 8 -72 12l-20 -4l-16 8l-16 -4l-28 12l-20 -4l-28 12l-16 -4l-40 16l-16 -4q-9 12 -72 24l-208 64q0 12 -80 32q0 11 -68 28q-14 20 -52 20q0 13 -56 28 q0 11 -44 20q0 12 -56 24q0 15 -84 44q0 6 -40 20q-18 18 -68 36q-18 21 -64 32q0 10 -40 20q0 12 -20 12q0 8 -44 28q0 8 -32 12q0 16 -36 20q0 12 -16 12q-8 0 -8 12q-35 10 -84 40h-4l-4 -4h-4q-3 16 -52 32q-10 0 -12 16h-28l-8 8l-4 -4h-8v8h-4v-12l-20 4l-16 -12l-4 4 h-12v-8l-4 4h-4q-16 0 -16 -16h-4v8q-111 -20 -124 -28l-4 4l-20 -4h-8l-4 4h-4q0 -9 -48 -12l4 -4v-8l-24 16l-8 -8l-108 4l-72 -4q-164 16 -164 32l-12 -4q-52 0 -208 76q-15 12 -36 12l4 4v4l-4 4h-4l-4 -4h-4q0 13 -20 24v-8h-4q-8 0 -8 12l-4 4h-12l-12 -8h-12l-24 32 q-20 0 -24 76zM124 872l16 -48h4v4q-12 16 -12 56h-4zM156 48q0 -42 192 -132l124 -40l4 -4l16 4q32 -5 32 -12l4 4h16l8 -8l12 4q52 -3 52 -12l20 4h8l32 -8h72l32 8h32l4 -4l24 8h4l4 -4l24 8l12 -4l24 8v-4l180 44v4q-27 0 -76 28q-18 0 -56 20l-4 -4l-4 4q0 7 -20 8 l-4 4v4l-4 -4h-4l-36 12l-4 -4q0 12 -20 12l-4 -4v8h-8v-8h-4q0 19 -60 28q-41 16 -108 28q0 -12 -8 -12v8l4 4v4h-16v-12l-8 8l4 4v4h-12v-12h-8v8l4 4v4l-36 4l4 -4v-4l-4 -4h-8v8l4 4v4l-36 4v-12h-4l-8 8l4 4v4h-16l4 -4v-8h-12l-8 8l12 4v4h-20l4 -4v-8h-8l-8 8l8 8 h-24v-4h8v-8h-4l-32 4l-12 -4l-4 4v4l8 12h-24l4 -4v-4l-8 -8h-4l-12 12l8 8h-28v-4h12v-8l-32 -4l-4 4v4l-60 -4h-88q-9 -8 -28 -8l-12 -24h-12zM324 92l32 -4l4 4v4h-36v-4zM452 80l16 -4l4 4v4h-20v-4zM568 52v12h4l8 -8l-4 -4h-8zM608 44v12h8v-12h-8zM632 1012v12h4 l8 -8l-4 -4h-8zM660 1020l8 -8l4 4v4h-12zM784 8l4 4h4v-12zM788 1024h8l-4 12h-4v-12zM3492 -364v-20h4v20h-4z" />
<glyph unicode="T" horiz-adv-x="541" d="M-241 1067v12h8v-12h-8zM-241 1135v4l8 16l-4 20h8l-4 12q15 55 68 132q36 56 156 56h12q92 0 128 -24l24 4q0 -10 48 -20l16 4q25 -2 40 -16l16 4q36 -7 108 -36q134 -36 172 -36q8 28 32 28l16 -16v-4l-8 -24q245 -60 612 -108q214 -20 408 -28q244 0 636 56 q390 76 796 200l160 44l8 -12q0 -18 -184 -60q-283 -93 -688 -176l-284 -48v4l-4 -4h-4l-436 -28q-212 0 -724 72l-308 64q-72 -132 -120 -256q-98 -251 -188 -624l4 -16l-60 -272l4 -16q-7 -1 -36 -76h-24l-8 8v12l8 12l-4 4h-4l-8 -8h-8l-8 8l24 40l-12 12q36 34 36 56h8 l-4 4v4q4 24 12 24l-4 4v12h8v4l-4 12l8 8l-4 12l8 8l-4 12l12 12l-4 4v4l4 12l-4 4l8 8l-8 8v8h8v-8h4v12l-4 12l8 8l-4 4v4q31 34 80 264q100 314 200 576q8 0 12 36l12 8l-4 12l16 36h-4l-200 52l-12 -4q-72 14 -72 24l-12 -4q-36 0 -36 16h-8l-32 8l-20 -4q0 7 -120 16 l4 -4v-4l-4 -4h-32l-4 4l-4 -4l-24 4l8 8h52v4h-44q-36 0 -36 -20h-8v4l4 4v4h-8l-4 -4h-4l4 -4v-4q0 -5 -52 -24q-60 -69 -60 -156v-60l4 -28l-4 -4q6 0 28 -84q93 -196 224 -196q112 16 112 44l4 4h12l16 -16v-4q0 -16 -28 -16l4 -20l-16 -16l4 -4v-16q0 -16 -68 -16v4 l-4 -4h-56q-100 12 -100 40q-14 0 -32 32q-12 0 -12 12q-10 0 -12 16h-12v8l4 4v4q-25 0 -88 156q-8 10 -24 132v28h-8zM-169 859v4h8v-12zM39 715h32v4h-32v-4zM43 1315v12h8l8 -8v-4h-16zM111 783v4l32 28l12 -12v-8q0 -9 -44 -12zM187 743v4l8 8h8l8 -8l-4 -4h-20z M215 -5l12 12l4 -4v-4l-12 -12l-4 4v4z" />
<glyph unicode="U" horiz-adv-x="718" d="M-5 111v20l4 52l-4 32l4 4h4l-4 4v4l12 36l-4 24q7 0 12 20l-4 4v4q60 218 184 472q25 31 96 192q12 0 12 28q18 0 52 100l52 112h4l-4 4v4l20 44l-4 4v4l4 4h4l-4 4v4q0 20 12 20v20l-4 20l8 8v4l-4 -4h-12v24l-24 4q-77 -25 -136 -92q-180 -271 -180 -480v-84l4 4h8 l12 -20v-8q0 -8 -16 -8l4 -4v-4q-5 -36 -16 -36l4 -20v-4l-8 -8h-20q-9 0 -12 28q-20 0 -20 8v16l4 16l-4 4v4l4 24v8l12 4l-4 16l-4 -4h-8v60l8 8l4 -4v16h-8v28l8 8l4 -4v8h-8q0 26 36 148q0 19 108 224q48 82 124 156q78 56 112 56h8q64 0 64 -104v-12 q-13 -111 -124 -296q-8 0 -28 -56q-10 0 -16 -32q-23 -10 -168 -324q-72 -161 -100 -284l4 -4v-4q-4 -22 -16 -36l4 -28q-9 0 -12 -20l4 -20l-12 -56v-4l8 -12v-32q0 -92 56 -92h20q68 0 188 180q40 42 40 64q41 93 76 152q0 17 32 72l28 60q12 68 88 280l20 48q0 26 24 72 l24 48q0 36 44 100l-4 4v4q67 160 104 160h16q7 0 16 -24q-16 -69 -96 -236h-8v-8q0 -24 -28 -56l-44 -116q-18 -12 -88 -188h-4l4 -12q-24 -26 -24 -60q-21 0 -40 -104l4 -20q-11 0 -16 -36l4 -20l-8 -8l4 -24q-20 -16 -20 -124l-4 -4l8 -24v-16l-8 -12l8 -20h-4l4 -4v-8 l-4 -4q23 -136 76 -136q16 -8 44 -8h12l56 12h16q0 18 60 36h8q16 -6 16 -28q-29 -28 -44 -28v-4l-4 4h-8l4 -4v-4l-20 4q-10 0 -24 -16q-12 0 -28 -20l-20 -8h-12v4q12 0 12 8h-28l-48 8l-4 -12q-30 0 -56 40h8v4h-4l-12 -4v4l-8 12v4l12 -8v4q-44 52 -44 164l4 4h4l-4 20 v28q8 0 20 136h-4l-56 -104q-16 -5 -36 -68q-22 -43 -88 -120l-84 -80q-11 0 -32 -20h-8l-4 4h-4l-8 -8h-12q-80 22 -80 44l-16 12v12q8 0 8 -12h4v4q-16 46 -16 80zM115 671l8 8v-16zM499 -25v-8l12 4v4h-12zM631 923h4l4 16q-8 0 -8 -12v-4zM747 1283v8h12l-8 -8h-4z" />
<glyph unicode="V" horiz-adv-x="620" d="M69 10q9 0 36 136q65 243 244 580l128 248l-4 4v4q28 37 28 60q12 0 24 48l-4 12q10 0 28 72l-4 4l4 4h4l-4 4v4l8 12l-4 4l4 28v36h8v-8h4v16q-12 0 -12 8v4h8v-8h4v4q0 36 -28 52q0 19 -40 24l-4 4q-77 0 -156 -36l-12 -12h-24l-8 8v8l8 12v4h-4l-12 -8h-4l-12 12 l36 36q-24 0 -24 12v8q2 8 20 16l32 -8l4 4l4 -4v-4q-20 0 -28 -20h4q18 20 32 20l-4 4v4h4l24 -8l28 8v-4q17 8 64 8h44q96 -33 96 -116v-56q0 -58 -40 -140h-4l4 -4v-4l-28 -52q0 -33 -24 -56l4 -12q-49 -61 -284 -544q-89 -194 -132 -424l4 -24q-12 0 -12 -44v-116l8 -8 q21 0 52 80l108 176l124 180q246 358 552 760q208 292 208 328q11 0 16 32q6 0 24 40h8v16q0 20 28 76l-4 4v4l4 4v4l-4 4v4l12 20l4 40l-4 -4h-8q0 36 -24 52q0 17 -24 20v4l20 32l24 8q60 -22 60 -124v-4q-39 -164 -60 -164v-12q-30 -68 -116 -184q-69 -119 -520 -720 q-241 -343 -268 -404q0 -11 -20 -24q0 -16 -100 -192l-68 -164v-8q42 -68 60 -80q86 -68 144 -68h4q93 0 188 60l40 36q44 33 44 80l-12 8q-25 0 -64 -16l-4 4v4l4 4v4l-12 12l-4 -4h-12l4 4l12 28q37 20 56 20h36q60 -10 60 -60v-4q-47 -107 -124 -152l-4 4 q-21 -27 -64 -52l-8 8q0 -16 -16 -16v8h-8v-12h-4v8q-54 -8 -64 -24v8h-12q0 -16 -8 -16v4l-4 -4h-32v8l4 4v4h-24q0 -12 -8 -12l-4 4v4l8 8l-48 12l-8 -8q0 16 -40 28q-6 23 -60 48l-24 44q0 18 -16 28q0 54 -32 72v4l8 12l-12 28l4 20l-4 64l4 104zM157 -242l12 8l4 -4v-4 l-8 -8zM281 -478l4 4h4v-12zM341 -482v-4h20v4h-20zM457 1378h40v4h-40v-4zM1193 1714v4l8 8l8 -8l-4 -4h-12zM1225 1626l4 -16h4v16h-8z" />
<glyph unicode="W" horiz-adv-x="1077" d="M62 -240q7 0 20 68l-4 4v4l16 44l-4 4l4 4h4l-4 4v4q25 68 64 144q0 27 24 64q0 22 16 36q1 25 28 60q56 110 64 140q12 0 12 24q20 0 52 84q32 27 32 52q16 0 16 28q25 17 40 60q8 0 8 20q20 0 32 48q20 12 20 32q11 0 16 28q22 9 36 60l56 88q87 172 116 260l4 4l-4 4 v4q5 20 12 20l-4 4v12l8 8l-4 4v12q12 14 12 48l-4 60h-4v-12l4 -52v-4h-4q0 57 -32 108q-5 8 -60 24q0 -6 -80 -24q-97 -54 -124 -80q-173 -169 -204 -304q-32 -83 -32 -160v-4q0 -121 76 -180q10 0 52 -48v-16l-12 -12l4 -20l-16 -16h-8q-110 106 -128 164l-12 24h8 l20 -48h4v4q-28 62 -28 100l-4 -4h-8v8h8v68h-8v12h8l-4 20l8 12l-4 12l4 4h4l-4 4v4l8 8l-4 4v4q33 169 212 360q155 160 276 160h12q103 0 120 -156v-12q0 -141 -128 -368l-88 -152q-24 -14 -24 -44l-48 -72q-10 -1 -36 -60q-32 -27 -32 -52q-16 0 -16 -28 q-24 -13 -40 -60q-37 -34 -48 -84q-50 -63 -88 -164q0 -13 -24 -44q0 -15 -24 -56q0 -22 -16 -36l-64 -208v-8h-4l4 -4v-4q0 -28 -8 -28l4 -4l-4 -20v-36l-8 -12v-8l28 -84q35 -36 68 -36h12q71 0 176 124q86 122 136 232l-4 96v4l8 32l-4 12q0 55 56 112h8v8h-8v12h8 q13 -16 40 -24l12 -40h-4l4 -4q0 -23 -60 -208v-8q0 -200 56 -268l20 -12h24q81 0 228 308q12 0 12 16l8 28q13 0 32 80q9 0 36 68l-4 4v12q14 0 56 152q104 289 104 312q41 132 76 344l-4 20l4 4h4l-4 20v4l8 8l-4 20l8 16l-4 16q12 21 12 40l-4 36l8 12l-4 48v24l8 12v16 l-8 32v16l8 12v4q-12 40 -12 80v20l12 12h16q16 0 16 -72l-4 -44l8 -16l-4 -4v-4l4 -4v-4l-8 -24l4 -64h-4l4 -4v-8l-8 -12l4 -36q-12 -20 -12 -40l4 -36l-8 -16l4 -16l-8 -12l4 -4v-16l-8 -8l4 -20q-12 -9 -32 -144q-48 -213 -132 -456l4 -12q-18 -65 -36 -88 q-36 -100 -40 -132q-17 -13 -40 -116q-11 -4 -28 -40l4 -4v-8q-20 -16 -20 -48q-169 -348 -272 -348h-12q-69 0 -116 132h12l4 -24h4v8q-20 59 -20 96h-4l-4 -4h-4l-4 4v28h8v-20h4v32l-8 8l-4 -4l-4 4q-142 -272 -296 -324l-12 4v8h8v4h-12l-4 -4h-4l4 -4v-4l-8 -8h-4 q-96 25 -96 76q-15 0 -32 92l8 20zM158 720v4h4l-4 4v8h8l4 -16l-4 -4h-4zM162 704v4l4 4h4l4 -4v-4l-4 -4h-4zM314 612h20l16 -16v-4l-8 -8q-28 0 -28 28zM530 56h4v16h-4v-16zM530 -208h8l4 -24h-4l8 -32v-8h-8zM554 184q5 20 12 20h8v-8l-12 -12v-4l-4 4h-4zM650 1372h4 l16 4v4h-8l-12 -4v-4zM1234 1356v12h8v-12h-8z" />
<glyph unicode="X" horiz-adv-x="1367" d="M-1029 -105q0 8 12 8v20h-8v4l12 16v4h-8l12 16l-4 4v4l8 12l-4 4v4q8 0 20 56q24 39 24 64q20 53 116 160q97 72 160 72h28q219 0 312 -200q6 -1 16 -32h8l-4 20l24 -28v-8q0 -8 -20 -8l4 -20v-8l-12 -16l4 -20l-12 -8h-16q-9 0 -12 28q-24 0 -24 36h4q-27 79 -92 148 l-56 36q-32 11 -32 20l4 4l-4 4h-12v-12h-4l-8 8l8 8l-52 4h-16v-4h16v-8h-8l-4 4l-16 -8l-20 4h-12v8h12v4h-20v-4l4 -4v-4l-12 -8l-4 4h-4l-8 -8l-4 4h-4l-8 -8l-4 4h-4q-2 -12 -32 -12q-79 -55 -128 -140q-15 -44 -28 -44v-8q-36 -125 -36 -192l-4 -4l4 -4v-8l-4 -4 l8 -48l-4 -4v-4q24 -83 32 -84q6 -34 68 -96q53 -37 104 -56q25 -11 104 -20l4 -4q12 8 68 12v-4l20 8l12 -4q88 32 112 32q65 27 92 48q17 0 36 20q25 0 136 72q68 44 92 68q27 12 44 32q28 12 28 20q150 68 804 748v4l-52 152l-56 88l-12 -4v4q0 8 -24 28l4 4v4h-4l-12 -4 q0 10 -16 12v4h8v4h-4l-16 -4q-17 12 -32 12v8l4 4v4q-68 20 -100 20h-8v-4h12v-8h-44l-4 4q-17 -8 -68 -12l-4 4l-8 -8h-8l-4 4h-4l-76 -28l-40 -28h-24l-8 8v8l8 12v4h-4l-24 -8l-4 4v8q0 8 24 16q0 19 32 28l4 12h-4l-28 -20q-16 6 -16 12v8l12 12l40 -8l12 4l4 -4h4l4 4 h4l4 -4h4l116 28q304 0 376 -188q48 -86 48 -124l-4 -4q10 0 12 -36l4 -4h4q346 373 488 480q231 189 392 272q217 136 528 220q77 10 96 24l20 -4l8 8h24l8 -8l136 8l8 -8l20 4l116 -44q36 0 92 -68q40 -71 40 -128q0 -128 -168 -280l-4 4h-4l-8 -8l-4 4l-12 -12l-8 8v-4 l4 -4v-4q-15 0 -104 -56h-4l-4 4q-20 -4 -20 -16h-8l4 4v4h-4l-12 -4l-12 4q-5 -16 -36 -16l-4 4h-4q0 -9 -32 -20q0 -16 -32 -16h-4v8h8v4l-16 4l-16 -4l4 -4v-4l-4 -4h-12l4 4v4h-48v-4h8v-4l4 4h12v-8l-36 -4l-12 4v12h12v4q-36 2 -36 12l20 32l72 -4l88 12l12 -4 q0 11 40 16l4 -4q0 15 44 24l108 52q125 82 148 164q10 5 20 40h-4l4 12l-4 12l8 8l-4 12h8q-6 88 -28 88l4 4v4q-8 18 -16 20v-8h-8q0 24 -44 48q0 8 -12 8q0 14 -28 28l-4 -4h-4q-84 20 -84 28l-20 -4h-8l-32 8h-80l-12 -8h-16l-16 4l-20 -8l-16 4q-398 -59 -912 -436 q-162 -134 -300 -268l-280 -296q18 -30 48 -160q164 -399 403 -399q22 0 45 3l24 4l16 -12l27 13q0 -7 29 -5v-4q-6 -16 -12 -16l-9 -11l-24 -4h-4l-15 3l-4 -4h-16q-12 7 -132 8.5t-292 235.5q-39 39 -56 128l-36 104l-16 88q-550 -556 -656 -636q-97 -69 -132 -108 q-10 0 -28 -20q-12 -12 -28 -12q0 -17 -76 -52l-188 -116l-36 -20q-78 -23 -128 -56q-51 -4 -92 -20l-4 4h-4q0 -8 -16 -8v-8l-4 4h-4l-48 -4l-4 4v4l-20 -8q-74 0 -156 48l-12 4l-4 -4l-16 20l-4 -4h-4l-8 8l4 4q-25 0 -48 24v4l4 -4h4v4q0 8 -16 8l4 4v4q-80 103 -80 220 l-4 16v24h-8v8zM-617 287v4l4 4h4l4 -4v-4l-4 -4h-4zM-305 55v4l8 8l4 -4v-4l-8 -8zM411 935h44v4h-44v-4zM479 923v4h12l-8 -8zM499 923l4 4h4v-12zM2323 995l8 -8l4 4v4h-12z" />
<glyph unicode="Y" horiz-adv-x="1110" d="M-170 -452q0 9 13 9v39l-4 4l4 5v4l-4 17l8 9v4l-4 5v4l9 9l-5 4l5 4h4l-4 4v5q22 56 43 56l17 30q-17 0 -17 13v5l17 17h5q14 0 30 -13l8 9l5 -5l4 5l4 -13q39 8 104 8h48q158 -34 186 -56q16 0 65 -30q26 0 91 -43l194 -135l95 -56v5l65 138q0 44 26 78l48 156 q10 9 86 237l-4 13l26 57l-4 13l4 21h-9q0 -13 -8 -13l-13 5q-2 -9 -83 -44q-40 0 -82 22l-4 -4h-4q-52 34 -70 34q-16 43 -39 74q-64 110 -86 268v13q9 148 30 264q-30 32 -30 43l-35 117h13v-13h5v4q-26 107 -26 165l-5 -5h-8v13h8v13l-4 74h-4v-26l4 -13h-9l-4 21 q0 28 26 61l-9 17q8 31 13 31l-4 4v4l26 82l-4 22q27 51 39 108q0 23 103 139q56 70 126 95q22 13 60 17q57 0 83 -56l4 -18q0 -105 -104 -294q-28 -68 -108 -220q-10 -39 -22 -48l5 -4v-13q-21 0 -83 -216v-5q18 0 18 -30l-22 -9l-9 9v-4l9 -26v-5l-13 -17l4 -26 q-21 0 -21 -43q-22 -75 -22 -212q0 -125 91 -286q51 -46 95 -64l5 -5v-4l4 4h4l43 -4q90 23 139 82q33 19 47 104l26 82l-8 17q8 0 8 22h5l-5 4v5l9 8l-4 5v4l8 13l-4 4q7 0 17 44l5 4v4l-5 22l9 8l-4 5l13 56l-5 4l13 5v17h-8l13 22l-5 13h9v17h-9q13 16 13 30h-8 q13 16 13 30v5h-9v4l9 9l-5 4v9h9v13h-9v13h9v8l-9 13v5l5 4l-5 4v44l-13 77l13 9l5 -4h4l4 21l-8 26v9l8 9h13l9 -9v-22l30 -13v5l-8 21l4 5h8q9 0 9 -13q-7 0 -26 -269q-37 -207 -56 -229l4 -13l-82 -272l-4 -5v-4l4 -17l-17 -26l4 -17l-17 -26l4 -13l-26 -57l5 -13 q-22 -41 -96 -263l5 -13q0 -15 -31 -65l-43 -147q-16 0 -34 -91q-16 0 -26 -65l-18 -17q403 -249 688 -372q495 -208 965 -208l242 4l13 5v-5l4 5h4q330 0 840 147q362 116 605 328q88 79 100 130q16 0 34 48l-4 4v4l17 39l-4 5v4l9 9l-5 4v4l13 22q0 41 -30 91l-13 -5v5 q0 29 -125 56h-9v9h17l5 -5h4l4 5v4h-47l8 -13l-4 -4h-9l-8 8l4 5h-26q0 -18 -30 -26l-9 8v5l4 4v4l-17 9l-4 -4q0 47 69 47l61 5q48 0 134 -57l4 -4q29 0 60 -121l5 -22q0 -40 -69 -155q0 -11 -35 -52q0 -29 -56 -65q-261 -225 -502 -303q-186 -93 -735 -186l-186 -13h-5 l-21 -4v4l-5 -4l-311 -9v4l-13 -4q-159 0 -515 61q-395 103 -778 315l-346 199q-6 -18 -22 -26l4 -4v-4l-56 -95q0 -23 -108 -165q-138 -147 -242 -147v9h8v4h-64v-4h8v-9q-106 0 -212 104q-70 57 -91 104l-4 -5h-4l-44 52v5h9q2 -18 13 -18v5q-121 154 -121 328h-4v-13h-9 v13zM-153 -581h9l4 -13h-8zM-114 -452q0 -223 255 -449q99 -65 169 -65h43q133 0 299 251q0 13 21 21q13 43 52 108l9 26q-199 138 -290 182q0 9 -26 9q-3 13 -56 30q0 14 -69 30q0 9 -39 13v-9h-9v5l5 4v4l-100 22l4 -4v-5l-34 -8l-52 8q-74 0 -139 -43h-21 q-17 -44 -22 -130zM46 -270h39v9h-4l-4 -5h-5l-17 5zM232 -1001l9 -9l4 5v4h-13zM267 -1010v-8h4l9 8h-13zM561 976v4h4l-4 4v18h9l4 -26l-4 -5h-5zM578 937q10 0 13 -30h5v8l-9 31zM591 1257l5 -4v-9q0 -189 56 -342h4l74 234q20 25 52 112l26 69q8 0 8 26q9 0 9 22l13 4 l-4 5l90 207l18 74h4v13q-18 43 -61 43l-86 -39q-104 -76 -147 -194q-22 -6 -22 -61q-17 -19 -26 -65l5 -17q-6 -35 -13 -35l4 -4v-17q0 -22 -9 -22zM695 842v4h9l4 -17zM851 119v13h4l13 -4v-9h-17zM1158 889h4v22h-4v-22z" />
<glyph unicode="Z" horiz-adv-x="997" d="M-91 -75q0 27 24 64l-4 12l4 4h4l-4 4v8l20 20h8l12 -12q0 -9 -32 -20v-4h4q20 5 56 32q26 0 140 100h-8v4l-4 -4l-32 8q0 -20 -8 -20h-24q-44 25 -44 32l4 4v4q-24 5 -24 12v4q0 8 20 8q0 15 12 32l-8 8l8 8h8q8 0 8 -12h12l12 8q8 0 8 -20l16 12h24q7 0 16 -28l72 -16 q9 20 92 76q548 464 1076 868l108 92q17 0 148 120l16 12h-12q0 -11 -28 -16q0 -16 -32 -16q0 -18 -48 -24l-80 -48q-21 0 -92 -44q-14 0 -40 -20l-116 -44q-27 0 -120 -36l-100 -24v-8h-4v8h-28l4 -4v-8h-8q0 16 -24 16l-24 -8h-32l-4 4l-4 -4h-4q-41 0 -116 16 q0 -12 -8 -12v8l4 4v4h-12l-4 -12l-24 8v12l4 -4h8v4l-12 4l-4 -4l-4 4v-4l4 -4h-16l-4 4h-4q-48 -48 -172 -136l-4 4h-4l-4 -4l-4 4q0 -21 -112 -60l-12 4l-8 -8l-12 4v4l4 4v4h-8l-4 -4h-4l4 -4v-8l-20 -4h-28l-8 8l-16 -4q-48 0 -116 84l-12 20v8h8l8 -24h4v4 q-28 56 -28 124h-4v-8h-8v12q12 15 12 36v8h-8l8 8l-4 4v4q8 93 112 204q51 28 72 28h24q67 0 200 -148q99 -95 148 -104h4l36 40l48 56v4h-12q0 27 28 48l12 -12v-12l-4 -4v-4h20q0 28 12 28h12q12 -4 12 -24q-12 -12 -28 -12l4 -4v-24q-12 -13 -12 -36l-84 -68 q38 -20 208 -32q8 8 116 20l40 12l16 -4q79 24 108 44q64 15 112 44q19 0 44 20q29 0 88 40q43 9 96 52l96 52q13 0 36 24q84 44 152 100l-4 -4h-4l-8 8q17 16 20 32q44 20 44 56l16 4l20 -24q8 18 16 20h12q12 -4 12 -24l-12 -12l16 -28l-12 -8l-4 4h-4q0 -25 -120 -116 l-204 -156q-41 -14 -136 -100q-16 0 -800 -624l-404 -340q0 -8 -32 -36l20 4h4q0 -14 128 -28l24 4q0 -12 44 -12l36 4q0 -8 28 -8v-4l28 4h88l20 4v-4l96 20l24 -4q0 12 56 20l12 -4q0 16 52 24l16 -16q0 -19 -24 -32v-4h-4l-4 4h-4v-8h-8v8h-16q-16 -15 -60 -20l-12 4 l-24 -12l-24 4l-108 -8h-16l-24 -4l-4 4l-20 -4h-56l-4 4h-4l-8 -8h-8q-14 12 -52 12l-28 -4q-19 11 -128 28l-24 -4l-24 8h-32q-23 -33 -128 -116q-36 -16 -36 -44h-24q-16 -40 -36 -40v-12q0 -113 284 -128l80 -4l8 8h48l16 -4l24 8h4l36 -4l24 8h20l4 -4l24 8h12l16 -4 l28 8l32 -4l8 8h8l16 -4l28 8l28 -4l24 8l12 -4l20 8l24 -4l24 8l4 -4h4l20 8l24 -4l24 8l4 -4h4l20 8l24 -4q54 4 84 16l20 -4l8 8l16 -4l24 8l4 -4l24 8h4l4 -4l16 8l20 -4q23 0 60 16l20 -4l8 8l32 -4l12 12l20 -4l8 8l32 -4q0 10 16 12l24 -4l20 12l24 -4l20 12l20 -4 q39 4 52 16l20 -4q63 8 72 20l24 -4l20 12l20 -4q666 104 1020 104l4 4h4l16 -4h8v4l20 -4h12l96 8h8l12 -8h8l80 4q0 -8 12 -8l36 4l8 -8h12l40 4l8 -8l24 4l8 -8l40 4l4 -4v-4l20 4l12 -8l24 4q0 -8 24 -12l28 4l4 -4v-4l4 4h4q36 -3 36 -12l4 4h4q36 -3 36 -12l4 4h4 q27 0 60 -20l12 4q271 -66 380 -188q12 -15 20 -52q-26 -76 -80 -76l-48 -4l-4 4q0 -8 -12 -8l-80 4v8h40v4h-80q-28 0 -28 24q8 18 16 20h64q87 0 148 16v4l-8 12l4 4v4q-64 71 -132 100q-9 0 -12 20l-12 -8q-28 9 -28 24l-4 -4h-4l-8 8v-8h-4l-24 20h-4l-4 -4h-4 q0 13 -88 32l-4 4q-11 0 -20 12l-16 -4q-153 29 -176 40l-24 -4l-16 8l-16 -4l-12 8l-4 -4h-4l-32 8l-24 -4l-16 8l-16 -4l-44 12l-8 -8h-4l-24 8l-44 -4l-24 8l-88 -4l-24 8h-4q-468 0 -1124 -108q0 -8 -12 -8l-16 4l-24 -12l-20 4q-61 -6 -72 -20l-20 4l-56 -16l-16 4 l-24 -12l-24 4l-24 -12l-24 4l-20 -12l-20 4q0 -8 -12 -8l-16 4l-24 -12l-16 4l-16 -8l-20 4q-42 -4 -56 -16l-20 4l-8 -8h-4l-20 4l-8 -8l-16 4l-24 -8l-4 4h-4l-16 -8l-20 4q-58 0 -80 -16h-20l-4 4l-16 -8l-32 4l-8 -8h-4l-16 4l-20 -8l-28 4l-8 -8h-16l-4 4l-24 -8 l-20 4l-24 -8h-12l-20 4q0 -8 -12 -8l-32 4l-8 -8h-20l-20 4l-8 -8h-32l-4 4h-4l-8 -8h-12l-40 4q0 -7 -36 -12l-16 8q0 -8 -36 -8v-4h16v-8h-20v8l-12 4l-4 -4h-4l-32 8l-8 -8h-132v-4h16v-8h-12l-20 -4l-8 12l12 4v4h-20l4 -4v-8l-20 -4q0 8 -24 8v4l-4 -4h-4 q-122 29 -164 96q-23 25 -28 60v20zM-79 -83v-16h4v16h-4zM117 1025v12h8v-12h-8zM121 -239l4 -4v-4l12 4v4h-16zM149 137h4l8 8h-12v-8zM157 1125q0 -101 72 -152l64 -16q152 0 328 164q-65 33 -204 172q-75 60 -112 60q-60 0 -120 -92q-20 -47 -28 -136zM229 -255l4 4h68 v-8l-20 -4h-44zM257 913l16 -4l4 4v4h-20v-4zM781 1065v4l4 4h4l4 -4v-4l-4 -4h-4zM829 1237v4l8 8l4 -4v-4l-4 -4h-8zM1853 1573l8 8l4 -4v-4h-12zM3589 -315h20l20 -4v-4h-40v8zM3729 -307v-8l12 4v4h-12z" />
<glyph unicode="[" horiz-adv-x="758" />
<glyph unicode="\" horiz-adv-x="569" d="M-86 703l12 12l12 -4v4l8 24l-12 12v12l8 8h8l24 -28l12 -4v4l-4 12l4 4h4q24 -9 24 -16v-16h-20q24 -24 136 -232q74 -131 184 -284q34 -28 88 -120q9 0 100 -112v-16q-20 -18 -20 -32h-8q-60 62 -60 72h8v4l-56 92q-68 62 -68 92l-124 172q-7 0 -64 72h-4l4 4v4l-4 12 h-4v-8h-8v12q0 20 -28 52l-4 -4v4l4 4q-9 24 -16 24l-4 -4l-4 4v4l4 4v4l-4 12h-4v-8l-12 12l4 12h-4q-8 0 -52 76q-27 0 -40 32z" />
<glyph unicode="]" horiz-adv-x="758" />
<glyph unicode="^" horiz-adv-x="327" d="M-70 441l28 40l-12 12q8 18 16 20h20v-12q129 150 156 232q8 0 24 28h4q44 0 44 -64q15 -32 68 -44q18 0 28 -20v-8q-6 -16 -32 -16v-4q16 0 16 -8l-4 -4h-16q-67 0 -108 76h-4l-160 -240q0 -24 -12 -24h-24l-8 8v12l4 4v4h-8l-12 -4z" />
<glyph unicode="_" horiz-adv-x="59" d="M-1919 -507q35 88 84 88q0 22 36 24q183 100 348 128q196 32 260 32h20q413 0 820 -84q443 -80 588 -80h12l16 -4l4 4l20 -4h44q204 0 204 16h8l8 -8l28 12l28 -4q77 0 252 60h4l20 -4q0 21 76 32l108 68q30 29 52 68v4h-8v16h8v12l-12 36l-4 -4h-8q0 14 -20 32l4 4v4 q-20 0 -20 8l4 4v4q-26 28 -44 28l-12 12l-12 -4v4q0 11 -44 24l-64 36l-4 -4h-4l-152 36q0 8 -12 8l-28 -4q-20 12 -40 12l-36 -4l-16 8l-28 -4l-108 4l-12 -8l-32 4q-92 -3 -92 -16l-40 4h-4q-22 -16 -48 -16q0 -12 -8 -12v8h-16l4 -4v-4l-44 -20l-12 4l-8 -8l-4 4h-4 q0 -8 -56 -20q-39 -17 -72 -48h-20l-8 8l8 24l-4 4h-4l-12 -12h-4l-8 8v4q28 25 28 36h-4l-12 12v8q5 16 36 16h4l8 -8l-12 -12v-4q37 25 224 56l28 4l4 -4h4q40 4 40 12l28 -4q87 7 108 16l8 -8l4 4h52l32 8h36l16 -8l32 4q0 -12 44 -12l32 4q0 -12 16 -12l36 4l4 -4v-4 l4 4h4q89 -12 128 -36q17 -13 64 -20q44 -15 108 -60q104 -60 104 -160q0 -57 -124 -148l-12 4v-8l-4 4h-4q-63 -17 -112 -52l-52 -12q-50 -20 -68 -20l-4 4h-4q-175 -30 -192 -40l-40 4l-4 -4v-4l-16 4l-100 -4h-40q-346 0 -784 92q-423 76 -700 76h-96q-144 0 -396 -64 q-232 -95 -252 -136q-17 -5 -36 -44l12 -48l-16 -12h-12q-12 0 -28 56h-4z" />
<glyph unicode="`" horiz-adv-x="472" d="M27 911l4 12l-4 24v4q0 8 16 8l4 12l-8 24v4l12 12h8q9 0 12 -20l-4 -4l20 -4q5 20 12 20l8 -8v-4l-4 -4l4 -4v-4l-16 -64q0 -139 188 -292q0 -13 60 -32q2 -9 68 -40l12 4q68 -19 68 -32v-12l-12 -12h-16l-124 60q-20 0 -68 36l-20 4v-8h-4q-42 12 -52 36q-12 0 -20 36 l-4 -4h-4l-16 16l4 4v8q-28 0 -28 16l4 4v4q-16 0 -16 8l4 12l-16 4l4 4v8q-56 95 -56 156h-4l-4 -4h-4zM35 887v8h8l4 -24h-4l4 -4v-8h-8zM47 839v8l8 -8v-8zM111 947v4l4 4h4l4 -4v-4l-4 -4h-4z" />
<glyph unicode="a" horiz-adv-x="500" d="M-24 38l25 85q1 1 2 1q133 228 324 300l16 4l12 -4v4l8 8q0 -8 16 -8v-8h4l8 20l4 -4l20 4h4l20 -20v-4q-40 -104 -84 -164q-20 -77 -20 -104q0 -62 64 -88q40 -16 80 -16h16l4 -4l4 4h8q11 0 24 1q0 -45 -28 -45v-4l4 -12l-4 -4h-20l-12 12l12 4v4h-36v-4h8v-8l-20 -4 l-4 4v4l-4 -4h-4q-74 0 -136 92l-8 28h8l12 -36h4v4q-16 34 -16 76h-4v-40l-8 8v24l4 4l-4 4v8h12v8h-8q-123 -149 -156 -164l-44 -28l-16 4l-36 -4q-46 39 -55 62zM-13 44h4v16h-4v-16zM63 40q60 6 156 124v4h-8q-5 -18 -85 -73q-66 -46 -66 -53q0 -2 3 -2zM65 127l13 -2 q265 155 265 231l4 4v4h-4q-98 -31 -104 -52q-36 0 -174 -185zM391 444v4l8 8l4 -4v-4l-4 -4h-8z" />
<glyph unicode="b" horiz-adv-x="536" d="M-47 23q-1 8 19 11q-5 28 18 32v4q-28 -5 -30 7l-1 4l7 9l8 2l25 -4l23 8q194 98 315 232t148 186q148 277 420 662q128 169 329 391q17 39 106 113q39 7 45 -25q-10 -51 -30 -62q-25 -49 -47 -53l4 -3l2 -8q-23 -4 -81 -120q-12 -2 -200 -267q-120 -158 -144 -200 l-210 -260q-244 -277 -274 -402q-54 -111 -50 -135q-11 -4 -17 -64l-17 -19q8 2 12 -18q52 63 76.5 115t46.5 158l12 23l-6 11l3 4l4 1l9 -6l-3 -5l1 -4q29 5 47 -20l6 -18l133 1q21 9 29 -7q-23 -26 -59 -26q-10 0 -20 2l5 -4l2 -11l-12 -3l-2 12l-19 6l10 -10l-4 -5 l-19 -3l-2 8l8 1l-1 4l-68 -6q-1 8 -21 4l1 -4q-13 -63 -95 -203q-40 -92 -80 -100h-4q-8 -2 -11 18q-20 0 -22 8l-1 4l4 1l5 -3l4 1l-2 11l-8 -1l-1 4l8 26l-5 3q8 1 8 26l18 11l-1 4l-10 10q-3 19 22 61q-3 20 14 35l39 120l-1 4q-338 -302 -360 -305l-24 -5l-4 4l-3 15 l3 5l-1 4l-19 -7l-9 6zM443 283l12 6l-2 8l-4 -1l-6 -9v-4zM575 594q148 174 306 382q18 39 32 41q221 288 389 551l-4 4v3q-69 -24 -442 -526q-124 -182 -281 -451v-4z" />
<glyph unicode="c" horiz-adv-x="486" d="M-30 10v12q25 67 96 147q0 8 32 37q0 18 60 76q-12 0 -12 8v4l20 17h4l4 -4h4l4 4l4 -4v-5l-4 -4v-4q63 62 96 71q0 17 80 63q26 19 72 29q0 25 88 41v5l-4 4v4h12l4 -13h8l12 5v-5q16 -11 16 -29v-4q-15 -20 -20 -46l-68 -12v4q-16 0 -16 -17l-40 -16l-4 4h-4 q-16 -4 -16 -17h-24l4 -4v-8q-40 -2 -40 -13l4 -4q-42 0 -120 -88l4 -4v-4l-44 -42h-20l-12 13q-44 -33 -44 -46l-28 -26q-4 -24 -24 -37l-32 -80v-8q0 -37 100 -37l52 -5q43 0 88 21l24 -4q0 13 60 21l4 -4h4q31 19 148 42l4 -5l8 9h4q22 0 28 -17v-4q0 -24 -92 -34 l-64 -16l-4 4h-4q-63 -25 -80 -25l-24 4q0 -13 -16 -13l-12 5l-124 -25l-84 8q0 -13 -8 -13l-4 5l-4 -5q-32 2 -32 25q-16 4 -20 21h8v-8h8v4l-12 21v21h-8zM26 -57l8 -8l4 4v4h-12zM66 -74l4 5h12l8 -9l-4 -4h-12z" />
<glyph unicode="d" horiz-adv-x="531" d="M-28 37h8q0 -16 8 -16v4l-12 32h4l-4 4v12h8v12l-4 -4l-4 4h-4l32 100q0 33 32 44v-8l-4 -4v-4h4q44 52 128 112l104 44q18 -8 20 -16v-20l-16 -20l4 -12q-15 -12 -64 -20q-111 -51 -164 -152q-20 -41 -20 -68v-8q7 -16 28 -16q75 0 276 184l-4 16l4 16l-4 4v4l24 84 q20 59 52 116q51 124 124 241l26 2q-142 -260 -150 -331l-28 -84l4 -4h4q19 15 36 44q12 0 12 16q9 0 68 80q59 53 112 140q43 52 67 95l28 -8q-50 -67 -63 -103q-13 0 -108 -136q-17 -37 -140 -168q-32 -20 -32 -40v-24q16 -95 37 -101q50 -49 136 -68h28l7 2v-31l-3 1h-32 l-12 -8h-20v-8l4 4h4l4 -4v-4l-4 -4l-16 4v8l4 4v4h-8l-4 -4h-4v8h-4l-4 -4h-4q0 16 -28 16l-4 -4v12h-4v-8h-8l-4 16l-12 -8h-4l-40 36v4l4 -4h8q-49 46 -49 93h4l-4 4v8l4 40q-9 -1 -72 -80q-95 -71 -128 -104q-63 -32 -96 -32q0 8 -20 8q-24 10 -24 28q-24 0 -24 32z M40 233v4l8 8v-4zM68 141l12 16v-12l-8 -8zM240 369v8l8 8l8 -8l-8 -8h-8zM361 52v4l8 -8v-4zM524 697l168 264q0 18 140 180l112 132q29 36 44 40l-4 4v8l8 8l8 -8v-8h-8v-4h4l16 4q18 -8 20 -16v-8q0 -104 -128 -328q-22 -54 -44 -72q0 -20 -52 -84q-12 -13 -12 -36 q-14 -4 -28 -40q-17 -8 -65 -90l-31 5q58 79 72 117l24 36q11 10 128 232l52 120l12 16l-4 4v4l16 52h-4q-82 -73 -188 -212q-113 -130 -152 -204q-56 -70 -78 -119z" />
<glyph unicode="e" horiz-adv-x="357" d="M-18 64v8h4q9 0 16 -32h4v8q-11 16 -20 88q5 20 12 20l-4 4v4q6 16 12 16l-4 4v4q115 254 320 336l32 4l-4 4v4l4 4h4q16 -16 28 -16q20 -21 20 -36q0 -75 -236 -264q-59 -40 -84 -72q-16 -1 -16 -16q-19 -20 -36 -20q0 -81 104 -92l32 -4l153 18q6 8 48 21 q12 -10 12 -22q0 -17 -23 -39q-84 -3 -84 -19h-4v8h-4q-18 2 -31 2q-35 0 -39 -17h-8v4l4 4v4l-32 8q0 -8 -28 -8v-4q12 0 12 -8l-4 -4h-4l-24 4l-12 -4l-56 20q-52 47 -64 76zM66 220h4q101 57 264 224l8 16h-4q-78 -8 -184 -108q-55 -63 -88 -132zM110 -16v-4h8v-4l12 4v4 h-20z" />
<glyph unicode="f" horiz-adv-x="556" d="M-142 -700h8v12l-4 4v4q8 0 8 20h8v4l-4 4l12 20l-4 4v4q23 66 32 68l-4 4v4q207 396 268 496q-56 4 -56 20l4 12h-4q-20 0 -20 8v8q14 0 20 28q20 0 20 16l8 -8l-4 -4l24 -4h8v4h-12v8h12l8 -8l-4 -4v-4l36 -8l68 112h-16q0 -10 -212 -123q0 -6 -28 -20h-8l-16 16v8 l8 12l-20 -4l-8 8v4l20 16l8 20l-12 12v8l8 12l28 -4h12v-4q0 -8 -12 -8l-4 -4v-4h8q7 -1 15 -1q70 0 232 112l65 56q9 0 140 196q270 374 592 720q171 184 204 184l36 16q32 -11 32 -36q0 -60 -92 -188l-48 -72q-57 -56 -72 -96q-82 -88 -128 -156q-108 -116 -120 -144 q-14 0 -32 -40q-8 0 -32 -32q-18 0 -44 -44q-11 0 -20 -20q-11 0 -32 -24q-13 0 -28 -28q-24 0 -100 -88q-22 0 -160 -128q-22 0 -44 -28q-29 0 -108 -136l-52 -80h56q170 20 188 44l8 8h20l4 -4l4 4h4l36 -8q5 -12 5 -21q0 -37 -69 -43v4l-12 -20l-4 4v8l4 4v4h-12v-16h-4 l-8 8l4 4l-4 4q-12 0 -12 -12l-4 4h-16q0 -16 -12 -16l-28 -4v8h8v4h-16v-4l4 -4v-4l-4 -4h-24v8h8v4h-16v-4l4 -4v-4l-4 -4h-16v4l4 4v4h-24v-4q12 0 12 -8l-4 -4h-20v8h8v4h-28q0 -17 -12 -24q16 -31 24 -104q0 -101 -92 -284q-10 -6 -32 -60q-7 0 -44 -64l-32 -48 q-132 -148 -156 -148q-15 -12 -36 -12h-4q-44 31 -44 52l4 4h4l4 -16h4v8q-5 24 -16 24v4zM-90 -696l8 -16q153 74 284 360l-4 4q10 0 36 80h8v4l-4 20q8 0 8 12l-4 12l8 8v16h-8v16l8 12l-8 8v4h8v-8h4q-7 64 -16 64v-8q-6 0 -16 28q-8 0 -8 16l-4 4h-4q-94 -138 -236 -440 l-56 -168zM122 32v12h8l8 -8l-4 -4h-12zM414 -16v-8l12 4v4h-12zM434 300h4q29 26 76 48q63 52 88 84q23 0 96 80q15 0 20 24q9 0 36 32q39 26 88 92q20 0 40 40q35 20 88 96l92 108q0 20 112 144l64 108l64 116l-4 4h-4q-47 -24 -124 -88q-33 -15 -224 -228 q-279 -315 -512 -660z" />
<glyph unicode="g" horiz-adv-x="541" d="M-1645 -677l8 12v4l-4 4v4q8 0 12 32l-4 4l8 8l-4 4l8 8l-4 4l36 84q179 332 544 332h24q327 0 792 -200l200 -116q149 177 160 212q29 17 60 72l56 68l40 56l116 172l68 108l8 8v4q-19 -9 -24 -32q-136 -126 -204 -136q0 -11 -36 -32l-12 4l-8 -8l-8 12l4 4h-12l-4 -4 h-4l4 -4v-4q0 -10 -40 -12l-4 4l-32 12q0 14 -28 32q-44 -72 -76 -72h-8q-8 0 -12 24l4 4q-28 0 -28 16l4 4h-7l27 44q0 24 8 24h4q8 0 8 -16l24 -4q23 11 92 80q13 0 20 20q10 0 80 84q32 14 32 36q8 0 48 48q154 132 328 132q20 -6 20 -28l-24 -52l4 -12l-12 -4v-36 l-12 -12l4 -20l-28 -24q-31 -67 -128 -208q-99 -139 -140 -184q0 -12 -32 -40q-41 -75 -76 -96q-35 -63 -48 -72l-132 -160l-20 -24v-8q67 -39 320 -232l80 -52q169 -113 224 -140q64 -53 128 -72q22 -28 60 -28q2 -14 48 -28q1 -8 40 -20q0 -12 36 -12q0 -17 52 -24 q0 -16 60 -28q0 -6 44 -28l4 4h12q84 -60 468 -156q316 -64 560 -64h84q332 16 332 40l24 -4l24 12l12 -4l72 24h4l4 -4h4q27 20 44 20l12 -4q0 9 68 36q0 8 36 8q15 21 112 80q85 88 92 148l4 4l-4 16q12 0 12 24h-8v40h12q0 93 -76 212h-8l8 -12h-4l-12 12v4h8l-20 20v8 l-4 -4h-4l-12 12v8l4 4v4q-18 0 -44 28l4 4v4l-4 4l-4 -4h-8l-4 16l-4 -4h-4q-7 0 -20 24q-21 0 -24 20q-22 0 -32 16q-16 0 -16 8l4 4h-4l-16 -4q-4 10 -40 28v8l-8 -8q-28 4 -28 12l4 4v4l-20 8h-8l-12 -8q0 14 -28 24v4h4l-4 12q8 18 16 20q213 -58 380 -256 q73 -110 80 -212v-32q0 -169 -156 -280q-13 0 -36 -28l-4 4h-4q-6 -13 -60 -28q0 -13 -68 -32q0 -8 -36 -8q-5 -16 -36 -16v4q-36 -20 -52 -20l-4 4h-4l-56 -20l-16 4l-24 -12l-20 4q-194 -32 -372 -32q-509 0 -1060 208q-12 0 -28 16q-55 14 -84 36q-28 0 -56 24 q-19 0 -44 20q-19 0 -44 20q-14 0 -40 20q-12 0 -48 24q-41 17 -76 44l-80 36l-4 4l-12 -4q0 10 -32 28q0 8 -20 8q-12 14 -116 76q0 10 -20 12q0 8 -28 20q0 10 -20 12l-32 24l-4 -4l-80 68q-75 41 -108 84h-12l4 -4v-4h-4q-8 0 -8 16q-24 12 -24 24h-12l4 -4v-4h-8 q0 18 -64 56l-4 -4l-4 12l-4 -4h-8v12l-4 -4h-4q0 12 -8 12q-321 -378 -568 -568q-12 -20 -32 -20q-48 -35 -48 -44q-24 0 -68 -36q-15 0 -80 -40l-92 -36q-76 -16 -120 -16l-4 4l-8 -8h-16l-16 8l-64 -4q-156 34 -156 52h-24v8l-4 -4h-4l-8 8l4 4q-16 0 -16 8l-4 -4h-12 q-58 38 -80 72q-12 0 -12 20l-24 8v8h8v4l-16 4l4 4v4q-144 209 -144 396l8 8q-8 0 -8 24h-8zM-1601 -701q0 -91 68 -256q91 -190 248 -264q78 -28 164 -44l4 -4h20l48 4v-4l24 8h16l4 -4q11 8 60 16v-4q41 18 96 28q0 14 68 32l16 12l52 28q3 14 44 28q36 36 76 56 q315 262 532 540l-4 12l-4 -4h-4v8l-4 -4h-4l-12 4v4h8v4h-4l-12 -4l-4 4v4l4 4q-16 2 -16 12l-4 -4h-4v8l-4 -4h-4v8l-4 -4h-4q-6 0 -12 16h-8v4l-4 -4h-4l-8 8l4 4l-20 8v-8q-8 0 -8 12l-4 4h-4l-4 -4l-4 12l-4 -4h-4l-36 24h-4v-12l-20 16h8v4l-12 4l-24 -4l-32 28h-4v-4 h8v-8h-8q-11 0 -12 20h-8v-8h-4q-12 0 -12 16h-4v-8h-4l-16 12l-4 -4h-4q0 8 -20 8v4l4 4v4h-4l-4 -4l-4 4q0 6 -36 12v-8h-4v12h-8v-8h-4v12h-8v-8h-4q0 16 -24 16q-63 24 -116 32v-12l-8 8l4 4v4q-227 52 -288 52v4l-12 -4l-64 4h-32v-4h16v-8l-12 -4q-12 0 -12 12h-48 l8 -12l-4 -4h-4l-4 4h-4l-4 -4v8h8v4l-16 4q-12 0 -12 -16l-4 -4h-8v4l4 4v4h-16l4 -4v-4l-8 -8h-4v12q-32 0 -32 -16h-4v8h-4q-8 0 -8 -12h-4v8h-4q-8 0 -8 -12l-4 4h-8v-8h-4l-4 4h-4v-8h-4l-12 4q0 -6 -40 -28l-12 4v-4q-171 -93 -252 -304zM-1021 -221h44v-8h-12l-28 -4 l-4 4v8zM-937 -225h8l8 -8l-4 -4h-12v12zM-845 -245l8 8l4 -4v-4h-12zM-801 -249l4 4h4v-12zM-641 -285l4 4h4l4 -4v-4l-4 -4h-4l-4 4v4zM135 67l4 -4h36q88 0 260 148q18 0 56 60q44 47 44 80l-4 12l12 8l4 -4h4v8l4 4l-4 4q-19 -1 -60 -28l-4 4h-4q-2 -9 -36 -20 q0 -7 -36 -16l-4 4q-56 -54 -136 -92q-15 -24 -36 -24l4 -4v-8q-12 0 -48 -36q-9 0 -40 -60z" />
<glyph unicode="h" horiz-adv-x="771" d="M-51 18v4l8 8h4l4 -4h4q0 19 8 28l-12 16v4q4 12 24 12q8 -14 24 -20l8 8l24 -8v-8h-20l-4 4h-4l-4 -4v-4h8q308 176 580 494q28 63 240 436l28 40q5 27 40 68q12 10 36 64q10 0 12 16q16 0 20 24q16 0 60 80q122 143 160 172q53 43 108 60l4 -4q52 -21 52 -60 q0 -62 -104 -224l-196 -240q0 -12 -48 -56q-73 -98 -120 -136l-88 -104q0 -7 -40 -36v-4l-4 4h-4q0 -26 -80 -84q0 -7 -44 -32q-52 -61 -52 -72q-37 -67 -40 -92q-16 0 -16 -36q-8 0 -28 -48q-7 0 -20 -48q-13 0 -40 -80q-13 -16 -24 -56l-12 -12v-20q152 212 208 280 q14 35 116 124l-8 8v4h16q0 -12 16 -12l20 -20v-8q-12 -60 -84 -260q-20 -67 -20 -128q4 -32 16 -32h8q25 0 89 53h3q22 0 22 -15.5t-22 -46.5l-64 -43l-16 -16h-24q-44 10 -44 32q-24 0 -24 60h12v8q-12 0 -12 8l4 4v12l-4 12h4l8 24l4 4l-4 12l4 4h4l-4 4v4l8 8l-4 4v4 l8 8l-4 4v4q10 32 16 32l-4 4v4l16 32l-4 4l4 4h4l-4 4v4l32 84l-4 4v4l4 16h-8q0 -7 -56 -60l-276 -388l-4 -4h-16q-7 0 -12 24h-20v12q60 128 76 148q0 15 24 52q0 11 40 80q0 24 24 52q0 31 20 44q0 14 20 40q0 17 20 36l12 28h-4l-119 -151q-331 -296 -413 -307h-16 q-9 0 -20 28q-16 0 -16 12zM613 36l4 -4h4v12zM657 600q9 0 72 64q19 0 32 32q9 0 20 20q19 0 32 32q56 36 96 100q63 56 112 128q0 12 28 28q87 104 136 184q98 137 116 208h4l-4 4l4 20l-4 12h-28q-51 -17 -104 -68q-40 -36 -40 -44q-119 -123 -124 -152q-8 0 -32 -48 q-34 -29 -52 -76q-44 -50 -44 -72q-16 0 -108 -172l-112 -196v-4zM761 472v8h4l8 -8l-4 -4h-4z" />
<glyph unicode="i" horiz-adv-x="180" d="M-37 31v16h4l4 -4h4v8l-8 12q68 186 180 324h-4l-12 -8h-4q12 12 12 28l24 24h4l12 -12v-8l-8 -12h16q0 11 20 20h4l12 -12q0 -9 -20 -12l4 -20v-8l-12 -16l4 -20q-47 -23 -72 -52q-92 -133 -108 -232q6 -16 12 -16h24q47 0 127 54h16l16 -16v-16l-16 -16l4 -4v-8 q0 -12 -24 -12q-79 -50 -163 -50q-16 0 -40 36q-12 3 -12 32zM223 363v4l4 4h4l4 -4v-4l-4 -4h-4zM223 587v8q14 26 104 128h4v8l-8 12l4 4h8q0 -16 8 -16h8q13 0 24 68h4l4 -4h4l4 20l-4 4v4l8 8l12 -4l4 4h4q17 -5 24 -20v-8q0 -43 -104 -180q-8 -40 -28 -52l4 -12 q-8 -18 -16 -20l4 -20l-8 -8h-20q-8 0 -8 32l-12 -8l-12 12l8 40l-12 -8h-4zM243 635v12h8v-12h-8z" />
<glyph unicode="j" horiz-adv-x="155" d="M-1143 -1289h8v-12h4v64l4 4l-4 4v8l4 4l-4 4q0 36 84 160q84 91 140 96q0 19 104 52l24 4l4 -4q0 12 36 16l4 -4h4l72 24l28 -4l16 8l64 -4l12 8h28l8 -8l88 8l20 -8q44 4 44 48q58 104 176 396q185 427 208 528q5 24 -20 -24h-20q-10 0 -12 16l8 20h-4l-12 -8h-4l-8 8 v4l28 36q-10 0 -12 16q0 10 36 32l4 -4l-4 -4v-8l152 328h12q28 0 28 -28q-47 -145 -64 -152l4 -4v-12l-16 -20q-43 -104 -104 -292q-176 -456 -368 -880l4 4h8q52 0 52 -12l4 4h12q14 -12 88 -20l24 4q0 -9 20 -12l24 4q0 -15 176 -44q203 -52 384 -88l24 4q0 -17 312 -48 q193 -20 352 -20l16 -4l12 4l36 -4l4 4l16 -4l116 4v-4l12 4q345 0 740 136q203 95 324 188q131 100 232 236q112 180 112 252l8 80q-20 120 -40 120q-23 54 -88 100l-48 24v8h-20q-24 12 -24 24h-24q-116 52 -256 52l-8 -8h-16q-20 0 -20 8l-52 -12l-4 4h-4 q-241 -50 -420 -184q0 -8 -32 -24q-8 -22 -36 -40q-44 -77 -44 -104l-24 -24l-8 8l4 4v4q-11 0 -16 36l4 4h4l-4 4v4q22 51 104 124q7 21 44 36q213 140 396 168q32 12 32 20l40 -4h16l12 8h24l16 -8q93 0 204 -28l16 4q17 0 64 -28q35 0 168 -120q23 0 52 -80q7 0 12 -20 l-4 -20l4 -68q0 -129 -48 -204q-179 -367 -652 -568q-354 -140 -892 -140q-309 0 -716 60l-20 -4q-25 16 -232 56q-207 52 -336 76l-16 -4l-28 12l-16 -4q-14 13 -88 20l-16 -4l-96 12q-50 -120 -264 -468q-42 -41 -52 -72q-116 -136 -180 -136l-4 4v4l4 4h-16v-12h-8v12 l-48 -4v-4h8v-8h-12q-21 0 -52 32l-8 -8q0 12 -24 12l-64 60v4h8q-56 88 -56 172h-4v-8h-8v32zM-1091 -1261v-12q0 -199 148 -252l52 -8q78 13 124 52q109 107 116 136q13 0 84 120q111 177 180 324l-4 4l-28 -4h-36l-12 8h-32l-12 -8l-76 4q0 -8 -12 -8l-44 4 q0 -12 -44 -12v4l-80 -24l-4 4q-1 -8 -80 -36l-56 -24q0 -12 -36 -24q0 -11 -20 -20q-128 -112 -128 -228zM-851 -1565v-4l12 -4v8h-12z" />
<glyph unicode="k" horiz-adv-x="788" d="M-50 29v4l140 204l20 32v1l88 148q14 11 16 11q132 160 208 316q26 27 40 68l92 144q96 154 104 184q7 0 20 36q24 6 24 40q8 1 100 160q85 117 224 268q41 20 68 20q24 -7 24 -48q0 -132 -292 -488q0 -9 -44 -56q-7 -21 -60 -76l-132 -180l-80 -84q0 -22 -108 -136 q-8 0 -28 -36q-14 0 -24 -32l-28 -24q-25 -15 -52 -68q-15 0 -32 -48l-56 -84v-4q120 40 136 52q0 8 12 8l120 76q132 74 132 108h12l-4 28v12l12 12h8q8 0 8 -24l16 -4q4 24 12 24h8l12 -12v-4l-20 -20l4 -4v-8q-23 -68 -40 -68q-75 -58 -128 -84q0 -6 -64 -32l-4 -4l-4 4 h-4q-19 -3 -32 -20q-14 0 -40 -20q-18 0 -48 -24q-47 -20 -68 -40l-8 8h-4v-4h8l-8 -12q60 -48 168 -156q126 -80 228 -80h24q121 16 159 31q44 8 29 -35v-4h-8q-21 0 -36 -12l-8 8q0 -6 -48 -20v-8h-4v8h-16l4 -4v-12q-8 0 -8 12q-8 0 -8 -12l-4 -4h-4v12h-16l4 -4v-4 l-8 -8h-48v8h4l4 -4l28 4v4h-52v-4h8v-8h-28v12h16v4h-28l4 -4v-8h-4l-8 8l4 4v4l-84 20h-8v-4h16v-8h-4l-4 4l-4 -4h-4q-52 16 -52 40l-4 -4h-12q-7 0 -12 20l-4 -4h-12q-94 74 -136 120q-80 56 -108 60l-80 -124l4 -4v-4q-46 -80 -56 -84h-12l-8 8v8l4 4v4l-4 4h-4l-12 -4 zM406 657h4q0 12 12 12q10 30 64 72q91 122 172 212q72 92 88 124q40 30 40 56q13 2 40 52l56 76q85 108 172 276l-4 4v4q10 32 16 32l-8 16q-103 -70 -216 -232l-128 -196q-16 -41 -80 -120l-128 -228l-48 -68q0 -25 -32 -52l-20 -36v-4zM658 541l4 4h4l8 -8v-4h-8z" />
<glyph unicode="l" horiz-adv-x="445" d="M-41 19q2 1 5 3l173 164h-14l14 23h-4q98 253 98 275q16 17 102 182q28 34 28 61q27 14 38 56q61 66 98 140q0 28 205 219q44 28 93 28q33 -36 33 -70v-5q0 -88 -98 -242q-7 0 -28 -51q-13 0 -79 -117q-10 -37 -28 -37l-112 -150q0 -12 -38 -60q-21 -14 -200 -210 q-64 -53 -66 -79q0 -136 112 -136q92 0 162 50q34 -1 34 -21q0 -14 -15 -36l-3 3l-66 -38l-60 -23l-24 5q0 9 14 9v5h-88v-10l4 5h10v-9l-33 -5l-84 79v5l14 -9q-19 32 -23 71h-5q-117 -96 -146 -96l-3 -3zM189 223q186 176 186 205q10 0 56 66q110 113 154 200q14 1 79 122 q0 12 28 51q0 20 24 37l42 112l-5 5l9 9l-4 5l4 4h5l-5 5v14h10v9l-14 24q-92 -28 -177 -140q-9 0 -61 -70q-14 0 -61 -84q-15 -32 -56 -75q0 -18 -37 -60q-89 -157 -89 -182l-46 -98l-38 -108l5 -18zM277 -43l5 5h14l9 -9l-4 -5h-14z" />
<glyph unicode="m" horiz-adv-x="537" d="M-34 16q0 12 24 12q0 25 40 36q92 89 140 308l4 28l-4 12q16 5 16 24l16 12h20l16 -16v-4l-44 -212q121 157 164 176l-4 4v4h4q27 0 44 -40q0 -32 -100 -244v-4q46 67 176 184v4h4q44 -19 44 -40q-88 -188 -88 -248q6 -16 12 -16q36 0 92 52q18 -9 18 -26q0 -16 -16 -39 q-63 -47 -86 -47l-32 -4q-9 0 -24 24q-16 0 -20 52h4l-4 4v12l8 8q0 -40 8 -60h4v4l-16 72l16 24h4v4l-4 4v4l4 4h4l-4 4v4q36 84 36 100q-63 -54 -188 -224h-4q-24 0 -24 16l4 12h-4l-16 -4l-4 4v4q8 36 112 256l16 40v4h-4q-119 -119 -184 -256q-44 -141 -60 -152 q0 -20 -8 -20h-12l-8 8v20h-8l-4 -4h-4l-4 4v16q29 41 68 156h-4q-36 -71 -72 -96h-32l-8 8v12l4 4v4h-8l-12 -4zM-14 68v4l8 8h4l16 -4l16 4l4 -4v-4l-32 -12h-8z" />
<glyph unicode="n" horiz-adv-x="706" d="M-20 -15.5q-11 11.5 13 57.5q67 35 157 140q112 107 157 182l28 56l-4 4q8 0 8 12l12 4l-4 4v8l4 -4h4q0 12 8 12l-4 4v8l4 -4h4l12 16v4h-8v4q3 24 12 24h4q8 0 8 -20l24 -4q0 12 8 12h4v-12h-8l8 -24q0 -25 -68 -112l-28 -72q180 169 248 172v4l-4 4v4l4 4 q52 -24 52 -52q0 -39 -84 -224q-20 -44 -20 -88q0 -52 64 -52h8q33 0 116 32q9 -17 9 -30q0 -33 -49 -50q-50 -20 -68 -20l-24 4l-20 -4q-50 0 -96 80q2 16 12 16v24h-8v4q0 51 88 244l8 28q-89 -15 -264 -200q-62 -120 -112 -192q0 -15 -24 -32h-12l-12 12v12l8 12h-8 l-12 -8l-8 8q0 13 28 48l-8 8v4q31 37 52 48q31 50 56 120v4h-4q0 -17 -133 -142q-89 -95 -108 -104t-30 2.5z" />
<glyph unicode="o" horiz-adv-x="424" d="M-40 72v8h12l-4 12q10 87 164 256l-4 24l12 12h8l12 -8q24 32 72 32l44 -4l8 8v-4l-4 -4v-4h8l4 4h4l40 -28h4v12h8q24 0 24 -32q44 -53 44 -88q0 -79 -108 -184q-13 -20 -24 -20v-8q50 -40 96 -40l76 16l12 -16v-16q-30 -38 -52 -40l-12 4v8h8v4h-16q0 -16 -8 -16h-12v4 l4 4v4l-28 4h-16v-4h12v-8h-28l-4 4q-45 32 -52 48q-16 0 -16 16l-72 -36l-4 4l-8 -8l-4 4l-4 -4v-4l-4 4h-4l-12 -8h-12l-8 8l4 4v4h-52v-4h8v-8l-20 -4q-39 0 -72 40q-20 11 -20 32h8l8 -20h4v4q-10 32 -16 32l-4 -4zM20 72q10 -28 84 -28q51 0 108 28v4q-21 35 -48 56 q-20 27 -20 44h4l-16 48h8l12 -48h4v12q-16 37 -16 68l-8 -8l4 -16h-8l-4 40q-104 -111 -104 -192v-8zM132 260h4v20h-4v-20zM184 272q0 -75 64 -172h4q83 56 104 128h4l-4 4v8l4 4l-12 48h-4q0 -12 -8 -12h-20q-7 0 -12 28l-4 -4h-8l-8 8v20l-40 8q-32 -2 -32 -24h-4l-8 8 h-4l-12 -12l4 -12l-4 -20v-8zM356 -32l4 4h4l8 -8l-4 -4h-4z" />
<glyph unicode="p" horiz-adv-x="707" d="M-363 -928l70 148q52 121 147 256q179 354 408 717l-1 9l-79 -71l-39 -55l-79 -69l-11 8l-11 -21l-9 -2q-49 7 -49 26q0 12 20 29q75 35 108 60.5t106 116.5q57 58 71 60q9 36 41 41q-2 16 97 133q-4 24 36 40l5 1l22 -16l3 -18q-7 -48 -100 -143q2 -9 -101 -133 l-208 -350l5 1l61 88q5 19 45 46q54 71 100 114q-3 19 29 25q-5 30 161 153q22 4 34 25l78 48l27 14l28 5q54 -6 56 -19l2 -9q2 -12 2 -24q0 -96 -128 -220q3 -14 -16 -17l-28 -34l1 -4l14 2l46 13l38 2l56 7q5 1 9 1q31 0 31 -32q0 -8 -2 -17l-193 -25l-23 -9l6 -3l1 -5 l-8 -11l-11 8l4 5l-24 1l-45 -18l5 -4l1 -4q-41 -8 -54 -48l-6 3q-10 -1 -41 -36q-24 -4 -21 -18l-6 4l-4 -1l-112 -77l-17 -13l-5 4l-5 -1l-13 -7q-27 -5 -38 22q-24 0 -25 10l3 6h5l2 -9l4 1v5l-8 13l3 15q-95 -122 -130 -192q-129 -192 -181 -340q-10 -1 -59 -130 q-42 -86 -38 -108l-23 -9q-8 -1 -20 30h-4l-8 -11l-6 3zM186 -167l5 1l101 52v4l-14 -2l-14 -7l-7 13q-9 -2 -6 -20l-9 -2l-1 5l4 5l-1 5l-9 -2l-12 -16l-15 2zM202 -68l1 -4h5q50 24 122 41l6 -4l5 1l26 15h5l5 -3q9 11 50 18q212 187 220 279l-7 14l-31 -16l-7 14l-5 -1 q3 -19 -6 -21l-9 -1l-2 9l-23 -4q2 -14 -35 -21q-5 -21 -50 -47l-20 -23l1 -4l-5 4l-10 -2l6 -4l1 -4q-51 -33 -88 -78l-14 2q4 -24 -29 -29q-6 -21 -69 -75zM293 -90l2 -14l45 22l-1 5l-24 -4z" />
<glyph unicode="q" horiz-adv-x="923" d="M-1579 -762q12 15 12 28l-4 4h4l-4 4v4l8 12l-4 4l4 4h4l-4 12q60 148 180 148q164 -34 164 -56v-16q-8 -16 -24 -16l4 -4v-4l-4 -4h-4l-92 40l8 8h-16l4 -4v-8l-20 4l-12 -4l-36 4l-12 -8l-4 4h-4l-8 -8l-4 4q-72 -44 -72 -96q-6 0 -16 -76q0 -223 252 -316q24 0 24 -12 l4 4h4q48 -8 60 -20l16 4q61 -20 132 -20l32 4l8 -8h116l32 8l12 -8l52 12l8 -8l28 12l40 -4l32 12l12 -4l8 8l36 -4l12 12l20 -4l144 40l12 -4q128 40 172 64q37 0 96 36q33 0 72 28q28 0 100 40q0 8 48 20q0 12 32 12q25 28 60 28q0 11 68 32q28 25 92 44q0 19 52 28 q0 12 56 24q76 36 76 64q31 244 85 494q32 45 32 88q12 0 12 12l-4 24q72 129 72 172q11 0 28 56q11 0 20 36q13 14 24 60h8v4h-8q-34 -44 -64 -64q-4 -18 -24 -32q0 -10 -164 -180q-87 -60 -124 -60q-76 23 -76 76h8l4 -24h4v4l-4 44l-4 -4h-8v8q39 101 88 168v4h-4 q-57 -47 -88 -52q0 -12 -16 -12q-15 -16 -32 -16q0 -16 -24 -16q-63 -51 -140 -100q0 -5 -36 -16l-4 -4h-16l-4 4h-4q0 -16 -24 -28q-18 -22 -29 37q18 5 37 11l12 -4q0 19 96 64q31 23 80 44q27 32 44 32q0 16 24 16q0 16 24 16q0 15 108 72q17 0 84 56l36 24q23 0 40 20 q13 0 108 56l40 12v-4q79 46 216 92q28 56 56 56h4q28 0 28 -24l-4 -20h4l12 4l-8 -8l8 -24q-5 -16 -20 -24l4 -4v-8q0 -12 -80 -32q-34 -7 -72 -100q-16 -10 -124 -240l-16 -8l4 -12l-44 -92q0 -21 -32 -76q0 -22 -16 -36l-93 -398l-20 -148h4l60 20q33 32 56 32h12 q0 18 64 32q0 15 56 20q0 17 44 24h16q0 20 212 76l24 -4q0 18 172 32l4 -4h4l24 8h80q92 0 92 -12l4 4h4q142 0 268 -116q100 -142 100 -244l4 -12l-4 -16q12 0 12 -92v-56q0 -20 -8 -20l4 -20v-8q0 -20 -8 -20l4 -4v-4q0 -27 -12 -60l4 -4v-4q-10 -64 -32 -64v-12l8 -12 q0 -28 -20 -28l4 -20q-13 -52 -32 -52l4 -4v-4q-9 -41 -68 -120q-31 -60 -128 -156q-27 -30 -56 -40q-21 -27 -76 -52l-36 -32v-4l-4 4h-8q-35 -26 -80 -32q0 -12 -52 -16v4l-28 -16l-76 -8l-20 4l-40 -4q-95 0 -184 44q0 8 -56 24q0 8 -16 8q0 16 -20 16q-6 16 -12 16h-4 l-4 -4h-4v8q-9 0 -52 56q-24 0 -24 20q-9 0 -48 52q-36 51 -84 164q-13 0 -52 176q-12 29 -28 156h4l-4 4l-4 180l8 140q-17 0 -112 -56l-44 -24q-25 0 -80 -36q-23 0 -84 -40q-11 0 -52 -24q-16 0 -44 -20q-11 0 -52 -24q-24 0 -112 -48q-23 0 -68 -28q-42 -4 -104 -40 l-24 -4v4l-152 -52q0 -5 -56 -16l-4 4h-4l-100 -28l-16 4l-32 -12h-4l-4 4l-20 -8l-16 4q-30 -4 -40 -12l-40 4l-4 -4v-4l-40 4h-4q-20 -1 -20 -8l-40 4h-96l-36 -4l-108 16l-12 -4v4l-4 -4h-4q-160 28 -220 60l-4 -4v-4q-40 19 -40 32v4l-4 -4q-24 8 -24 16l4 4l-4 4l-4 -4 h-8q-52 44 -52 56l4 4q-72 95 -72 208l4 12q-2 16 -12 16v4zM-1523 -982l8 -8v-4l-8 8v4zM-1415 -590v-4h24v4h-24zM-1367 -590l8 -8l8 8h-16zM362 36q0 -14 28 -20q70 0 216 160l76 76q0 17 60 76q9 16 24 16q0 16 28 32l16 28l-4 4h-4l-88 -32v4l-24 -8l-8 8 q0 -17 -60 -32q0 -13 -28 -16l-8 -8l-4 4h-4v-8q-21 -6 -124 -96q-92 -99 -92 -184v-4zM501 -906q0 -226 76 -436q12 0 12 -32q18 -53 132 -200q8 0 16 -24l84 -60q57 -29 72 -44l100 -28v-4l4 4h4q36 -5 36 -12l4 4h36l32 -8q9 7 92 16l12 -4q25 16 132 52q0 11 68 32 q31 36 48 36q157 157 192 220q68 116 68 140q11 28 28 28l-8 12v12l20 20v4l-8 28l8 8l-4 4v4l16 40l-4 4v4l8 28l-4 -4h-8q16 17 16 32v8l-4 -4h-4v12q8 0 8 20l4 4l-12 36v4h4l4 -4h4v4l-4 44h4l-4 12l4 4l-8 56l8 16q-9 12 -36 120l-20 44h-8l4 4q-9 28 -16 28l-12 -4v8 h8v4q-17 0 -56 56l-96 48q0 20 -36 20q0 -12 -8 -12v8l4 4v4h-12q0 -12 -8 -12l-4 4v4l8 8q-26 0 -64 12l-4 -4l-112 8h-32v-4h64v-8l-12 -4l-4 4h-4l-4 -4l-20 4h-24l-4 12l-4 -4h-4l-24 8q0 -8 -12 -8q-132 -7 -132 -24v-4h-4v8h-28l-4 4h-4q0 -12 -36 -16v-8l-12 4 l-124 -40v-4l-4 4h-8v-8l-4 4h-4q-44 -9 -60 -24q-16 0 -84 -32l-60 -28q-12 0 -48 -24q-24 0 -108 -52zM1401 -482l8 8h4v-8h-12zM1441 -482l4 4h8v-12h-4z" />
<glyph unicode="r" horiz-adv-x="423" d="M-40 36l20 16q6 22 28 28h-20h-4l-8 12l69 24l59 48v-12q-10 -39 -52 -104q12 0 12 -8q-27 -7 -44 -40h-28l-12 12l12 20l-20 -4h-4zM80 456q32 44 40 44l36 4l-4 -4v-4q23 0 32 -64q78 0 244 132l20 28l-8 8l8 8h8v-8h-8v-4h12l4 4h4q24 0 28 -32q0 -16 -16 -24l4 -4v-4 q-50 -36 -116 -124l-68 -128q-29 -88 -36 -88l4 -28v-20l-4 -16q19 -68 56 -68h16l88 32q0 8 21 15q2 -7 2 -14q0 -49 -103 -93h-12q-69 0 -92 48v4h8v-8h4v8q-13 8 -24 64l4 4l-4 20v40l8 8l-8 16l12 32l-4 4l4 4h4l-4 4v4l88 172h-8l-44 -24q-30 -28 -68 -28l-4 4 q0 -8 -16 -8l-4 -4v-4q8 0 8 -12l-8 -12l4 -4v-4q-12 -20 -24 -72l-20 -4l-12 12v4l4 28l-16 -12h-4q-8 0 -8 12l28 64h4v12q-11 0 -44 36q-10 0 -16 44zM92 440l4 -16h4v8l-4 12h-4v-4zM100 504l12 8v-4l-4 -12zM196 304v12h4l8 -8l-8 -8z" />
<glyph unicode="s" horiz-adv-x="370" d="M-99 -292l1 8l10 6l3 -4l1 7l-8 2l1 4q9 49 117 133q77 52 171 92l-4 5l2 8l8 -2l1 8l-8 2l2 8q11 -3 16 21l-8 1v4q15 13 18 34l-7 1v4l15 14l4 23l-8 2l2 8q14 12 18 33v4l-8 1l2 12q12 -2 14 6l5 31l-8 2l2 12q12 -2 14 5l5 32q-120 -132 -153 -136 q-117 -111 -148 -125q-41 7 -41 31q0 15 16 36l69 30q121 75 158 107q126 142 130 161l-8 2l1 8l8 -2l1 4l-2 13l8 -2l1 8l-8 1l10 7l-4 5l2 7l9 7l-3 5l1 4q82 198 192 262l46 8l8 -1q22 -20 26 -37l-6 -32q-27 -93 -248 -305l-90 -326l134 64q12 2 20 2q23 0 23 -14 q0 -11 -14 -30l-135 -67q-52 -18 -54 -31q-92 -218 -197 -266q-23 -9 -50 -9q-15 0 -32 3q-19 9 -43 60l3 12l11 -2l-1 13l-5 -4zM-36 -283q-4 -22 14 -31q6 -1 13 -1q80 0 165 177l4 -1l-4 5l1 4l6 11q-185 -84 -199 -164zM366 389q124 117 164 215l-4 1q-55 -13 -125 -132 z" />
<glyph unicode="t" horiz-adv-x="301" d="M-4 2q-10 6 -9 14q1 14 33 36q50 32 221 281l120 152l20 28q0 16 12 28v8h-36q-5 -8 -48 -8v-4h8v-8h-20l-8 8l8 8h-20l4 -4v-8l-16 -4q0 8 -20 8v4l-4 -4h-8q-86 30 -120 92q-16 7 -16 28q0 8 24 16l4 16l-12 20l12 16h8l8 -8v-8l-8 -12h28q0 24 8 24h8l12 -12v-4 q-20 -15 -20 -32q16 -88 176 -88q0 -7 56 -12q24 11 64 88q7 0 28 40q14 0 40 60q27 18 48 68q8 0 28 40q13 2 40 52q100 140 264 332l16 4h8l16 -16v-12q0 -32 -188 -264l-136 -192q-45 -65 -60 -72q-4 -18 -24 -32q0 -9 -60 -88v-4q224 10 224 24l32 -4q48 2 48 12l28 -4 l364 44v-4l4 4h4l180 16v-4l248 20l4 -4l20 4h84l16 -4l4 4l20 -4h100l48 -4l2 4l34 -1v-3l84 -12l24 4q4 -12 24 -12l1 1l28 -11q0 -1 -1 -2l4 -4l8 2l32 -14l4 4h12q7 -10 64 -28l48 -52v-12l-16 -16h-16q-8 0 -8 12l-4 -4h-8l-4 20l-12 -4l-4 4v8l4 4v4q-32 5 -32 24h-20 l-20 16l-4 -4h-12q-18 16 -36 16v-4l-1 -1l-28 8q3 5 5 9h-4l-16 -4q0 10 -101 22q-9 1 -19 2q-1 -2 -2 -3l-26 -2v5l-40 4h-96l-44 4l-4 -4h-4l-24 4l-12 -4v4l-4 -4h-8v4l-40 -4q-129 0 -308 -20v4q-335 -36 -508 -64v-4l-28 4q-52 -2 -52 -12l-28 4l-148 -12v4l-4 -4h-48 q-46 0 -60 -32q-24 -24 -24 -36q-40 -35 -56 -84l-24 -44q-76 -195 -76 -244q0 -72 64 -72l8 -12v-16q0 -12 -40 -12v-4h16v-4l-8 -8h-12q-29 0 -44 24q-36 33 -36 56l4 4h4q10 -36 16 -36v4l-12 44v40h-8l12 24l-4 4v4l27 104l-210 -273q-10 0 -38 18zM185 657v4l8 8v-4z " />
<glyph unicode="u" horiz-adv-x="416" d="M-10 100l29 98q15 17 30 36q53 130 98 169h12q22 0 32 -20v-8q0 -37 -86 -145q-40 -53 -48 -136v-4l4 -4v-4l-4 -16v-12l16 -12q60 0 313 367h-8q4 24 12 24q8 -20 36 -20q0 12 8 12l4 -4v-4l-8 -8l4 -20l-93 -199l-24 -84l4 -4v-4l-4 -4q6 -44 20 -44h8q27 -2 54 18 q9 2 15 2q18 0 19 -18q0 -12 -8 -32q-20 -12 -28 -22q0 -11 -60 -16h-8q-35 0 -72 72l8 80h-8q0 -11 -76 -92q-77 -68 -108 -68h-8q-33 0 -48 28q-20 10 -20 36l4 4l-4 4h-4l4 20v16h4l4 -4h4v12q-8 0 -8 20h-4q-3 -5 -7 -10z" />
<glyph unicode="v" horiz-adv-x="369" d="M-25 283l24 28l-8 8q2 32 32 32l4 -4q51 111 168 208v16h4q14 -14 36 -20l8 -24l-108 -228q-64 -168 -64 -268l4 -4h4l-4 -4v-8h4h6q79 0 189 235q-6 37 5 49l-8 8l4 12l-20 20v12l8 8h4l4 -4h4l4 20q0 26 -16 44v8q12 0 12 16q6 20 28 20q28 0 36 -68l-4 -16l4 -4v-4 l-4 -16v-4h4q0 12 8 12q0 -40 76 -40h16q5 0 10 1v-6q0 -63 -61 -63h-5v4l-64 20q-88 -194 -188 -308l-44 -24h-4l-4 4l-4 -4h-4q-20 0 -36 28q-15 0 -20 44l4 4h4l4 -4v24h-8v12l8 8l-4 4v16l12 16l-4 4v4l4 12l-4 4l8 8l-4 12q8 0 12 28l-4 4q7 0 12 20l-4 4l8 8l-4 4v4 l12 12l-4 4v4l20 56l8 8l-4 4l48 112q7 0 12 24v4h-4l-84 -128l4 -20v-4q0 -9 -20 -12v-4l4 -4v-4q-8 0 -20 -36h-24q-8 0 -8 24h-4q-27 0 -16 28zM23 11q5 -20 12 -20l-4 24l-4 -4h-4zM279 467v4l8 8h4v-12h-12z" />
<glyph unicode="w" horiz-adv-x="1021" d="M-50 11q27 23 95 101l8 12l-1 2l-2 4l27 25v-3q14 14 29 31q47 52 103 129l-4 4q8 0 40 36h4l20 -4q0 12 8 12h8v-4l-12 -12l8 -16q0 -16 -80 -124q-56 -117 -56 -172l8 -8l-4 -4l4 -4q85 0 304 328q12 7 56 72l-8 8q9 24 16 24h4l8 -8v-4l-4 -4v-4l24 -4l12 12l4 -4v-4 l-12 -4l8 -12v-12q-15 -41 -140 -248l-72 -144q-9 -56 -28 -56v-12q-34 -132 -48 -144l4 -16q-9 -64 -16 -64l4 -4v-20q0 -20 -8 -20l16 -88q22 -58 68 -80h28q112 0 240 224q32 52 32 68q8 1 24 40l12 16l-4 4v4q36 62 44 112q44 95 44 128l-4 4v4l4 12q-68 117 -68 208 l-4 -4h-8l-4 16q11 0 16 24l-12 12q48 172 140 172v4h-8v8h16l48 -36l4 16l16 -20v-12q0 -8 -16 -8v-16q-26 -174 -40 -200l4 -4v-4l-32 -108l4 -4v-4l-8 -36q84 -96 192 -96h68l4 -4h4q0 1 2 2l-1 -35l-21 -3l4 -4v-8h-16l4 4v4h-64v-4h12v-8h-4l-4 4l-4 -4h-8l-28 8v4h32 v4l-44 4l4 -4v-4l-4 -4h-4q-68 11 -148 92q-8 -40 -16 -48l4 -12q-22 -76 -44 -108q0 -29 -32 -80q-23 -89 -148 -260q-81 -93 -148 -116l-4 -4h-4l-12 4l-8 -8h-16l-8 8l-4 -4h-8q-29 0 -84 64l4 4v4q-36 68 -36 128v4l4 24l-8 24l4 -4h4l4 28l-8 8l8 16l-4 4h8v4l-4 20 q8 0 16 32l-4 20q5 0 40 120q16 0 16 40q14 40 28 40l-4 4v4q0 18 48 112v4h-4q-118 -173 -196 -196l-16 4l-28 -4q-40 41 -40 56v32q0 22 24 72v4q-112 -122 -147 -122q-14 0 -16 17zM97 12l4 -12h4l-4 44h-4v-32zM225 360v4l8 8h4l8 -8v-4l-8 -8h-4zM241 -468l4 4h4l4 -16 h-8zM685 288v4l4 4l-4 4v8h8v-20h-8zM701 240h8l8 -32h-8zM737 344q0 -59 48 -168q7 0 16 40l-4 4v4l20 100l-4 12q8 0 8 12l-4 4v4l8 16l-4 4v4l8 24v4h-8v4l8 8q0 31 -24 56q-68 -30 -68 -132zM761 540v4l4 4h8v-4l-8 -8zM901 464v20h4l8 -8v-12h-12zM925 -4v-8h4l8 8h-12 z" />
<glyph unicode="x" horiz-adv-x="671" d="M-795 -239h12v12h-8v20h4l4 -4h4v20h-8l12 44l-4 4v4q46 132 108 188q11 12 52 24q9 24 36 24l8 -12v-8q0 -12 -28 -12l8 -12v-12l-16 -16l4 -4v-16q0 -11 -52 -20q-64 -80 -64 -132l-16 -84l4 -4v-32q0 -132 168 -188l68 -8q103 0 260 84q90 60 104 60q0 21 56 44 q18 22 108 84q37 50 108 92q292 260 292 268l4 32h-8l8 12l-8 24l12 4l-8 16l8 16l-4 4l12 52l-212 -196q-146 -124 -224 -124h-12q-19 0 -30 17q-2 3 -2 7q0 16 38 40h22q104 0 440 348h4v8h-8v4l8 8q8 0 8 -16q40 0 40 -32q-28 -102 -40 -188q311 259 488 368 q326 214 660 352q126 56 316 108l8 8l32 -4l12 12l24 -4l32 12h20l4 -4l24 8h40q97 0 160 -52v-12q0 -7 -24 -20q0 -12 -8 -12h-4q-28 27 -76 32v12h4l16 -8v8l-28 4h-8l4 -4v-8h-4l-8 8l4 4v4l-48 4l-4 -4h-4l-32 8l-8 -8h-24l-16 4l-32 -12l-16 4l-24 -12l-16 4 q-202 -55 -400 -140q-285 -132 -632 -356q-200 -139 -436 -344v-4q0 -156 96 -156q41 0 92 28h8q18 -8 20 -16v-8q-23 -64 -136 -64q-66 0 -116 88l-16 56v8h8v-12h4v20q-12 0 -12 12q-283 -243 -300 -268q-43 -40 -72 -52l-92 -84q-16 0 -64 -52q-21 0 -80 -60l-4 4h-4 q0 -7 -28 -12q0 -16 -72 -44q0 -16 -40 -16l4 -4v-4q-48 -2 -48 -16l-4 4h-12l4 -4v-4l-8 -8v12h-4q-8 0 -8 -12h-4v8h-8q0 -12 -8 -12v8h-12l4 -4v-4l-8 -8l-8 8l4 4h-28l4 -4v-4l-8 -8h-52l-8 8l4 4h4l32 -4h20v4l-72 4l4 -4v-8q-72 8 -156 68q0 8 -48 48q0 14 -20 40h4 q8 0 8 -12h4v4q-20 51 -20 92l-4 -4h-12v4l4 4v4l-4 4v4l4 4v4zM-791 -291h8l12 -56h-4q-9 0 -16 52v4zM-667 65v8q0 7 28 24h4l8 -8v-4l-32 -20h-8zM-611 -487q0 -8 12 -8h4v4zM-591 29v4l8 8h16v-4l-8 -8h-16zM-571 -499l8 -8l4 4v4h-12zM433 69q7 -36 16 -36v8 q-12 21 -12 40h-4v-12zM505 425v8h4l8 -8h-12z" />
<glyph unicode="y" horiz-adv-x="338" d="M-1372 -380l1 8q0 7 25 18l10 19l-11 13l1 8l13 11l15 -5l13 3l3 -4v-8q-16 -1 -17 -11h4q30 13 45 12v-4q8 4 45 4q25 0 63 -2l75 -14l16 2l12 -9l20 3l8 -1q20 -3 19 -10l20 2h4l8 -9l4 4l12 -1l11 -9l25 2q-1 -11 78 -27l28 2l11 -13l24 1l27 -14l24 2q-1 -11 124 -51 q184 -68 559 -266v4q169 318 267 571l118 335l-6 25q9 -1 25 58l-3 12l9 7v4q-9 -3 -36 -45q-48 -44 -50 -72l-73 -90q-103 -128 -172 -128h-7q-20 24 -30 39v11q3 -4 6 -4v4l-5 22l1 70v4l-3 13q6 -1 14 15l-3 16l9 11l-4 5l19 26v4l-3 4v4l4 4l5 12l4 -1l-3 5v4l9 7l-4 4 v4l58 112l-3 4v4q1 10 36 49l-10 13l22 22l10 -13l-9 -15l24 -2q1 16 18 22l11 -13v-4l-18 -14l2 -21q-15 -32 -73 -110q-70 -157 -75 -214q4 -36 12 -37l12 -1q1 12 25 10q90 62 150 151q1 12 36 41l113 191q8 28 18 27l-3 4v4l20 42l-4 5l11 31l-4 4l1 4l18 23q2 28 34 25 q24 -2 21 -30l-68 -191l-9 -7l2 -16l-20 -47l3 -16l-78 -202q-99 -305 -227 -571l-125 -242q385 -202 665 -295q267 -79 489 -99q79 -7 152 -7q288 0 499 103q1 14 34 25q92 84 96 136h8l1 4l14 67l1 12q4 51 -100 193q-19 23 -105 85l-4 -3q-54 24 -52 53l25 5 q63 -18 140 -100l53 -73q54 -99 74 -119l2 -24l-4 -4h-4l6 -72h-4l2 -12l-100 -144q-6 -20 -44 -40q-1 -10 -33 -14q-104 -62 -317 -88q-138 -15 -185 -15h-13l-100 9l-32 -2l-32 7l-75 7l-4 4l-4 -3l-20 5l-60 6q-274 52 -544 160l-435 214q-32 -47 -39 -77l-80 -89 q-16 -38 -118 -110h-4l1 4l4 4v4l-8 1q-30 -19 -59 -19l-11 1q-1 -14 -106 -19h-4l-7 9l-68 6l-3 4l-5 -4l-39 12l-24 -2l-23 14l-20 -2q-48 12 -321 192q-145 118 -262 256l-76 95q-7 1 -17 34q-20 2 -25 42l2 16l16 3v4h-4l-24 -6zM-1314 -405v-4q6 -21 28 -46 q-2 -30 177 -225l116 -98q20 -2 30 -23q17 -1 45 -36l206 -126l12 3q56 -19 73 -35l32 1q-1 -16 59 -21l36 -3q13 -1 28 -1q38 0 89 7l3 -4l4 -1l58 23q23 -2 46 20q106 73 123 114q81 106 82 117q-358 191 -617 283l-51 17l-16 -3l-27 15l-17 -3l-14 13l-33 -1 q-14 14 -82 27l-20 -2l-15 9l-4 -3h-4l-87 16l-4 4v4l-4 -4l-16 2l-12 5l-60 1v-4l35 -7l5 4l-1 -8h-96v4q-77 -5 -107 -31zM-1222 -361v-4l16 -1v4zM183 368v4l9 7h4v-4l-9 -8zM357 296q9 0 14 19l1 4l-4 1z" />
<glyph unicode="z" horiz-adv-x="708" d="M-1501 -1048l8 12l-4 4v24l12 16l-4 20v4q12 10 36 112q20 11 20 36l12 12l-8 12l36 40v4q-16 0 -16 8v8q0 6 32 24h4v-4l-8 -12v-8q187 168 424 168h4q129 0 244 -60l48 -20l100 -76q18 0 68 -56l64 -52q10 -20 28 -20q13 -27 88 -92q210 112 432 276q310 239 464 472 q45 83 56 116l4 4h4l-4 4v4l20 52h-8l4 20v28h4l4 -4h4l4 32q-21 76 -56 76q0 20 -12 20h-24l4 -4v-8h-12v8l4 4v4h-36l4 -4v-4l-8 -8l-8 8l4 4h-20q0 -12 -8 -12v8h-4q-36 -7 -36 -20l-12 4v-8h-8v8h-4v-8h-4l-4 4h-4v-8h-4l-4 4h-4v-8l-4 4h-4l-36 -12h-12q0 -16 -20 -16 q0 -19 -52 -32l-68 -40q-35 -32 -56 -32h-8l-8 8v4l8 12l-12 4l-12 -4l-4 4v4q28 49 44 64q129 107 168 152h-20l-20 -12l-12 4v-4l-4 -4l-4 4h-4q-16 -4 -16 -16h-4l-4 4h-4l-12 -12v4q-12 0 -12 -16l-4 -4h-4l-4 4h-4q0 -16 -16 -16q0 -11 -50.5 -37t-100.5 -112l8 -8v-8 l-20 4q-19 -7 -34 -15h-8q-16 8 -16 20l30 55h4q169 164 323 221q49 16 72 16q32 -4 32 -32q-31 -65 -88 -104l-76 -64h4l132 52q107 40 156 40q148 0 148 -136l-4 -4l4 -20v-16q0 -64 -40 -128q0 -22 -184 -268q-304 -305 -468 -400q-230 -154 -312 -192v-4 q350 -340 480 -416q410 -280 892 -280q308 0 596 164q136 125 136 136l16 24q0 15 20 28q24 43 32 132h4l-8 20l4 4v4q-8 57 -44 120q-28 25 -52 64h-8l-4 -4h-4q0 16 -12 16l-4 -4h-4l-4 4v4l4 4l-72 40l-20 4v-4l-52 24v-4l-20 8l-16 -4l-20 8l-36 -4q0 12 -40 12l-8 -8 l-100 4q-23 0 -40 -12l-36 4l-32 -12l-16 4l-28 -12l-12 4l-60 -20h-4l-12 4l-84 -28l-52 -20q-20 0 -60 -24h-12l-12 12v16q3 15 64 20q0 20 40 20v-4l36 20l16 -4l100 32l4 -4h4q25 2 40 16l32 -4l12 12l24 -4q18 0 36 12l28 -4l76 4l8 8h40l12 -8h16l40 4l8 -8l40 4 q0 -11 48 -20l12 4q28 -2 64 -32l4 4h4q25 0 104 -64q69 -68 92 -136l-4 -12q11 0 16 -64v-4l-8 -8l4 -28v-8l-32 -88q-28 -68 -68 -108q0 -9 -28 -32q0 -17 -100 -80q-269 -168 -628 -168q-420 0 -808 232q-142 76 -432 344l-140 132q-359 -201 -656 -280q-30 -12 -156 -28 q-159 12 -232 40q0 18 -52 48q-16 11 -52 76q-17 0 -24 52zM-1461 -996l4 -24l-4 -16l8 -24l-4 -12q8 0 8 -20q7 -38 72 -92q0 -26 132 -64q112 -7 112 -12q180 24 336 88q187 67 460 212q-56 57 -88 76q0 8 -44 44q0 12 -20 12q-14 30 -88 72q-1 20 -56 44q-80 40 -80 48v4 h-12q-137 52 -240 52h-24v-4h48l4 -4v-4l-4 -4h-4l-4 4l-20 -4h-24l-4 4h-4l-4 -4v8h8v4l-20 4l-20 -4l8 -12l-4 -4h-12v12h-12q0 -21 -68 -28q-106 -48 -164 -88l-44 -44l8 -8l-4 -4h-8v12q-18 -11 -36 -56h-24l-16 -24q0 -14 -36 -80l-4 -20l4 -28zM-1285 -480l4 4h4v-12z M-1077 -620v-8l12 4v4h-12zM-909 -616h8l8 -8l-4 -4h-4l-8 8v4zM-873 -620h8v-4l-8 -8v12zM599 140v12h4l8 -8l-4 -4h-8z" />
<glyph unicode="{" horiz-adv-x="1014" />
<glyph unicode="|" horiz-adv-x="236" d="M53 43v12l8 8l4 -4v28l-4 48l4 -4h4q0 32 8 32l-4 40l16 96l-4 28l8 8l-4 24l4 4h4l-4 20q16 44 28 120l-4 20q8 0 16 32l-4 24q11 0 68 264l-4 12l4 24l-4 4h8v4l-4 16l8 20h-8l12 24h-8q12 17 12 32h-8v4q12 15 12 28v8h-8v12q12 14 12 40v16h-4v-16h-8q0 15 -16 28v4 l8 20h-4l-12 -8h-4q-8 0 -8 12l20 36l-4 4v8q0 28 24 28l-4 4v12h8l8 -8l-4 -4v-4q44 0 44 -44l4 -24h-4l4 -4l-4 -20v-4q0 -163 -52 -308l-48 -212l4 -24q-11 0 -16 -32l4 -24q-12 0 -28 -108l4 -24l-8 -12l4 -4v-12l-8 -12l4 -24q-12 -2 -12 -32v-4l4 -40l-4 -4h-4l4 -20 v-20l-8 -8l12 -172l-16 -12l4 -4v-4l-12 -12h-8l-8 8v4l4 4q-12 21 -12 40v8h-4l-4 -4h-4zM57 7v28h8l4 -28h-12z" />
<glyph unicode="}" horiz-adv-x="1014" />
<glyph unicode="~" horiz-adv-x="1014" d="M65 341v8l24 28l-12 20q3 15 32 28l4 -12q123 148 176 160q0 9 20 12l24 -4v8h4q0 -14 32 -20q24 -25 36 -168q0 -86 60 -152q37 -24 64 -24q68 0 168 56q24 0 64 48l80 56h8q0 15 64 76h16l12 -12v-20q-38 -49 -120 -108q0 -7 -40 -36l-4 4h-4q0 -9 -28 -16l-44 -36 q-15 -5 -24 -20l-16 -8l-12 4v-8l-4 4h-8v-8l-4 4h-8v-12h-4v8h-8v-12h-4v8q-64 -10 -64 -28l-16 -8h-4q-76 24 -76 36l-16 24q-20 0 -20 8v4h8q-42 35 -64 188l-8 76h-8v-4l4 -12h-8l-8 36l-4 -4h-16l-4 4q-126 -59 -184 -204l-8 -8h-16l-12 12l8 24l-4 4h-4q0 -12 -8 -12 h-4zM149 341v4l4 16h8v-16l-8 -8zM289 589l8 8h4v-8h-12zM477 185l24 -8l4 4v4l-24 4h-4v-4z" />
<glyph unicode="&#xa1;" horiz-adv-x="295" d="M32 -430q13 18 43 166q55 180 85 214l-4 14q42 82 114 328l28 104l-5 19q13 0 24 57l-5 19l19 90l-9 72l33 33l14 -14l-4 -5v-5q9 0 9 -14l14 9l5 -4v-5l-9 -10l-5 5v-5l5 -14l-5 -24v-19h9v-4l-14 -19l5 -15q-10 0 -24 -71q-9 0 -19 -52l5 -19q-19 -21 -114 -351 l-24 -57l5 -14q-24 -52 -38 -124l-10 -19l5 -5l-9 -9l4 -5l-9 -9l5 -5v-5l-10 -9l5 -5l-10 -10l5 -4l-5 -5h-4l4 -5v-9h-9v-5l5 -5v-5l-5 -4h-5l5 -5v-10h-10l5 -19q-3 -52 -14 -52l-5 5v-10q12 0 19 -52l5 5h5l14 -14q0 -10 -29 -19q0 -16 -23 -34v-4l14 9h9l10 -9v-10 l-14 -14h-10q-19 8 -19 33h-14q0 -28 -19 -28l-19 14v5q0 9 19 9l5 5v5l-19 9v5l4 5v4h-14v5zM379 947v19q44 93 66 95h24l10 -9l-10 -29h10l14 10l14 -15q-28 -27 -28 -42l14 -15v-9q-10 -19 -24 -19l-19 9q-12 -38 -19 -38l-9 10q0 9 14 9v5h-5l-28 -5z" />
<glyph unicode="&#xa2;" horiz-adv-x="493" d="M-59 -193l24 44l-4 12l24 28l4 -4h4l164 224q0 14 100 116q97 137 416 492q0 12 88 100q85 80 116 80h4l16 -16v-16l-16 -16l4 -4v-4q0 -10 -48 -20q-56 -40 -72 -60l-60 -60l-16 -4l4 -4v-8q-20 0 -176 -184q-264 -300 -300 -384l-124 -168q-92 -122 -92 -180l-24 -8 l-12 12v4l4 28l-16 -12h-4q-8 0 -8 12zM-45 10v12q25 67 96 147q0 8 32 37q0 18 60 76q-12 0 -12 8v4l20 17h4l4 -4h4l4 4l4 -4v-5l-4 -4v-4q63 62 96 71q0 17 80 63q26 19 72 29q0 25 88 41v5l-4 4v4h12l4 -13h8l12 5v-5q16 -11 16 -29v-4q-15 -20 -20 -46l-68 -12v4 q-16 0 -16 -17l-40 -16l-4 4h-4q-16 -4 -16 -17h-24l4 -4v-8q-40 -2 -40 -13l4 -4q-42 0 -120 -88l4 -4v-4l-44 -42h-20l-12 13q-44 -33 -44 -46l-28 -26q-4 -24 -24 -37l-32 -80v-8q0 -37 100 -37l52 -5q43 0 88 21l24 -4q0 13 60 21l4 -4h4q31 19 148 42l4 -5l8 9h4 q22 0 28 -17v-4q0 -24 -92 -34l-64 -16l-4 4h-4q-63 -25 -80 -25l-24 4q0 -13 -16 -13l-12 5l-124 -25l-84 8q0 -13 -8 -13l-4 5l-4 -5q-32 2 -32 25q-16 4 -20 21h8v-8h8v4l-12 21v21h-8zM11 -57l8 -8l4 4v4h-12zM29 -185l8 8v-12h-8v4zM51 -74l4 5h12l8 -9l-4 -4h-12z" />
<glyph unicode="&#xa3;" horiz-adv-x="1014" d="M0 76v4q12 0 12 24l16 12h20l4 20q-16 0 -16 12v8l12 12h32l4 -4h4l4 4l4 -4v-4l-24 -8v-4h12l16 12l12 -4l4 4l20 -4h36l24 -4q49 13 132 96q36 35 36 48l24 36l-4 4l8 8l-4 4q8 0 8 12l-4 12l12 12v4h-8l20 40l-8 12v8l8 12l-8 20h-4v-12h-8v12h-12q-68 -7 -68 -20h-24 q-12 0 -12 28q-24 0 -24 12q0 8 20 8q0 22 16 28h20v8h-4l-32 -4l-8 12v4q0 9 20 12q0 -7 20 -12l24 8h4q24 -8 24 -24h12l20 4q-132 259 -132 360h-8l8 8l-4 12q0 73 96 156q19 0 48 32h8l12 -12v-8q0 -12 -24 -12l4 -20v-4l-16 -16l8 -20l-68 -36q-20 -48 -20 -84 q0 -78 112 -312l8 -24l-4 -4l16 -16q192 -13 192 -60v-4l-20 -16l-4 -16q-72 35 -128 36l-20 -4l-8 8l-4 -28l8 -16l-8 -16l8 -12q-27 -140 -52 -140l-60 -80l-68 -56v-4q269 -88 300 -88v-4l4 4h16l24 -12l76 4h8l32 8l12 -4q0 6 76 20q0 6 52 16l80 64q28 0 28 -28 q-27 -54 -76 -72l-32 4q0 -9 -84 -36l-4 4h-4l-24 -4h-4l-4 4l-12 -8l-40 4h-72l-44 -4l-40 8l-4 -4h-4l-24 4h-4l8 -8l12 4l4 -4v-4l-4 -4h-4l-36 8v8l4 4v4l-36 8v-12l-20 4v8h4l4 -4h4l4 4v4l-104 32l-4 -4q0 16 -32 16v-8h-8v4l4 4v4l-24 4v-8h-8v4l4 4v4h-12v-12l-36 8 l-28 -4q0 8 -12 8q-20 0 -20 -12h-12l-4 4h-4v-8h-4v8h-8l-32 -8h-12q0 -21 -68 -28l-8 12l8 12l-4 4h-4l-12 -4zM124 68v12l8 -8l-4 -4h-4zM232 100l8 -8l4 4v4h-12zM248 96l8 -8l4 4v4h-12zM332 1084v8q10 20 32 20l4 -4v-8q-10 -20 -32 -20zM408 1044v4l12 12l8 -8l-8 -8 h-12zM472 492h28v4h-28v-4zM504 488h20v4h-20v-4zM532 480l12 4v4h-12v-8z" />
<glyph unicode="&#xa4;" horiz-adv-x="1072" d="M123 -311l7 7h4l11 -7v4l-4 11l8 18l-15 11v7l11 11h7q9 0 19 -29l3 -4h4v4l-4 15l15 11h4q18 -9 18 -37h-18v-7q56 -36 157 -63l114 -21l3 3h44q205 0 399 125l-3 18q11 11 11 26h3l4 -4h4v18h-8v33l4 4l-4 11l4 11h4v-29l-4 -4v-4l4 -3h3v150h-3v-8h-8v22h8v117l3 19 l-3 22v69l3 4l-3 4v7l3 4l-3 3v8l3 3l-11 19l11 11v33l8 25l-4 139l7 22l-3 121l7 18l-4 77v8l7 25q-3 73 -29 73v11q0 8 19 8l7 22l-11 11v7q0 9 14 11l-10 33q10 0 14 26l-4 3h-18l4 -3v-4l-7 -7q-8 0 -8 11h-7v-11h-7v7h-4l-55 -7l-11 3l-7 -7l-22 4l-30 -11l-3 3h-4 q0 -6 -33 -11v-22l11 -3l4 3q150 -19 150 -51l-7 -15q18 -1 18 -11v-18q0 -7 -15 -7q8 0 15 -161v-8l4 -14l-4 -4l4 -18v-55l-8 -7l4 -26v-29l-11 -30l7 -7v-18q-9 0 -22 -169l4 -22l-7 -7l3 -22q-15 0 -29 -209l4 -47h-4l4 -4v-7l-15 -15h-11l-11 11v33q7 20 29 231l-3 22 l7 7l-4 22q13 0 22 157l-3 41l3 3h4l-4 55v15l8 7l-8 22v70h-3v-8h-8v19h8v36q-19 10 -19 63h8v-11h3v7l-3 15l-4 -4h-7l-19 48l4 3h7l4 -3h4q0 17 7 25q-11 0 -11 22l-18 7l-4 -3h-4q-29 3 -29 11l-4 -4h-14l-8 7l-18 -3h-37q-73 -296 -106 -487h-3l3 -4v-7q0 -18 -7 -18 l4 -4v-4q0 -18 -8 -18l4 -4q-12 -128 -29 -128h-8l4 -4v-3l-4 -4h-3q0 21 -22 26l14 29l-3 -4h-8l11 19l-3 3v4l7 22l-4 4l8 18l-4 4v3l7 19l-3 3v4l11 25l-4 -3h-4v3q11 15 11 33l-3 19l7 7l-4 11q8 0 8 11l-4 4v3l7 15l-3 4v3l3 11l-3 11l11 11l-4 4l4 4v11l-4 3v4 q7 0 7 18l8 8l-4 3v4l4 15l-4 3l7 7l-3 11q6 0 11 19l-4 11l7 7v4l-3 3v4l7 7l-4 11h8v4l-4 4v3l4 4h3l-3 4v7l7 7l-4 4v7h8l-4 19l7 7l-3 4l7 33l-4 3v4l15 58l-4 11l4 4q-15 0 -15 15l4 11h-7q-63 -269 -81 -311h-4l4 -4v-15q-19 0 -59 -293q-11 -88 -11 -153v-30l-3 -3 l3 -11l-3 -4v-4l3 -3v-4l-3 -15l33 -18h3q0 25 92 37h7q89 0 125 -70l11 -37h-4l4 -3q0 -88 -77 -202h-15l-7 8l4 18l-4 4l-4 -4h-14v7l3 4q15 29 22 29q24 28 33 92h4l4 -4h3v11h-7v15q0 68 -84 77l-59 -19v-3l7 -8l4 4l11 -15l-4 -11q22 -38 22 -76v-33q0 -66 -69 -143 q-20 -15 -41 -15l-3 4l-8 -8h-10q-43 3 -103 48l-40 48l3 14l-3 4h-4v-7h-4l-11 11v7h11l-11 22q-14 0 -29 -66h-18q-11 0 -11 29l-4 -3h-7l-7 7v15q0 33 14 33v11l-3 -4h-8v26l4 3l-4 4v7h8v-25h3v131l7 8l-3 3v4l3 4v3q-7 0 -7 11h-3v-7h-8v51l4 4l-4 4v14l4 19h4v-81h3 v128l7 22l-3 59l7 14l-4 22v4l8 7l-4 4v18l7 11l-3 30l7 11l-4 3v4q3 33 11 33l-3 3v19l7 7l-4 4v3q3 33 11 33l-3 4v11q11 9 11 37h3l-3 3v4q16 99 25 99l-3 11l11 51l-4 4q11 0 11 40l22 7q15 -7 15 -18q-15 -88 -30 -99v-7l4 -15q-4 -20 -15 -33v-3l4 -15l-18 -59l3 -14 l-7 -15l4 -4v-3q-5 -30 -11 -30l3 -3v-4l-7 -22l4 -11q-5 -29 -11 -29l3 -4v-3l-11 -33l8 -15l-11 -15l7 -22l-4 -3h-3l3 -44v-8l-7 -22h-4q8 -14 8 -40v-117l-4 -18q36 55 84 55h26q42 0 77 -19v55l4 4l-4 4v3l4 4l-4 11l4 3v4l-4 4q0 92 62 410l-4 15v3l8 11v15l-4 3v4h4 l-8 15q4 18 15 18l-4 4v3q6 0 19 41h-4l15 55l-4 3l11 11l-4 4v4h4l-4 3v4l8 11l-4 4q4 29 11 29l-4 4v3q4 22 11 22l-3 4v18l3 4l-3 3l7 41l-4 47l4 4l-33 4l-4 -4h-3l-33 4l-22 -4l-40 11l-15 -7l-92 33l-3 -4l-8 7h-3v-7l-37 11v-11q-10 -278 -33 -278v-4l7 -7v-8 q-13 0 -25 -161q-22 -130 -44 -384l4 -26q-10 0 -15 -66l7 -7v-7q-8 0 -14 -88l7 -8v-7l-4 -4l4 -3v-22l-7 -11l7 -18h-4l4 -4v-70l-26 -29l-3 4v3l3 4v4l-14 14v81l7 7l-4 18v26q11 38 11 88l-3 26q8 0 11 62l-4 22q12 0 33 271q15 69 37 274l-4 19l4 18l-8 7l8 11v8h-8 l11 14v11h-7q11 14 11 26l-7 11l10 11v18h-7v7q0 8 11 8v3l-4 4l4 4v25h-7v11q7 7 7 37h4l-4 40l-4 -3h-3q-11 13 -18 51l3 4h8q7 0 7 -11h3l4 33q-22 10 -22 29q38 55 81 55q105 22 172 22q2 14 11 14h3q12 -4 26 -25h7l-7 11v3l22 4l15 -11v-11q0 -8 -19 -11v-7l4 -4 q-13 -21 -18 -51h-22q-18 29 -62 29l-74 -7l-3 3l-8 -7l-11 4l-7 -8l-4 4h-3l-37 -11v-4q18 -22 81 -51v-7l14 4q26 -5 26 -15l11 4q12 0 33 -15h7l37 4q0 -11 40 -11h55v3l-4 19l19 7v18q0 8 11 8l-4 14q3 27 11 37v3l-4 4v4l8 7l-4 4v3l7 8l-3 11q8 0 18 51l4 4h-4l11 22 l-4 3v4l26 73h7v7l-3 15q34 102 69 176q0 20 37 102q0 27 22 55q0 22 25 66l4 22l-7 8v11l7 10l-4 4h-3l-11 -11h-4l-7 7v4l36 40h-3l-11 -3l-8 11v3q0 6 26 19h11v-11l-4 -4v-4h4q92 59 124 59q23 -7 26 -18v-15q-87 -132 -135 -264q0 -11 -15 -25q-59 -142 -88 -257l4 -10 q-19 -75 -33 -180q118 143 161 147q96 51 157 51h22q73 -18 117 -66q74 -88 74 -223v-15q-10 -121 -19 -121l4 -11l-18 -91q40 -12 40 -22v-19q0 -8 -18 -11l3 -3v-4q0 -7 -11 -7q-9 0 -18 18h11v4h-11v-4q-18 5 -18 15l-8 -8q-60 28 -62 41l4 3h-4l-3 -3h-4l-158 54h-11 v-21l-7 -11l4 -77h-4l4 -4v-11q-8 -7 -8 -37h-3l7 -22v-58l-7 -11v-4l3 -99h-3l3 -3v-30l-7 -22l4 -168h-4l4 -4v-3l-4 -4v-4l4 -3v-4l-4 -4v-3l4 -4v-4l-4 -3l4 -19v-14q0 -19 -8 -19l8 -22h-4l4 -3v-117l3 -26h-3l3 -4v-161l-3 -18l11 -11v-11q-18 -18 -33 -73h-22l-7 7 l3 18q-42 -39 -73 -47l-4 3q0 -16 -58 -29l-8 -7v3l-18 -7l-11 4l-4 -11l-3 4h-4q-15 -2 -15 -11l-3 3h-8v-7l-3 4h-7v-8h-4v8h-4q-7 0 -7 -11h-4v7h-3q-8 0 -8 -11h-3v7h-4q-7 0 -7 -11h-4v8q-33 0 -33 -15h-4v7h-18l4 -3v-8h-11l3 4v4h-44v-8l4 4h4l3 -4v-3h-18v11l-4 -4 h-51l4 -4v-7h-22v11h14v4l-21 3l-15 -3l-40 3h-4v-3h7v-8q-49 4 -80 15l-11 -4l-4 4v4l-4 -4q-168 47 -168 69l-22 22v4zM277 -47h3l11 11l-7 7zM310 -95v-4q0 -61 66 -157q44 -44 91 -44h7q54 0 70 77h7l-7 11l4 4v3l-4 4v4l4 3v4l-4 11l4 4h3l4 -4v26l-11 -8q-8 48 -26 48 l-18 25q-15 0 -15 30h-3v-8l3 -47v-8q0 -8 -18 -11l-7 11v70q-5 12 -70 26l-3 3h-4q-7 -7 -33 -7v-4q15 -1 15 -11v-14l-11 -11l3 -19v-3l-7 -8h-22zM343 -399v-3h14v3h-14zM361 -402v-4h7v-4l11 4v4h-18zM372 -11v-3h26v3h-26zM383 -406v-4l11 -3l4 3v4h-15zM390 1066h4 l7 7h-3zM423 -417l4 4h4l7 -8v-3h-7zM427 -337l7 -7l4 4v3h-11zM515 -421h14v-7h-14v7zM522 4l11 11v-4l-7 -7h-4zM544 -128v-7l4 -15h3v7l-3 15h-4zM636 -410l3 4h4l4 -4v-3l-4 -4h-4l-3 4v3zM654 894h15v7h-8zM665 949h18l11 55l-3 3l11 4l-4 18l7 7l-3 4v7h7v8h-7l7 11v7 l-4 4v3h7v11l-3 4v4l7 7v7l-4 4v4l8 7v4l-4 3v4q7 0 15 37h-4l7 22v3l-3 -3h-4l-4 3v4q42 68 74 190q55 143 55 158q26 30 102 212v4h-4q-62 -30 -62 -73q-11 -30 -22 -30v-14q0 -17 -25 -59q0 -20 -30 -70q0 -17 -36 -98q-30 -129 -59 -176l4 -4v-3q-55 -187 -55 -257v-3 q0 -8 11 -8l4 -3v-8q0 -7 -15 -7v-7zM702 -95l3 -18h4v18h-7zM753 960l29 3l18 -3l30 11l3 -4q21 11 44 11l4 -4q0 10 69 19v11q0 25 22 25q19 -5 19 -25v-26l-4 -15q9 -25 15 -25q0 9 25 14q5 21 37 41q0 18 7 18l-3 11h-4q0 -11 -7 -11h-8l-22 14v15l8 11q-9 0 -11 18 q7 17 14 19h19l22 -15v-4l-26 -25q7 0 7 -11h4q0 15 26 29l11 -15l18 4v4q-18 0 -18 7l7 7h7l4 -3h4v11q-15 0 -15 22q-15 0 -22 14v4l7 7h4l11 -7v4l-4 3v4l15 22q-15 0 -15 11v4l8 7h3l33 -29v3l-7 11q0 9 15 11q14 0 18 -29l-4 4h-3l-8 -8q66 -41 66 -128v-25 q0 -70 -18 -70l-4 -11h-11l-11 33h-4q-7 -41 -21 -51h-15l-7 7v22l-19 -4l-3 15q0 9 25 26l-3 3v11h3l4 -3l4 3h22l3 -3h4v3l-4 4l4 18v15h7v-18h4v25h-4l-4 -3h-3l-4 14q-7 0 -7 -11l4 -3v-4l-19 -33h-11q-8 0 -11 44q-10 0 -22 11q0 -7 -11 -7l8 -22l-19 -11v-11 q0 -11 -25 -52l3 -14l-7 -8v-3h11l11 7h15l14 -18l-7 -11q26 0 26 -26q0 -18 -19 -18v-8l110 -58h7l4 36l-7 8q18 0 22 106l-4 11l7 7v37h-7v11h7v15q0 81 -29 135l-4 -4h-7v11l4 -3h3v3q-11 23 -51 48q0 10 -22 18v15h-7v-7h-4q-36 4 -36 14v4h7v4h-51q0 -15 -8 -15l-3 4v3 l3 4h-7q-7 0 -7 -11h-4v7q-22 0 -22 -14l-11 3q-20 0 -51 -25l-33 -30q-101 -61 -139 -161l3 -18l-14 -15v-3zM760 850l11 -4l4 4v3h-15v-3zM786 846h14v4h-14v-4zM822 1018v4l19 14q0 20 36 22v8l-3 -4h-11l-4 4l-4 -4h-7l-7 7v4q0 6 25 15q28 0 30 -19h3q0 11 8 11h3l4 -3 l4 3h7l7 -7l-11 -7l8 -22v-4l-4 -4l4 -3v-8l-19 -3l4 -4v-7q-8 -18 -40 -18l-11 -11h-8q-14 7 -14 18l7 18h-4l-11 -7h-3zM863 707l3 -29h4v29h-7zM866 480v15h8v-15h-8zM874 806l18 -4l-7 11v7l3 4v4h-7l-7 -19v-3zM910 773v4l8 7l3 -4v-3l-3 -4v-4l3 -3h-3zM921 -124l4 18 h4v-18h-8zM1005 1055l8 7h11v-11l-8 -7zM1020 1102v4l11 11l11 -11v-4l-11 -11zM1060 1095v7l8 8h7l11 -11v-4q0 -8 -18 -11zM1174 1033l3 -11h4v11l-4 3h-3v-3z" />
<glyph unicode="&#xa5;" horiz-adv-x="498" d="M54 161v4q0 8 24 16q3 24 24 24v4h-8l-12 -4l-8 12v4l8 8h8q8 0 8 -12l4 4h4l8 -8l-8 -8h12q2 16 12 16l12 -8h4q48 7 48 32l16 56l8 48q-40 0 -92 -32h-16l-12 12l4 20l-4 -4h-16l-8 8v4l12 12l12 -4v4q0 24 16 24v4q-16 0 -16 8v8q0 8 12 8q24 -4 24 -12l-12 -4v-8h4 q12 0 12 16l4 4h12q8 0 8 -12l4 4h4l4 -4h4q52 7 52 24v4h-8q5 44 16 44l-4 4v4l8 8l-4 4v4l8 12l-4 20l4 4h4l-4 4v8h8v4l-4 12h8l-4 28v24q0 8 12 8v8h-8l4 36h-4l-8 8l8 44q-63 158 -100 356h-4v-8h-8q-1 25 -28 44v16q0 8 16 8q0 20 8 20l-4 4v20l8 8q16 -8 16 -20h16 q1 20 12 20l12 -12v-20l-8 -12q68 -404 120 -404h4l8 8l4 -12q40 45 68 124q23 56 36 56l-4 4v4q0 12 32 68q40 84 44 120q15 0 32 80q10 0 20 40l-4 4v4q23 59 28 96q12 0 12 20l16 12h4q28 0 28 -40l-48 -100q-15 0 -24 -60q-15 0 -32 -80q-34 -44 -64 -156 q-20 -39 -20 -56q-66 -152 -108 -200q-28 -10 -28 -24l-48 -232l128 16q17 -5 24 -20v-8l-28 -36l-24 4v8h16v4h-36l4 -4v-4q0 -8 -32 -12l-8 -8h-20q-52 0 -52 -36l-12 -52l4 -28q116 40 160 40h8l12 -12v-16q-24 -23 -24 -32l-4 4h-4l-20 -4l-4 4v4l4 4l-24 -4l4 -4v-4 q-35 -24 -92 -36v4q-36 0 -36 -100h-4l4 -4l-4 -20v-20h12l-8 -12l4 -24l-28 -40h-8q-6 0 -16 36h-4v-8h-8v24l4 20h4v-8h4v20h-8v8q12 0 12 36l-8 8l12 12v20h-8l8 12v4q-57 -32 -88 -32l-8 8v12l4 4v4q-28 0 -28 8zM178 917l4 4h4l8 -36v-4h-4zM202 1113v20l8 8l4 -4v-8 l-4 -4v-4l4 -4l-4 -4h-8zM230 757h8l4 -16h-8z" />
<glyph unicode="&#xa6;" horiz-adv-x="278" d="M-11 -17l8 3l4 -2v12l-4 21l4 -2h4q0 14 8 14l-4 17l16 42l-4 12l8 3l-4 10l4 2h4l-4 9q16 19 28 51l-4 9q8 0 16 14l-4 10q11 0 68 113l-4 6l4 10l-4 2h8v1l-4 7l8 9h-8l12 10h-8q12 8 12 14h-8v2q12 6 12 12v3h-8v5q12 6 12 18v6h-4v-6h-8q0 6 -16 12v1l8 9h-4l-12 -4 h-4q-8 0 -8 6l20 15l-4 2v3q0 12 24 12l-4 2v5h8l8 -3l-4 -2v-2q44 0 44 -19l4 -10h-4l4 -2l-4 -8v-2q0 -70 -52 -132l-48 -92l4 -10q-11 0 -16 -14l4 -10q-12 0 -28 -46l4 -11l-8 -5l4 -2v-5l-8 -5l4 -10q-12 -1 -12 -14v-2l4 -17l-4 -2h-4l4 -8v-9l-8 -3l12 -74l-16 -5 l4 -2v-2l-12 -5h-8l-8 3v2l4 2q-12 9 -12 17v3h-4l-4 -1h-4l-4 1v6zM-7 -26h8l4 -12h-12v12zM188 275v6l8 3l4 -2v12l-4 21l4 -2h4q0 14 8 14l-4 17l16 42l-4 12l8 3l-4 10l4 2h4l-4 9q16 19 28 51l-4 9q8 0 16 14l-4 10q11 0 68 113l-4 6l4 10l-4 2h8v1l-4 7l8 9h-8l12 10 h-8q12 8 12 14h-8v2q12 6 12 12v3h-8v5q12 6 12 18v6h-4v-6h-8q0 6 -16 12v1l8 9h-4l-12 -4h-4q-8 0 -8 6l20 15l-4 2v3q0 12 24 12l-4 2v5h8l8 -3l-4 -2v-2q44 0 44 -19l4 -10h-4l4 -2l-4 -8v-2q0 -70 -52 -132l-48 -92l4 -10q-11 0 -16 -14l4 -10q-12 0 -28 -46l4 -11 l-8 -5l4 -2v-5l-8 -5l4 -10q-12 -1 -12 -14v-2l4 -17l-4 -2h-4l4 -8v-9l-8 -3l12 -74l-16 -5l4 -2v-2l-12 -5h-8l-8 3v2l4 2q-12 9 -12 17v3h-4l-4 -1h-4zM192 260v12h8l4 -12h-12z" />
<glyph unicode="&#xa7;" horiz-adv-x="959" d="M48 -533l12 12q8 0 8 -16h4l4 36l-12 12v12l12 12h4q12 0 12 -16l-4 -12h4q16 0 40 -40q76 -66 196 -92q32 -15 152 -24l12 -4h8q228 31 228 88q8 76 16 76l4 -4v20h-8v4l4 4v4l-4 4v4q16 35 16 52h-8v4q12 17 12 32h-8v4q12 15 12 28v4h-8v4l4 12h-4q-16 0 -16 28h-8v8 q15 14 16 36l-4 4v4q4 49 12 56l-4 60l8 24q0 16 -12 16v8l16 36l-4 36l8 8l-4 36h-4q0 -56 -12 -56l4 -4v-4q-13 -29 -24 -124l4 -24q-8 0 -8 -12l4 -20q-10 0 -12 -16l4 -28l-8 -8l4 -24q-10 0 -12 -16l4 -24l-8 -12l4 -4v-4q0 -52 -28 -52q-20 6 -20 28l24 72l-4 28l8 8 l-4 20l12 20l-4 20v8l8 8l-4 20q10 0 24 116l-4 12l12 104l-4 -4h-4l-4 4v8l4 4l-8 32v16l8 8h4l4 -4h4l4 20l-4 32l4 4h4q8 0 8 -24h12l4 4h4l4 -12h4l4 32l-8 24h-4v8q0 8 12 8v4l-4 4l4 4v16h-8v8q0 8 12 8v28l-4 4l12 32v4h-12v4l12 16v20h-8q12 18 12 36h-8 q12 15 12 28v4h-8v4h8v12l-8 8q3 44 12 44l4 -4v8h-8v44l8 8l4 -4v12h-8q-4 107 -12 128l4 20l-4 60v8l4 -4h4v12l-4 -4h-4l-8 12v28q-13 66 -48 84q-19 0 -44 36l-12 12v4l8 8h4l12 -8v28h8v4q-16 0 -16 20l8 8q-20 56 -24 116l4 4v4l-12 80h4l-8 40h4l-4 4v8l4 -4h4v20h-4 v-8h-4v12h8v16l-8 12v24l8 8l4 -4v8h-8v4l-8 92l20 12q0 11 -28 16q0 5 -28 12v12l-8 -8l4 -4l-12 -8h-28l-4 4h-4l4 4v8h-8q0 -20 -44 -20l-16 -16h-8l-12 8v-4q19 -24 56 -24l16 -16v-12q-5 -16 -36 -16v-4q16 0 16 -8v-4l-28 -4l-44 12q-20 -146 -40 -172l4 -16 q-24 -42 -36 -84l4 -4v-4q-21 -99 -112 -232q-13 -1 -40 -104q-52 -296 -60 -296l4 -4l-20 -216v-20l-8 -8l4 -20v-36l-8 -12l4 -116l-4 -4h-4l4 -108v-124l-8 -8l4 -28v-72l-4 -4l4 -12l-8 -12l4 -4v-12q0 -88 -8 -88l4 -4q-6 -64 -20 -72l8 -8l-4 -32h-4q0 8 -12 8 q-8 8 -8 36q-10 0 -12 16h-4q0 -12 -8 -12v4l4 4l-4 4v4l8 8l4 -4v8h-8v4l4 4v4l-4 12h12v4l-4 12l8 8v8h-8v4q12 15 12 36v12h-8v4q12 11 12 32h4l-4 4v44h-8v36l4 4v4l-4 4h8v-28h4l4 52l-4 28v112h-8v16l4 20h4v-20h4v48l8 12v20l-8 32l4 4q-12 0 -12 8v24h8v-24h4v40 l8 12l-4 96l4 4v4l-8 48h8v12l4 20l-8 8l8 12v24h-8q12 15 12 28v8h-8v4l12 16v12h-8v4l16 28l-4 4v4l8 24l-4 4v4l4 4v4l-4 4v4l8 24h-8l12 24l-4 -4h-4v8q0 60 20 60l-8 12h4l-4 4v4q0 8 12 8l-8 12v4l8 8l4 -4v8h-8v12l8 8l4 -4v4l-8 12l24 104l-4 4v4l8 16l-4 4 q0 27 24 44l-8 20q2 32 24 32q8 -9 8 -28q42 50 100 180l-4 4q26 27 40 92l-4 4v4l16 32l-4 28l8 8l-4 4l4 4v4l-4 12l12 12l-4 4v4q20 44 20 88h-8l8 12q-8 0 -28 28q-12 0 -12 8l8 8q12 0 12 24l12 4v4q-26 0 -28 40l-4 -4h-4l-12 12q13 40 40 40h4l4 -4h4q0 12 12 12v52 h8v60h-4v-12h-8l-12 44q15 2 24 24l-8 24v4l8 8q12 0 24 24h20v-4l-4 -12h4l52 8q53 0 104 -28h4q1 20 12 20h4l12 -12v-8l-4 -4v-4l24 -8v8l-4 12l4 4h12l8 -8v-28q-8 -5 -8 -48h-4l4 -4l-8 -112q11 0 28 -28q18 0 24 -36l-24 -152q-12 0 -12 -136v-36q10 -180 40 -180 q16 -6 16 -12v-20q16 -2 16 -12v-4q-15 12 -28 12v-8q48 -20 76 -88l8 -8l-4 -12l8 -36l-4 -24v-8l4 -16l-4 -4l16 -92v-36l-4 -4l4 -4v-12l-4 -4l4 -4v-12l-4 -4l4 -4l-36 -288h-4l4 -4v-16l-4 -4l4 -4l-8 -108l-4 -4h-4l4 -4v-32l-8 -12l4 -64v-4l-8 -8l4 -20v-12l-12 -36 l8 -24l-8 -8l4 -48l12 8h12l16 -16q-40 -336 -40 -408v-4q0 -13 24 -40v-4q-36 -56 -36 -68t-28 -12q-13 -26 -96 -60l-4 4v4l4 4h-4q-8 0 -8 -16l-16 -4l-4 4v4l4 4h-8q0 -16 -8 -16v12h-12l4 -4v-4l-8 -8h-4v12h-12q0 -12 -8 -12v8h-24l8 -12h-16v8h-12l-32 8h-16l-12 -8 h-28q-28 0 -28 8l-4 -4h-4l-36 4h-4v-8h-4q0 16 -24 16v4l-4 -4h-4l-32 8v-8h-4l-4 4h-4l-4 -4l-4 4v4l4 4v4h-12v-12l-4 4h-4l4 4v8h-8l-4 -12q-44 15 -44 24h8v4l-20 -4q-65 13 -140 84l-12 16v8zM116 235h8v-16h-4zM168 -61h8v-8h4l4 44q-5 41 -12 48q12 11 16 32l-8 36 h8v24l4 4l-12 24h4l4 -4h4l4 28l-12 20q14 0 16 36h-8v4q12 15 12 28l-4 -4h-8v4l12 16v12h-8l12 24h-8l8 12l-4 4l8 8v4h-8l8 12v4l-4 4v4l8 8l-4 16l4 4h4l-4 4v4l8 8l-4 4v4q0 24 12 24l-4 28v8h8l-4 16l16 60l-16 48v8q0 8 20 8l8 20l-16 20v8l12 12h12q6 0 16 -32h4 q0 24 12 24h12q8 0 8 -28l8 -8l-4 -4h-8v8h-16q31 -34 116 -60l152 -28l8 -12v-12l-24 -20v-8h-12v12h8v4h-36l4 -4v-8h-16v12h8v4h-24v-12q-108 16 -180 48q-36 -117 -64 -304h-4l4 -4v-8q0 -20 -8 -20l4 -4v-20q0 -20 -8 -20l4 -4v-24q0 -20 -8 -20l4 -4v-40q0 -20 -8 -20 l4 -4v-36l-4 -16l4 -4v-4l-8 -12l4 -20v-192l4 -16q0 -20 -28 -20l4 -4v-12q-20 19 -20 44h-4v-8h-8v20h8v128l4 4zM264 267l12 12l8 -8v-8l-8 -8zM280 315v8l12 12h4l12 -12v-4l-12 -12h-8zM288 239v12q0 8 12 8v4q-12 0 -12 8v20l12 12h20l12 -12v-20l-12 -12l4 -20l-8 -8 h-20zM296 899v4l8 8l4 -4v-4l-4 -4h-8zM320 -681l8 8l4 -4v-4h-12zM328 311v8l8 8h4l12 -12l-12 -12h-4zM384 -689l4 4h8v-4l-8 -8l-4 4v4zM388 1611l8 8l8 -8l-8 -8zM408 527l8 -8l4 4v4h-12zM432 1687v12h8v-12h-8zM444 1615h4v32h-4v-32zM460 511h16v4h-16v-4zM492 1611 l16 -24h-8v-4h12q128 4 128 20t8 16l4 -4v12h-8v28l8 8l4 -4v16h-8v16q0 60 -44 60q-27 16 -64 16l-16 -12l-4 4h-4q0 -12 -8 -12l-4 4h-4q-8 -18 -8 -52v-12l4 -20l-4 -24v-32zM708 1571q10 0 28 -16v8q0 11 -28 16v-8zM716 1759v4l4 4h4l4 -4v-4l-4 -4h-4zM748 -445v-16h4 v16h-4zM788 -89v-24h4v24h-4zM796 763l4 -28h4v28h-8zM796 779h4v20h-4v-20zM800 987v4l12 -12v-4zM808 643h4v16h-4v-16zM824 947v4l4 4h4l4 -4v-4l-4 -4h-4zM832 923v12h4l8 -8l-4 -4h-8zM852 775l4 4h8l8 -8q-5 -20 -12 -20h-4z" />
<glyph unicode="&#xa8;" horiz-adv-x="386" d="M43 504l32 44h16l44 -16l12 4l8 -12v-4l-8 -8h-8l-16 8h-8v-4q21 0 28 -32l-12 -16h-8l4 -20l-8 -8h-24q-52 40 -52 64zM115 552v8h12l-8 -8h-4zM247 504v4q18 15 24 60q7 0 36 40l64 16v-8h-16l16 -28q-8 -24 -28 -24l4 -4v-4q-20 -13 -20 -40q-12 0 -16 -44l-4 -4h-28 l-8 8v12l8 12l-20 -4h-4zM307 620v4l8 8h4l8 -8v-4h-20zM339 508v4l8 8v-12h-8z" />
<glyph unicode="&#xa9;" horiz-adv-x="1201" d="M0 606v9q24 37 152 182q105 82 116 82q222 108 347 108l78 4l30 9h17q40 0 57 -17l21 4q18 0 52 -22q22 0 100 -43q18 0 78 -35q57 -55 73 -86q29 -20 48 -78q52 -54 52 -117l4 -4l-4 -48v-17l4 -48q-12 -43 -30 -43l4 -4v-18q-34 -33 -43 -65q-25 -21 -43 -60 q-85 -82 -182 -134q0 -11 -35 -22q0 -16 -221 -95l-13 -13h-13q-49 0 -65 -18l-30 5l-30 -13h-13l-5 4h-4q0 -13 -60 -13l-22 9l-65 -5l-4 5v4l-26 -4q-77 13 -117 39l-35 4v-9h-13q-4 26 -13 26l-4 -4q0 23 -22 26q-40 51 -47 52l-5 -4v4l5 4v5q-24 0 -48 121l-4 4l4 39 q-13 0 -13 65l4 4l-4 5q16 0 61 168l65 104q13 0 13 18q55 39 69 65q59 66 108 82q73 72 290 112q169 0 225 -86q0 13 9 13h8q12 0 18 -35q-18 0 -18 -30l-17 -22l4 -21l-13 -9h-17q-13 2 -13 30l-4 -4h-9q-8 0 -8 30q-9 0 -9 26q-44 27 -113 39v4l-47 -8l-13 8l-5 -4h-13 v13h-13q-43 -6 -43 -22h-4v9h-5q-8 0 -8 -17l-9 8l4 5h-8q0 -18 -9 -18l-4 5l-9 -9l-4 4q0 -8 -61 -30l-4 5q0 -9 -26 -18l-13 5l4 -5v-8h-4l-4 4q-27 -9 -57 -39l-47 -39h-9q0 -13 -35 -30q0 -13 -82 -109q-71 -133 -78 -186l5 -13l-9 -34l9 -26l-5 -5h-4l13 -34l-4 -22 q7 -47 78 -130q22 -26 77 -52q0 -8 61 -17l4 -4v-5l5 5h4q52 -7 52 -18l30 5h13l13 -9h18l34 9h44l4 -5h4l9 9l47 -4q0 9 22 13l17 -5q51 22 109 31q122 46 168 82q11 0 31 21q27 0 95 65q94 82 113 117q35 36 52 83h8v4h-8l4 4l-4 5v4l25 47v52l-43 135q0 8 -52 65l-4 21 h-4l-5 -4h-4q0 14 -39 39q-4 22 -82 65q-9 17 -87 34q0 13 -60 18l-18 13l-13 -5l-134 9q-174 0 -368 -117q0 -7 -39 -17q-133 -100 -177 -191q-19 -38 -35 -47h-9zM416 385q5 60 90 178q109 112 187 112l21 -4v9q19 0 70 -44h4v5l-4 13h8l13 -26v-5q-14 0 -30 -86l-13 -9 h-9l-17 17l4 26v5h-4q0 -13 -9 -13h-4l-9 8v13l5 5v4q-35 3 -35 9q-89 0 -182 -130q-21 -39 -21 -82q17 -57 99 -57l104 13q22 -7 22 -26q0 -10 -31 -30q0 -13 -8 -13l-13 4l-5 -4v-4l-21 4h-5l-13 -9h-26q-134 0 -164 100v9h9l8 -35h5v9q-9 13 -9 34h-4l-5 -4h-4zM537 290 l8 -9l5 5v4h-13zM619 281l17 5v4h-17v-9zM641 883l17 -4l13 4v4h-9v-4l-4 4h-17v-4zM805 571v18h5l8 -9v-9h-13zM874 792v13l13 -13l-4 -4h-4z" />
<glyph unicode="&#xaa;" horiz-adv-x="648" />
<glyph unicode="&#xab;" horiz-adv-x="944" d="M86 113v8q15 42 176 140l68 36q245 141 320 192l8 12h-4l-4 -4h-4l-4 4q0 44 32 44q12 0 12 -16l-8 -16h20q0 18 16 24h4l8 -8v-12q0 -12 -16 -12v-20q-7 -60 -40 -60l-160 -80l-4 4l-24 -20h-4l-4 4h-4q0 -12 -44 -32l-12 4v-4l-8 -8v-4h-20q-12 -20 -36 -20l4 -4v-4 q-54 -22 -92 -56q-12 0 -88 -64h4q312 0 416 -136v-20l-20 -16v-12h-12l-56 56l-84 40l-4 -4h-4l-8 8l-4 -4h-4l-8 8l-4 -4h-4q-32 10 -32 16l12 4v4h-20l4 -4v-8h-4l-24 4l-16 -4l-8 8h-16l-20 -4l-8 12l12 4v4h-36v-4h8v-4l-8 -8h-36l-8 8q-22 -8 -68 -8l-8 24 q-20 0 -20 12zM154 93l32 -4v8h-32v-4zM278 85l20 -4l4 4v4h-24v-4zM314 81l16 -4l4 4v4h-20v-4zM366 73h16v4h-16v-4zM486 173v8q20 23 20 40l-4 4l12 8h4l-4 -4v-4l4 -4q71 40 260 116v4h-8l-24 -4v4q13 32 20 32h12l12 -12v-8l-4 -4v-4h4l28 20l12 -12v-4q0 -12 -24 -12 l8 -20q-8 -18 -16 -20l4 -20v-4q0 -12 -80 -24q-81 -29 -128 -56q188 -20 188 -60q0 -10 -24 -24q0 -12 -8 -12q-85 28 -188 40l-12 -4q-48 0 -48 28q-16 0 -16 12z" />
<glyph unicode="&#xac;" horiz-adv-x="1014" d="M-188 1185v8q0 8 20 8q0 14 16 32q-20 0 -20 12v4l8 12l-8 8v4l32 40q-16 0 -16 12q9 20 40 20l12 -8q81 32 132 32h32q20 -1 20 -8q16 8 44 8h4l16 -16v-8l-16 -16h-24l-8 8q-15 -8 -48 -8v-4h8v-4l-8 -8l-4 4l-4 -4h-24v8h24v4h-32v-4l4 -4v-4l-12 -8h-4l-4 4h-4 q0 -5 -60 -24q0 -29 64 -64l124 -36l32 4q0 -13 108 -20l8 8h8l12 -8h48l36 -4l12 4l4 -4l20 4h64l-8 28l4 4h4l-4 12q33 84 80 84h8q48 0 116 -32l32 16l4 -4l-12 -20h4l84 96h-4l-72 -8l-4 4v8q0 13 92 28l8 8h8l4 -4h4q57 82 116 116q0 7 96 88q46 60 64 60q0 29 76 64 q88 84 104 84q18 -8 20 -16v-12l-28 -28l-12 4v-4q-1 -8 -56 -36q-41 -47 -80 -76l-4 4q0 -9 -84 -76l-68 -68l-68 -80h4q96 20 156 20h20q22 0 32 -20v-4q0 -52 -72 -96q-13 0 -84 -56q-64 -29 -124 -40q-56 -17 -56 -24v-4q20 -22 20 -72v-16q0 -54 -68 -124l-72 -20l-8 8 l4 -20v-16q0 -69 -72 -120h-40q-46 0 -76 44h-4q-7 0 -12 -36q-51 -15 -104 -84v-4q79 -70 136 -100l4 -16l-12 -16h-28q0 12 -8 12l-12 -4v4l4 4v4q-9 0 -20 16q-21 0 -168 148l-20 12l-8 -8v-4q129 -164 208 -192l4 4h8l12 -12v-24q0 -8 -16 -8q0 -12 12 -12l-4 -20l4 -12 l-4 -4l4 -68v-132l-4 -4l4 -4v-28l-8 -16l8 -32q-5 -52 -12 -60l4 -20l-8 -24v-4l4 -36l-12 -40l8 -24l-8 -12v-88l-4 -4v-4q12 0 16 -56l-28 -36l-16 28h-4l-8 -8l-72 24h-16v8h28v4h-36l-4 -4v-4l4 -4l-12 -8l-44 4l-8 -8l-24 4l-28 -12l-4 4h-4l-12 -4l-4 4v4l4 4h-8 q-26 -8 -36 -28l-16 -4v-8q0 -31 204 -80l32 4q0 -12 64 -12h76l24 -4q189 20 296 64q0 10 40 20q0 8 32 16q72 64 88 64h4q16 -8 16 -24q-40 -47 -100 -68q-22 -30 -176 -64q-136 -32 -208 -32l-148 4l-20 -4l-16 8l-28 -4q-46 0 -140 36l-4 -4h-4q-43 0 -68 36 q-20 10 -20 32v12q38 80 108 80q0 16 212 28v8h-16v8l20 8h12q8 0 8 -12l-4 -12h4l20 -4v4l-4 4l4 20v44l-4 40l8 8v16l-4 36l8 28l-4 36l8 16q-8 0 -8 36h-4v-8h-8q0 20 24 60l-8 24v180h-4q0 -12 -8 -12l-4 4v40l-24 40v4l8 8h4l4 -4h4v4q-35 26 -104 100l4 4v4h-4l-4 -4 h-4q-12 12 -12 28l-16 4v4h8v4h-8l-4 -4q0 23 -112 152l-96 128l-4 -4l-8 12l4 4l-12 28h-8l8 -12h-4l-12 12v4h8q0 6 -16 12l-4 4v4l4 4q-16 0 -16 12l4 4q-20 0 -20 32l-4 -4h-4q-65 86 -96 92q0 24 -24 24zM-132 1233l8 -8h4l-8 8h-4zM-112 1217q12 0 12 -16h12v4l-24 16 v-4zM-88 1185l220 -312h8l4 20l-8 8v8l8 8h8q12 0 12 -24l12 -4q0 28 16 28q20 0 20 -44h-8l-12 8v-4l72 -96q8 0 32 -24q47 73 116 128h4v4h-4l-24 -4v8l12 12q-44 60 -44 132q38 68 72 68l12 -4l4 4h4q21 -1 60 -56v-16q0 -12 -16 -12l8 -24l-16 -12h-8q-45 48 -56 48v-4 l-4 -12q0 -50 64 -116q31 -26 68 -32q40 0 40 44q0 56 -64 100h12v12q-12 0 -12 8l8 12v8q-12 0 -12 12l-4 -4h-4q-16 6 -24 20v12h8q-4 24 -12 24v-8l-12 16l8 8l-4 12h-8v-8l-4 4h-164l-36 -4q0 8 -108 16l-20 -4l-36 12l-20 -8l-16 4h-8l-4 -12q-92 19 -132 48zM24 -207 v-12h8l-4 12h-4zM36 1157h16v4h-16v-4zM64 1141v12h4l8 -8l-4 -4h-8zM100 1321l4 4h20v-12h-16zM176 -143v-4h16v4h-16zM212 -139v-8l28 4v4h-28zM368 981q8 0 12 -28h4v4l-8 32zM368 997h4v20h-4v-20zM380 457h4v20h-4v-20zM428 -83l8 16l-4 112l8 20l-4 32q11 0 16 100 l-4 24l8 8l-4 20l12 36l-4 24v16h-8l12 28h-8q4 35 12 44v4h-8v16h8v-8h4v20l-4 -4h-8v16l8 8l4 -4v36h-4v-8h-8l-16 44l12 8l12 -8l4 36h-4l-8 8v12l8 8h12q8 0 12 -32q12 0 28 -16h4l8 16v4h-4v-8h-8q-9 0 -12 20l4 4h8l16 -12q39 81 76 120q53 69 88 140q19 9 120 152 q0 15 40 52q0 8 60 72q4 21 172 212q-12 0 -12 8q11 36 20 36h8q12 0 12 -16l-4 -12l4 4h8l4 -4h4q0 18 16 24h4l8 -8v-8q-16 -9 -16 -44l-12 -12l4 -12q0 -10 -72 -56l-48 -52l-64 -68q-31 -27 -68 -84q-8 0 -8 -12q-112 -116 -152 -200q-35 -31 -88 -124l-52 -92l-24 -60 l4 -36l-24 -32h-8l-12 12l4 12l-4 4h-4q0 -86 -32 -204l4 -28l-8 -16l4 -16q-16 -24 -16 -100l4 -32l-8 -8l4 -52h-4l4 -4v-8l-8 -12v-56l8 -24l-8 -12l8 -16l-4 -72l-20 -8l-12 48l-4 4v36l4 4v4l-8 8v8zM436 529v4h8v-12zM452 1177v4h12l-8 -8zM512 1173h4l128 20v8 q-27 24 -96 36q-36 -10 -36 -36v-28zM524 1145q61 -120 120 -120l20 -8q72 22 72 64l-4 4v32h8v-20h4v36l-12 -8l-4 4v4l4 4q-10 0 -28 28l-24 -8q-10 0 -12 16zM744 1221h8l-4 12h-4v-12zM744 1241l4 -4h4l4 4h4q24 -4 24 -12q61 16 96 40l76 40q31 0 88 68h-32v8h16v4h-32 l4 -4v-4l-8 -8h-32v8q-128 -13 -128 -40q-6 0 -88 -100zM964 1385l4 -4v-4l20 4v4h-24zM1164 1285v8h12l-8 -8h-4z" />
<glyph unicode="&#xad;" horiz-adv-x="450" d="M37 244l12 12l12 -4v4l8 24l-16 12v12l8 8h12l28 -16l16 4q0 -12 20 -12v-8l-20 4l8 -8h16l256 12l12 -16q0 -21 -20 -28q0 -12 -8 -12l-4 4v4l4 4h-44l4 -4v-12h-24v8h12v4h-44l8 -12l-4 -4h-32v8h20v4h-44v-4q12 0 12 -8l-4 -4h-32v8h12v4h-40v-4l4 -4v-4l-12 -8h-24 l-44 -8h-20q-24 0 -24 28q-24 0 -24 12z" />
<glyph unicode="&#xae;" horiz-adv-x="1179" d="M86 364l4 20v64l4 16l-4 4l4 32l-4 32q14 0 36 96q48 100 48 128l44 60q15 0 44 52q25 39 92 60l64 8h24l4 -4l20 8q111 -18 220 -104q4 -11 52 -36q0 -16 8 -16v16h-8v8l16 -4l4 4h4q16 -6 16 -12v-12q0 -6 -16 -12l-12 4l12 -24q-8 -18 -16 -20l4 -20l-8 -8h-20l-68 84 q-67 55 -132 80v4l4 4v4l-20 4l4 -4v-8h-8v16h-12v-12q-28 4 -28 12l12 4v4l-20 4q-88 -5 -88 -24h-8l4 4v4h-4l-8 -8l4 -4l-4 -4h-4l-4 4h-4l-4 -4l-4 4q0 -9 -60 -48q-21 -16 -64 -96q-33 -32 -80 -192l4 -16l-12 -16l-4 -140q0 -114 24 -152l-4 -12q16 -79 120 -216 q32 -19 32 -36q17 0 52 -40q28 0 76 -36l40 -12l24 4q0 -12 52 -20l8 8h24l8 -8q114 4 124 20l20 -4l72 24v-4l124 72q73 45 108 108q76 91 76 160l8 12l-4 16l16 76q-5 47 -12 56l4 32q-26 107 -112 236l-36 56l-44 36v20l8 8h16q120 -134 120 -172q40 -64 80 -204h4 l-12 -136l8 -8l-8 -24l4 -16l-48 -100q-33 -45 -44 -84q-18 -7 -112 -96l-44 -40l-128 -48v4l-56 -20l-16 4l-112 -8l-12 -8h-4q-28 0 -76 16l-16 -4q-75 35 -124 48q-2 9 -32 20q0 8 -24 16q0 7 -44 44q-76 107 -76 120q-60 87 -60 128q-8 0 -8 12l4 12q-12 41 -12 132v8 h-4zM398 68l24 40q-12 0 -12 8v8l28 24v4q0 16 -24 40v4l4 4q20 36 28 36q14 0 20 28l4 4h4l-4 20v4h8v4l-4 12h8v4l-4 28l4 -4h4v4l-8 8v-8q-26 21 -36 68v40l-8 12q12 11 12 24h4l-8 16l4 12l-4 4q7 0 20 52l-4 4l8 8l-4 12l4 4l-4 4l8 8l-4 4v4l4 4h4l-4 4v4q0 18 12 36 l-4 4l8 8l-4 4v4q5 20 12 20l-4 4v8l8 8l-8 20h12v4l-8 12v12l4 4l-4 4v12q20 32 28 32l-8 12l4 12h4q0 -20 28 -20q15 0 24 -96v-20l8 -16h20q116 0 168 -104l4 -52v-20q0 -71 -60 -140q-34 -50 -152 -140l-60 -40v-8q160 -91 160 -116q25 0 96 -68q0 -28 -36 -28l-4 4v4 l4 4l-4 4l-4 -4h-8q0 14 -56 60q0 8 -24 8l-12 12v-4l-24 8l4 4v8h-8l4 -4v-4h-8l-12 12l4 4v4h-4l-16 -4l-4 4v4l4 4v4h-4l-8 -8l-48 32h-8v-20l-32 -84h-24l-8 8l4 28l-16 -12h-4q-8 0 -8 12zM414 884v8h20v-12zM482 456l4 -4v-48h4v24h8v20q12 11 24 72h4l-4 12l4 44v12 l-16 16zM486 68v16h8v-8zM518 268q132 74 204 196l-4 4v8q12 15 12 28v4h-8v20l8 12l-4 4v4h8l-8 8l-4 -4q-26 84 -144 84q0 -8 -12 -8l4 -28q0 -42 -16 -80l4 -16l-8 -8l4 -12zM586 648h20v4h-20v-4z" />
<glyph unicode="&#xaf;" horiz-adv-x="670" />
<glyph unicode="&#xb0;" horiz-adv-x="327" d="M27 822q24 91 84 140q30 12 40 24q95 0 156 -104l4 -20q0 -71 -84 -140l-52 -28l-16 -4l-4 4v4l8 8h-16v-4l4 -4v-4l-12 -8q-48 0 -92 56v8q8 0 8 -12h4v4q-20 21 -20 84l-4 -4h-8zM83 806q7 -56 48 -56h16q54 0 104 68v36q0 26 -40 52l-12 -4l8 -16q-8 -18 -16 -20h-8 l-36 40q-64 -19 -64 -96v-4zM255 866l4 -12h4v4l-4 12h-4v-4z" />
<glyph unicode="&#xb1;" horiz-adv-x="777" d="M54 244l12 12l12 -4v4l8 24l-16 12v12l8 8h12l28 -16l16 4q0 -12 20 -12v-8l-20 4l8 -8h16l256 12l12 -16q0 -21 -20 -28q0 -12 -8 -12l-4 4v4l4 4h-44l4 -4v-12h-24v8h12v4h-44l8 -12l-4 -4h-32v8h20v4h-44v-4q12 0 12 -8l-4 -4h-32v8h12v4h-40v-4l4 -4v-4l-12 -8h-24 l-44 -8h-20q-24 0 -24 28q-24 0 -24 12zM71 661v4q0 23 16 40q-12 0 -12 8v4q0 12 40 12l4 -4v-4l-8 -12h4l40 12l4 -4v-4l-24 -4q6 -20 52 -20h128l32 -8h24q68 131 68 152q16 4 16 24v4q-12 0 -12 8l4 28l-16 -12h-4q-8 0 -8 12l20 36l-8 12v8q30 22 84 112q22 28 36 28 l-8 12v4h4l40 -20l8 -36q-43 -102 -68 -120l4 -4v-8q-26 -25 -44 -80l-16 -16l4 -4v-4q-68 -103 -68 -132q39 -12 148 -16l28 4q0 -12 44 -12l28 4q0 -12 76 -16l32 4l12 -16v-12l-12 -12h-16l-24 12l-4 -4l-56 8l-20 -4q-20 12 -40 12l-44 -4q0 13 -120 16l-32 -4l-24 8 q-22 -39 -28 -80q-18 -11 -48 -104l4 -4v-4l-20 -80v-4l4 -68l-16 -16l4 -16l-4 -4h-12q-12 0 -12 32l-12 -8h-8v32h8v-8h4v40h-8v12l12 16l-4 4q15 63 44 108l36 100l28 52h-8l-32 -8h-148v-4h40v-8l-100 -8q-32 0 -32 32z" />
<glyph unicode="&#xb2;" horiz-adv-x="273" d="M5 646v12l20 32l-4 4v4l88 112l36 48q36 42 36 52h-4q-64 -19 -64 -48h-4v8h-4q-9 0 -36 -52h-20l-8 8v4l8 24l-4 4h-4l-12 -12h-4q-8 0 -8 12l28 36l-8 12q0 22 16 28h4q8 0 8 -12h4q70 50 136 64v8h12q0 -11 32 -20v-8l4 4h4v-4l-4 -4l4 -4v-16q0 -36 -148 -204 l-40 -64h4l12 8l4 -4h4l64 12q24 -8 24 -32l-16 -16l4 -16q-78 -20 -108 -20q-32 0 -32 24q-24 8 -24 16z" />
<glyph unicode="&#xb3;" horiz-adv-x="279" d="M5 861v12q16 15 16 24h4l-8 24q6 16 12 16h12l4 -4h4l4 4v-8h-8v-12h4l40 20l4 -4v-4l20 4h56l24 -4l12 4l-4 -4v-4q39 0 52 -48v-4q-9 -52 -64 -88l-60 -36v-8q61 0 84 -52q-14 -53 -48 -92q-21 -21 -60 -40q0 -12 -40 -32q0 -16 -12 -16h-12l-8 8v4l4 4v4l-8 8l-4 -4 h-4l-8 8q7 0 20 32q120 64 120 100h-4l-44 12l-4 -4h-16q-23 0 -28 24q-20 3 -20 12v8q41 61 140 116l16 20v4l-48 8l-44 -4q0 -12 -8 -12l-4 4q-28 0 -28 -32l-4 -4h-20l-12 12l4 24v4h-4q0 -12 -8 -12h-4zM125 885h32v4h-32v-4z" />
<glyph unicode="&#xb4;" horiz-adv-x="407" d="M11 600v8l12 12l12 -8q0 24 8 32q-12 0 -12 8v16l8 8h4q8 0 8 -12l4 4h16v-8q0 -8 -12 -8v-4h8q48 24 176 168q8 0 32 32q56 48 94 98q5 21 32 44h12l16 -16v-4q-3 -60 -362 -406h-24l-8 8v20q-24 0 -24 8z" />
<glyph unicode="&#xb5;" horiz-adv-x="1180" />
<glyph unicode="&#xb6;" horiz-adv-x="686" d="M-64 -175q24 54 64 68q107 40 256 40l88 -4l-8 12l28 12h8l20 -16l-12 92q17 151 68 340l-4 4v4l8 20l-4 4v4l8 16l-4 4l4 4l-8 8l8 8v4l-4 20q12 3 12 32h-8v4q12 15 12 36v12h-8v8q12 0 12 40v52l-4 4v4l-4 -4h-8v12h-20q-8 0 -8 12l4 20h-4l-12 -8h-4l-8 8v4l24 20 q0 16 16 16v4h-8l-8 -8q-44 27 -108 124q-21 0 -56 156l4 4v4l-20 96l4 4v4l-8 16q3 32 8 32l-8 24l8 12v8l-4 148h-4v-12h-8v12q0 8 12 8l-4 4v8l12 28h-8v4l12 16v12h-8l12 28h-8v8h8l-4 20l8 8l-4 4v12l8 8l-4 4v20l4 16l-4 4l12 56l-4 16h4l-4 4v8l4 4l-4 4v4 q0 16 20 16l-4 40v4l12 12h4l16 -16l-4 -12h12q6 0 12 16l4 4h4l8 -8v-20q-43 -101 -84 -476v-24l8 -12v-8l-8 -12v-16l8 -16l-4 -16l8 -16l-4 -16q0 -36 28 -124l-4 -4l20 -48q21 -74 140 -160l16 8q26 -20 72 -20h20q31 0 40 28q0 8 16 8l12 -12q47 28 84 84q12 0 12 24 q44 34 44 84q12 0 32 76q24 39 44 152l4 12l-4 16q4 28 12 28l-4 20l12 28l-4 20l8 12l-4 4v4l8 24l-4 16l8 12l-4 4v20l8 12v8l-4 40l8 8v48q0 41 -16 112l-40 -12v8q-60 -13 -60 -24v-4h-4v8l-28 -4h-16l-4 4h-4l-4 -4v-4l-68 4h-20l-12 -8l-88 8l4 -4v-8h-4l-8 8l4 4v4 h-12l4 -4v-4q-18 -8 -52 -8q-44 0 -44 12v8l4 4v4q-28 0 -28 12l12 12l12 -4v4l8 24q-16 6 -16 12v12l8 8h16l24 -16l16 4l16 -16v-4l-4 4h-12v-8q68 -20 160 -32h36l32 8h8l4 -4q145 37 156 64v12l-8 12l-4 -4h-4q-14 12 -40 12v4l8 12h-28v-4h12v-8l-20 -4l-56 8v8h8l4 -4 l32 4v4h-64v-12h-4v8h-28q-21 0 -24 12v20q4 12 24 12h76l36 4q132 -20 132 -56q8 0 8 -20q0 -24 -28 -56q14 0 24 -88v-12l-8 -12v-24l-4 -60l8 -8v-8l-8 -12v-8l4 -44l-8 -12l4 -4v-4l-8 -24l4 -16l-8 -12l4 -4v-12l-12 -24l4 -28l-4 -4h-4l4 -16q-16 -36 -52 -192l-4 -4 l4 -12q0 -22 -28 -64q0 -16 -48 -88l4 -4v-4l-44 -72l-68 -64q0 -17 -16 -24l4 -4v-16q-64 -50 -64 -64q-108 -191 -108 -308l-4 -24l-4 -4h-4l4 -12q-8 -57 -16 -68l4 -4v-4q-5 -36 -12 -36l4 -4v-4l-8 -28l4 -4v-4l-8 -12l4 -20v-4l-8 -12l4 -20l-4 -4h-4l4 -20v-8 q0 -20 -8 -20l4 -4v-40l-8 -32v-4l20 -96l-4 -4l4 -4v-8q-10 -20 -32 -20l-12 32l-4 -4h-4q-9 0 -12 28h-24l-40 20h-48l-8 8l8 12h-48l-4 -4h-4l4 -4v-4l-8 -8l-52 4l-4 -4v-4l-20 4h-4l-12 -8l-16 4l-8 -8l-12 4l-8 -8l-4 4h-4l-68 -28v-4q39 -55 244 -92l8 -8l36 4l4 -4 v-4l4 4h16l16 -8l28 4l4 -4v-4l28 4h4l12 -8l120 4q0 -8 12 -8l20 8l36 -4l8 8h28l4 -4l24 8h4l4 -4h4q1 6 104 24l68 28q0 23 -100 36v12h4l20 -8l4 4v4l-44 4l4 -4v-4l-4 -4h-4l-8 8l8 8q-48 0 -48 8l-4 -4h-4l-40 8l-4 -4h-4l-32 8v20l16 16h24l8 -8l4 4h4 q256 -13 256 -84l4 -4v-4q-37 -80 -84 -80l-20 -8l-4 4v4l4 4h-8q0 -16 -8 -16v12h-8v-12h-4v8h-4q-8 0 -8 -12h-4v8l-112 -12l-4 4l-8 -8h-12l-40 4q0 -8 -12 -8l-24 4l-44 -4h-32l-36 8l-60 -4l-4 4v4l-20 -4l-16 8l-20 -4q-52 3 -52 16l-24 -4l-152 32h-4v-4h12v-12l-8 8 l-4 -4h-4q-99 33 -136 96v12zM52 -259v-4l4 -4h8v4zM128 -119v-8l16 4v4h-16zM156 -123h4l12 4v-4l16 4v4h-24zM312 1281v16q15 44 52 44l64 4h40q48 0 128 -16l4 4v-4l4 4h4l4 -4h4l4 4l116 -16l4 4l36 -20q16 -17 16 -40v-8l-12 -16l4 -4v-4l-4 -4h-4l4 -28v-12l-4 -44 l4 -4v-4q-20 -142 -68 -204q-16 -34 -44 -48q-17 -16 -32 -16h-16l-8 8v4l8 12h-4l-16 -8l4 -4v-4q0 -8 -12 -8l-24 4q-44 0 -44 -20q-16 -16 -44 -16h-4q-52 0 -88 68l-4 -4h-4l-8 12l4 4v4l-24 28v4h8q-24 43 -24 100h-4l-4 -4h-4l-4 4v44l4 4l-4 4v4l4 12h4v-52h4l-4 68 q-8 0 -8 20l4 48l-4 28h4l-4 4v8q0 10 16 12zM332 1193h4v20h-4v-20zM368 1681v12l8 -8l-4 -4h-4zM380 -67v-4l8 -8h4v8zM392 -151v-4l4 -16h4v8l-4 12h-4zM392 1109h4v16h-4v-16zM392 1297l4 -4v-4l20 4h4l-4 -4v-8q49 -24 168 -44l4 -4l32 8q-53 40 -152 40h-20 q-20 7 -20 20h-36v-4zM396 1101l4 -28h4v16l-4 16h-4v-4zM424 1209h16v8l-8 8l-8 -8v-8zM440 941q18 -16 28 -16q12 15 12 28v8q-21 0 -32 12l-8 -12l4 -4v-4zM460 605v40h8v-24l-4 -4l4 -4v-8h-8zM488 1133h4q7 0 16 28h12q32 -3 32 -28l-8 -80v-12l4 4h16q35 0 80 -48 l16 12l-4 16q28 8 28 52l4 16l4 4h4l-4 4v8h8v8h-8v4l8 12l-16 24h-4l4 28v8h-4q0 -16 -8 -16h-4l-12 12h-4v8h8v4h-4l-12 -4l-16 8l-8 -8l-28 8l-16 -4l-80 8q-3 -32 -8 -32l4 -4l-4 -20v-20zM500 1193v12h4l8 -8l-8 -8zM504 713h8v-4l-4 -4q8 -18 8 -52v-68h4 q27 64 56 108l-4 12h12v4q-66 0 -76 8h-4v-4zM548 957l8 -20l-4 -4l60 -8l20 8q-29 40 -80 40zM552 1601v12h4l8 -8v-4h-12zM560 881l16 -4q0 8 -12 8h-4v-4zM576 1605l4 4h4l8 -8v-4h-8zM664 1249l4 -4h8l8 20h-4zM680 725l4 4h4l8 -8l-4 -4h-4z" />
<glyph unicode="&#xb7;" horiz-adv-x="508" d="M135 518l37 51h18l51 -19l14 4l9 -13v-5l-9 -9h-9l-18 9h-10v-5q24 0 33 -36l-14 -19h-9l4 -23l-9 -9h-28q-60 46 -60 74zM218 573v9h14l-9 -9h-5z" />
<glyph unicode="&#xb8;" horiz-adv-x="300" d="M68 -249q44 63 64 76q47 46 68 80v8h-4q-56 -5 -56 -52l-4 -4h-20l-8 8v8l4 20h-4l-12 -8h-4q-8 0 -8 12l24 36l-4 24l16 20h4q8 0 8 -16q27 16 84 24q48 -25 48 -56q-5 -32 -24 -56q0 -12 -48 -44q-49 -57 -84 -116h-8q-6 0 -16 28l-4 -4h-12v12zM168 -97h12l-8 -8l-4 4 v4z" />
<glyph unicode="&#xb9;" horiz-adv-x="225" d="M0 726l20 40l-4 4v4q0 24 24 36q1 16 8 16l-4 4v4l4 4l-4 4v8q0 8 16 8q0 32 28 32q16 0 28 -20l-4 -4v-4q0 -16 24 -20v8h12l8 -8v-4l-8 -12v-60l-4 -24l4 -4v-4q-16 -164 -40 -200l-8 -8h-16q-8 0 -8 12l4 20l-4 4h-4q0 -12 -8 -12l-8 8v8l20 44l-4 4v8l8 8l-4 4v8l4 4 l-4 4v4l8 24v28h4l4 -4h4v16l-4 -4h-4l-4 12l4 4l-4 36h-4q0 -16 -20 -60q0 -16 -8 -16h-20l-8 8l4 28l-16 -12zM60 898v4l8 8h4l8 -8v-4l-8 -8h-4zM108 886v12h12v-8l-8 -8zM156 798l4 4h4v-12z" />
<glyph unicode="&#xba;" horiz-adv-x="718" />
<glyph unicode="&#xbb;" horiz-adv-x="702" d="M5 118q54 67 132 104l16 4v4h-32q-15 -16 -52 -16h-8l-8 8v12l4 4v4h-4l-16 -4l-8 12q0 12 24 12l8 24q-16 0 -16 12v8l12 12h12q8 0 8 -24h16q0 16 8 16h12q8 0 8 -20h4l8 8l12 -4q106 4 144 16v-8h12q28 0 28 -32q-22 -43 -36 -52q-21 0 -120 -44q-51 0 -148 -96l-8 8 l8 12q-16 0 -20 20zM73 -6q41 53 148 112q3 8 72 48h20q0 19 168 104q65 32 92 60v8l-48 12l-12 -4l-4 4v4l8 12l-48 4l4 -4v-4l-4 -4h-4l-8 8l8 8h-20l4 -4v-4l-4 -4h-8l-8 8l12 4v4h-32v-4l16 -4v-4h-24l-8 8l12 4v4h-36v-4h16v-8h-4l-4 4l-4 -4h-16l-8 8l16 4v4h-104 l-16 -4l-4 4h-4l-16 -4l4 -4v-4q0 -9 -56 -12l-12 -12h-32l-8 8v8l8 12h-4l-24 -4l-4 4v8l24 16l8 20q-20 0 -20 12v8l12 12q66 -7 84 -24v4l4 -4h68q181 0 336 -44q28 -29 28 -48q-25 -59 -36 -60l-32 -20h-20q0 -14 -60 -44l-16 4q0 -8 -48 -24q0 -8 -16 -8q0 -13 -60 -32 q-32 -16 -112 -80q-13 0 -44 -32l-4 4h-4q0 -7 -52 -48l-16 -24h-12l-12 12l8 12l-12 8l-8 -8zM253 310v8h16v-8h-16zM257 362v8h28l4 -4l4 4h8v-8h-44zM485 342v12h4l12 -4v-8l-4 4l-4 -4h-8z" />
<glyph unicode="&#xbc;" horiz-adv-x="1708" />
<glyph unicode="&#xbd;" horiz-adv-x="1964" />
<glyph unicode="&#xbe;" horiz-adv-x="1708" />
<glyph unicode="&#xbf;" horiz-adv-x="461" d="M-226 -323q0 96 156 236q0 16 24 16l168 176q306 318 332 440l20 20l-4 4l4 68v4q0 43 -60 72l-4 4v16q6 16 24 16l-4 4v4l8 8h4q22 0 68 -60l-4 -16q8 0 8 -16l12 8v-12h-8v-40l8 -12q-12 0 -12 -44q-17 -7 -32 -64q-20 -15 -72 -104q-63 -84 -80 -124q-15 0 -152 -156 q-208 -212 -208 -220t-60 -60q0 -9 -64 -88q0 -13 -16 -36l4 -4l-4 -4h-4q0 -88 76 -88l8 -12l-8 -8h76l-4 4v4l8 8l4 -4v-4l-4 -4h4q33 0 80 20v4h4l4 -4h4l8 12l4 -4h4q45 17 64 32q59 25 88 68q156 130 156 236l-20 20v16q0 8 20 8l-4 4v4l16 40l-4 12l12 8h16 q8 0 12 -24l-4 -4h4l16 4l4 -4v-48l-4 -4l4 -4v-4q-11 -121 -188 -296l-112 -68q0 -8 -28 -8q0 -37 -208 -64h-16q-123 0 -144 108v8zM-182 -323v-4l4 -12h4v4l-4 12h-4zM-86 -383h48v-8h-48v8zM402 965v20l20 16q0 28 56 28h4q0 16 32 16h8q12 0 12 -28l4 4h4l12 -12v-4 q0 -13 -20 -36l4 -16q-7 0 -12 -28l-20 -4v4l-20 -8q0 8 -20 8l-4 12h-4q-1 -20 -12 -20l-8 8v4l12 16l-4 12l-20 -4h-12z" />
<glyph unicode="&#xc0;" horiz-adv-x="1308" d="M83 -303q0 82 100 188q23 0 48 28h16l8 -8v-4q-2 -8 -20 -16l4 -20q-4 -16 -16 -16l4 -4v-20q0 -6 -48 -24q-35 -39 -40 -92q0 -76 40 -76q93 0 260 204q0 14 52 68l204 304l-44 60v4l8 8h4l12 -8l4 32l-16 16v8l12 12h12l8 -8v-24l16 -4q0 28 8 28h12l12 -12l-4 -36 l-12 8h-4l8 -20h8q372 608 764 1160q2 13 40 56v4q-12 0 -12 8q20 37 24 64h4l4 -4h4q24 52 36 52l-4 4v8h8v8l-8 12q8 24 16 24h4q8 0 8 -12q58 72 80 72q24 -9 24 -28q-5 -26 -84 -124l-80 -144q-56 -112 -104 -180q-139 -261 -252 -620q-56 -207 -80 -380h4q0 20 132 48 l4 -4q76 20 88 32h8l4 -4h4l12 12h8l4 -4h4l12 12h8l4 -4h4l12 12l16 -4q119 32 128 44h8l4 -4h4q0 12 36 16l4 -4h4q559 152 1116 152h48q322 0 660 -72l16 4l84 -28l12 4q32 -5 32 -16l4 4h12q17 -14 100 -40l12 4q13 0 60 -28q45 0 184 -76l4 -12q0 -18 -24 -24 q-24 9 -24 16l-4 -4h-4l-16 4v4h8v4h-4l-12 -4v4l-12 12l-8 -8l-8 8l4 4l-4 4h-4l-4 -4q0 16 -24 16l-4 -4q0 9 -44 24q0 13 -68 24q0 10 -96 40l-4 -4h-12l-12 12l-4 -4h-4l-88 28l-12 -4q-87 36 -408 72q-173 16 -332 16q-543 0 -1116 -156q0 -10 -36 -12l-4 4l-12 -12 l-16 4q-120 -33 -128 -44h-8l-4 4h-4l-12 -12h-8l-4 4h-4l-12 -12h-8l-4 4h-4l-12 -12h-8l-4 4l-96 -32l4 -4v-4h-4l-4 4h-4l-100 -24l-4 4v4q-9 -1 -24 -24h4q-7 -4 -20 -244q0 -261 52 -420l8 -8v-8l-4 -4l48 -104v-4q-11 -20 -32 -20q-41 72 -44 124l-8 8v8l4 4 q-20 60 -44 260v124q0 125 12 272l-4 4l4 4h-4q-64 -8 -64 -20v-4h-12l4 4v4h-12q0 -16 -8 -16l-4 4v4l4 4h-16v-16h-12v4l4 4v4h-16q-8 0 -8 -16h-24v8h16v4h-40v-4h8v-12h-16l-68 -4l-4 4v4l-4 -4h-4q-100 11 -100 28l-228 -340q-217 -288 -296 -288h-24q-50 0 -84 80h4 q9 0 12 -20h4v8l-8 24l-12 -8l-4 4v16h8v-8h4v16q-12 0 -12 8v8zM87 -307h8v20h-4zM163 -115l28 32h4l8 -8v-4q-1 -7 -40 -20zM239 -143l24 8l4 -4v-8l-24 -4l-4 4v4zM755 249q50 -24 136 -24l4 4h4l4 -4q136 12 204 36q80 421 140 564q68 173 212 480l4 20v4h-4 q-354 -510 -704 -1072v-8zM811 181l16 -4l4 4v4h-20v-4zM855 177h36v4h-36v-4zM1403 1723l4 12l-4 24v4q0 8 16 8l4 12l-8 24v4l12 12h8q9 0 12 -20l-4 -4l20 -4q5 20 12 20l8 -8v-4l-4 -4l4 -4v-4l-16 -64q0 -139 188 -292q0 -13 60 -32q2 -9 68 -40l12 4q68 -19 68 -32 v-12l-12 -12h-16l-124 60q-20 0 -68 36l-20 4v-8h-4q-42 12 -52 36q-12 0 -20 36l-4 -4h-4l-16 16l4 4v8q-28 0 -28 16l4 4v4q-16 0 -16 8l4 12l-16 4l4 4v8q-56 95 -56 156h-4l-4 -4h-4zM1411 1699v8h8l4 -24h-4l4 -4v-8h-8zM1423 1651v8l8 -8v-8zM1487 1759v4l4 4h4l4 -4 v-4l-4 -4h-4zM1671 1593v12h8v-4zM1675 1729v4l8 8h8v-4l-12 -12z" />
<glyph unicode="&#xc1;" horiz-adv-x="1308" d="M83 -303q0 82 100 188q23 0 48 28h16l8 -8v-4q-2 -8 -20 -16l4 -20q-4 -16 -16 -16l4 -4v-20q0 -6 -48 -24q-35 -39 -40 -92q0 -76 40 -76q93 0 260 204q0 14 52 68l204 304l-44 60v4l8 8h4l12 -8l4 32l-16 16v8l12 12h12l8 -8v-24l16 -4q0 28 8 28h12l12 -12l-4 -36 l-12 8h-4l8 -20h8q372 608 764 1160q2 13 40 56v4q-12 0 -12 8q20 37 24 64h4l4 -4h4q24 52 36 52l-4 4v8h8v8l-8 12q8 24 16 24h4q8 0 8 -12q58 72 80 72q24 -9 24 -28q-5 -26 -84 -124l-80 -144q-56 -112 -104 -180q-139 -261 -252 -620q-56 -207 -80 -380h4q0 20 132 48 l4 -4q76 20 88 32h8l4 -4h4l12 12h8l4 -4h4l12 12h8l4 -4h4l12 12l16 -4q119 32 128 44h8l4 -4h4q0 12 36 16l4 -4h4q559 152 1116 152h48q322 0 660 -72l16 4l84 -28l12 4q32 -5 32 -16l4 4h12q17 -14 100 -40l12 4q13 0 60 -28q45 0 184 -76l4 -12q0 -18 -24 -24 q-24 9 -24 16l-4 -4h-4l-16 4v4h8v4h-4l-12 -4v4l-12 12l-8 -8l-8 8l4 4l-4 4h-4l-4 -4q0 16 -24 16l-4 -4q0 9 -44 24q0 13 -68 24q0 10 -96 40l-4 -4h-12l-12 12l-4 -4h-4l-88 28l-12 -4q-87 36 -408 72q-173 16 -332 16q-543 0 -1116 -156q0 -10 -36 -12l-4 4l-12 -12 l-16 4q-120 -33 -128 -44h-8l-4 4h-4l-12 -12h-8l-4 4h-4l-12 -12h-8l-4 4h-4l-12 -12h-8l-4 4l-96 -32l4 -4v-4h-4l-4 4h-4l-100 -24l-4 4v4q-9 -1 -24 -24h4q-7 -4 -20 -244q0 -261 52 -420l8 -8v-8l-4 -4l48 -104v-4q-11 -20 -32 -20q-41 72 -44 124l-8 8v8l4 4 q-20 60 -44 260v124q0 125 12 272l-4 4l4 4h-4q-64 -8 -64 -20v-4h-12l4 4v4h-12q0 -16 -8 -16l-4 4v4l4 4h-16v-16h-12v4l4 4v4h-16q-8 0 -8 -16h-24v8h16v4h-40v-4h8v-12h-16l-68 -4l-4 4v4l-4 -4h-4q-100 11 -100 28l-228 -340q-217 -288 -296 -288h-24q-50 0 -84 80h4 q9 0 12 -20h4v8l-8 24l-12 -8l-4 4v16h8v-8h4v16q-12 0 -12 8v8zM87 -307h8v20h-4zM163 -115l28 32h4l8 -8v-4q-1 -7 -40 -20zM239 -143l24 8l4 -4v-8l-24 -4l-4 4v4zM755 249q50 -24 136 -24l4 4h4l4 -4q136 12 204 36q80 421 140 564q68 173 212 480l4 20v4h-4 q-354 -510 -704 -1072v-8zM811 181l16 -4l4 4v4h-20v-4zM855 177h36v4h-36v-4zM1250 1455v8l12 12l12 -8q0 24 8 32q-12 0 -12 8v16l8 8h4q8 0 8 -12l4 4h16v-8q0 -8 -12 -8v-4h8q48 24 176 168q8 0 32 32q56 48 94 98q5 21 32 44h12l16 -16v-4q-3 -60 -362 -406h-24l-8 8 v20q-24 0 -24 8zM1671 1593v12h8v-4zM1675 1729v4l8 8h8v-4l-12 -12z" />
<glyph unicode="&#xc2;" horiz-adv-x="1308" d="M83 -303q0 82 100 188q23 0 48 28h16l8 -8v-4q-2 -8 -20 -16l4 -20q-4 -16 -16 -16l4 -4v-20q0 -6 -48 -24q-35 -39 -40 -92q0 -76 40 -76q93 0 260 204q0 14 52 68l204 304l-44 60v4l8 8h4l12 -8l4 32l-16 16v8l12 12h12l8 -8v-24l16 -4q0 28 8 28h12l12 -12l-4 -36 l-12 8h-4l8 -20h8q372 608 764 1160q2 13 40 56v4q-12 0 -12 8q20 37 24 64h4l4 -4h4q24 52 36 52l-4 4v8h8v8l-8 12q8 24 16 24h4q8 0 8 -12q58 72 80 72q24 -9 24 -28q-5 -26 -84 -124l-80 -144q-56 -112 -104 -180q-139 -261 -252 -620q-56 -207 -80 -380h4q0 20 132 48 l4 -4q76 20 88 32h8l4 -4h4l12 12h8l4 -4h4l12 12h8l4 -4h4l12 12l16 -4q119 32 128 44h8l4 -4h4q0 12 36 16l4 -4h4q559 152 1116 152h48q322 0 660 -72l16 4l84 -28l12 4q32 -5 32 -16l4 4h12q17 -14 100 -40l12 4q13 0 60 -28q45 0 184 -76l4 -12q0 -18 -24 -24 q-24 9 -24 16l-4 -4h-4l-16 4v4h8v4h-4l-12 -4v4l-12 12l-8 -8l-8 8l4 4l-4 4h-4l-4 -4q0 16 -24 16l-4 -4q0 9 -44 24q0 13 -68 24q0 10 -96 40l-4 -4h-12l-12 12l-4 -4h-4l-88 28l-12 -4q-87 36 -408 72q-173 16 -332 16q-543 0 -1116 -156q0 -10 -36 -12l-4 4l-12 -12 l-16 4q-120 -33 -128 -44h-8l-4 4h-4l-12 -12h-8l-4 4h-4l-12 -12h-8l-4 4h-4l-12 -12h-8l-4 4l-96 -32l4 -4v-4h-4l-4 4h-4l-100 -24l-4 4v4q-9 -1 -24 -24h4q-7 -4 -20 -244q0 -261 52 -420l8 -8v-8l-4 -4l48 -104v-4q-11 -20 -32 -20q-41 72 -44 124l-8 8v8l4 4 q-20 60 -44 260v124q0 125 12 272l-4 4l4 4h-4q-64 -8 -64 -20v-4h-12l4 4v4h-12q0 -16 -8 -16l-4 4v4l4 4h-16v-16h-12v4l4 4v4h-16q-8 0 -8 -16h-24v8h16v4h-40v-4h8v-12h-16l-68 -4l-4 4v4l-4 -4h-4q-100 11 -100 28l-228 -340q-217 -288 -296 -288h-24q-50 0 -84 80h4 q9 0 12 -20h4v8l-8 24l-12 -8l-4 4v16h8v-8h4v16q-12 0 -12 8v8zM87 -307h8v20h-4zM163 -115l28 32h4l8 -8v-4q-1 -7 -40 -20zM239 -143l24 8l4 -4v-8l-24 -4l-4 4v4zM755 249q50 -24 136 -24l4 4h4l4 -4q136 12 204 36q80 421 140 564q68 173 212 480l4 20v4h-4 q-354 -510 -704 -1072v-8zM811 181l16 -4l4 4v4h-20v-4zM855 177h36v4h-36v-4zM1458 1526l28 40l-12 12q8 18 16 20h20v-12q129 150 156 232q8 0 24 28h4q44 0 44 -64q15 -32 68 -44q18 0 28 -20v-8q-6 -16 -32 -16v-4q16 0 16 -8l-4 -4h-16q-67 0 -108 76h-4l-160 -240 q0 -24 -12 -24h-24l-8 8v12l4 4v4h-8l-12 -4zM1671 1593v12h8v-4zM1675 1729v4l8 8h8v-4l-12 -12z" />
<glyph unicode="&#xc3;" horiz-adv-x="1308" d="M83 -303q0 82 100 188q23 0 48 28h16l8 -8v-4q-2 -8 -20 -16l4 -20q-4 -16 -16 -16l4 -4v-20q0 -6 -48 -24q-35 -39 -40 -92q0 -76 40 -76q93 0 260 204q0 14 52 68l204 304l-44 60v4l8 8h4l12 -8l4 32l-16 16v8l12 12h12l8 -8v-24l16 -4q0 28 8 28h12l12 -12l-4 -36 l-12 8h-4l8 -20h8q372 608 764 1160q2 13 40 56v4q-12 0 -12 8q20 37 24 64h4l4 -4h4q24 52 36 52l-4 4v8h8v8l-8 12q8 24 16 24h4q8 0 8 -12q58 72 80 72q24 -9 24 -28q-5 -26 -84 -124l-80 -144q-56 -112 -104 -180q-139 -261 -252 -620q-56 -207 -80 -380h4q0 20 132 48 l4 -4q76 20 88 32h8l4 -4h4l12 12h8l4 -4h4l12 12h8l4 -4h4l12 12l16 -4q119 32 128 44h8l4 -4h4q0 12 36 16l4 -4h4q559 152 1116 152h48q322 0 660 -72l16 4l84 -28l12 4q32 -5 32 -16l4 4h12q17 -14 100 -40l12 4q13 0 60 -28q45 0 184 -76l4 -12q0 -18 -24 -24 q-24 9 -24 16l-4 -4h-4l-16 4v4h8v4h-4l-12 -4v4l-12 12l-8 -8l-8 8l4 4l-4 4h-4l-4 -4q0 16 -24 16l-4 -4q0 9 -44 24q0 13 -68 24q0 10 -96 40l-4 -4h-12l-12 12l-4 -4h-4l-88 28l-12 -4q-87 36 -408 72q-173 16 -332 16q-543 0 -1116 -156q0 -10 -36 -12l-4 4l-12 -12 l-16 4q-120 -33 -128 -44h-8l-4 4h-4l-12 -12h-8l-4 4h-4l-12 -12h-8l-4 4h-4l-12 -12h-8l-4 4l-96 -32l4 -4v-4h-4l-4 4h-4l-100 -24l-4 4v4q-9 -1 -24 -24h4q-7 -4 -20 -244q0 -261 52 -420l8 -8v-8l-4 -4l48 -104v-4q-11 -20 -32 -20q-41 72 -44 124l-8 8v8l4 4 q-20 60 -44 260v124q0 125 12 272l-4 4l4 4h-4q-64 -8 -64 -20v-4h-12l4 4v4h-12q0 -16 -8 -16l-4 4v4l4 4h-16v-16h-12v4l4 4v4h-16q-8 0 -8 -16h-24v8h16v4h-40v-4h8v-12h-16l-68 -4l-4 4v4l-4 -4h-4q-100 11 -100 28l-228 -340q-217 -288 -296 -288h-24q-50 0 -84 80h4 q9 0 12 -20h4v8l-8 24l-12 -8l-4 4v16h8v-8h4v16q-12 0 -12 8v8zM87 -307h8v20h-4zM163 -115l28 32h4l8 -8v-4q-1 -7 -40 -20zM239 -143l24 8l4 -4v-8l-24 -4l-4 4v4zM755 249q50 -24 136 -24l4 4h4l4 -4q136 12 204 36q80 421 140 564q68 173 212 480l4 20v4h-4 q-354 -510 -704 -1072v-8zM811 181l16 -4l4 4v4h-20v-4zM855 177h36v4h-36v-4zM1470 1587v8l24 28l-12 20q3 15 32 28l4 -12q123 148 176 160q0 9 20 12l24 -4v8h4q0 -14 32 -20q24 -25 36 -168q0 -86 60 -152q37 -24 64 -24q68 0 168 56q24 0 64 48l80 56h8q0 15 64 76h16 l12 -12v-20q-38 -49 -120 -108q0 -7 -40 -36l-4 4h-4q0 -9 -28 -16l-44 -36q-15 -5 -24 -20l-16 -8l-12 4v-8l-4 4h-8v-8l-4 4h-8v-12h-4v8h-8v-12h-4v8q-64 -10 -64 -28l-16 -8h-4q-76 24 -76 36l-16 24q-20 0 -20 8v4h8q-42 35 -64 188l-8 76h-8v-4l4 -12h-8l-8 36l-4 -4 h-16l-4 4q-126 -59 -184 -204l-8 -8h-16l-12 12l8 24l-4 4h-4q0 -12 -8 -12h-4zM1554 1587v4l4 16h8v-16l-8 -8zM1671 1593v12h8v-4zM1675 1729v4l8 8h8v-4l-12 -12zM1694 1835l8 8h4v-8h-12zM1882 1431l24 -8l4 4v4l-24 4h-4v-4z" />
<glyph unicode="&#xc4;" horiz-adv-x="1308" d="M83 -303q0 82 100 188q23 0 48 28h16l8 -8v-4q-2 -8 -20 -16l4 -20q-4 -16 -16 -16l4 -4v-20q0 -6 -48 -24q-35 -39 -40 -92q0 -76 40 -76q93 0 260 204q0 14 52 68l204 304l-44 60v4l8 8h4l12 -8l4 32l-16 16v8l12 12h12l8 -8v-24l16 -4q0 28 8 28h12l12 -12l-4 -36 l-12 8h-4l8 -20h8q372 608 764 1160q2 13 40 56v4q-12 0 -12 8q20 37 24 64h4l4 -4h4q24 52 36 52l-4 4v8h8v8l-8 12q8 24 16 24h4q8 0 8 -12q58 72 80 72q24 -9 24 -28q-5 -26 -84 -124l-80 -144q-56 -112 -104 -180q-139 -261 -252 -620q-56 -207 -80 -380h4q0 20 132 48 l4 -4q76 20 88 32h8l4 -4h4l12 12h8l4 -4h4l12 12h8l4 -4h4l12 12l16 -4q119 32 128 44h8l4 -4h4q0 12 36 16l4 -4h4q559 152 1116 152h48q322 0 660 -72l16 4l84 -28l12 4q32 -5 32 -16l4 4h12q17 -14 100 -40l12 4q13 0 60 -28q45 0 184 -76l4 -12q0 -18 -24 -24 q-24 9 -24 16l-4 -4h-4l-16 4v4h8v4h-4l-12 -4v4l-12 12l-8 -8l-8 8l4 4l-4 4h-4l-4 -4q0 16 -24 16l-4 -4q0 9 -44 24q0 13 -68 24q0 10 -96 40l-4 -4h-12l-12 12l-4 -4h-4l-88 28l-12 -4q-87 36 -408 72q-173 16 -332 16q-543 0 -1116 -156q0 -10 -36 -12l-4 4l-12 -12 l-16 4q-120 -33 -128 -44h-8l-4 4h-4l-12 -12h-8l-4 4h-4l-12 -12h-8l-4 4h-4l-12 -12h-8l-4 4l-96 -32l4 -4v-4h-4l-4 4h-4l-100 -24l-4 4v4q-9 -1 -24 -24h4q-7 -4 -20 -244q0 -261 52 -420l8 -8v-8l-4 -4l48 -104v-4q-11 -20 -32 -20q-41 72 -44 124l-8 8v8l4 4 q-20 60 -44 260v124q0 125 12 272l-4 4l4 4h-4q-64 -8 -64 -20v-4h-12l4 4v4h-12q0 -16 -8 -16l-4 4v4l4 4h-16v-16h-12v4l4 4v4h-16q-8 0 -8 -16h-24v8h16v4h-40v-4h8v-12h-16l-68 -4l-4 4v4l-4 -4h-4q-100 11 -100 28l-228 -340q-217 -288 -296 -288h-24q-50 0 -84 80h4 q9 0 12 -20h4v8l-8 24l-12 -8l-4 4v16h8v-8h4v16q-12 0 -12 8v8zM87 -307h8v20h-4zM163 -115l28 32h4l8 -8v-4q-1 -7 -40 -20zM239 -143l24 8l4 -4v-8l-24 -4l-4 4v4zM755 249q50 -24 136 -24l4 4h4l4 -4q136 12 204 36q80 421 140 564q68 173 212 480l4 20v4h-4 q-354 -510 -704 -1072v-8zM811 181l16 -4l4 4v4h-20v-4zM855 177h36v4h-36v-4zM1562 1697l32 44h16l44 -16l12 4l8 -12v-4l-8 -8h-8l-16 8h-8v-4q21 0 28 -32l-12 -16h-8l4 -20l-8 -8h-24q-52 40 -52 64zM1634 1745v8h12l-8 -8h-4zM1671 1593v12h8v-4zM1675 1729v4l8 8h8v-4 l-12 -12zM1766 1697v4q18 15 24 60q7 0 36 40l64 16v-8h-16l16 -28q-8 -24 -28 -24l4 -4v-4q-20 -13 -20 -40q-12 0 -16 -44l-4 -4h-28l-8 8v12l8 12l-20 -4h-4zM1826 1813v4l8 8h4l8 -8v-4h-20zM1858 1701v4l8 8v-12h-8z" />
<glyph unicode="&#xc5;" horiz-adv-x="1308" d="M83 -303q0 82 100 188q23 0 48 28h16l8 -8v-4q-2 -8 -20 -16l4 -20q-4 -16 -16 -16l4 -4v-20q0 -6 -48 -24q-35 -39 -40 -92q0 -76 40 -76q93 0 260 204q0 14 52 68l204 304l-44 60v4l8 8h4l12 -8l4 32l-16 16v8l12 12h12l8 -8v-24l16 -4q0 28 8 28h12l12 -12l-4 -36 l-12 8h-4l8 -20h8q372 608 764 1160q2 13 40 56v4q-12 0 -12 8q20 37 24 64h4l4 -4h4q24 52 36 52l-4 4v8h8v8l-8 12q8 24 16 24h4q8 0 8 -12q58 72 80 72q24 -9 24 -28q-5 -26 -84 -124l-80 -144q-56 -112 -104 -180q-139 -261 -252 -620q-56 -207 -80 -380h4q0 20 132 48 l4 -4q76 20 88 32h8l4 -4h4l12 12h8l4 -4h4l12 12h8l4 -4h4l12 12l16 -4q119 32 128 44h8l4 -4h4q0 12 36 16l4 -4h4q559 152 1116 152h48q322 0 660 -72l16 4l84 -28l12 4q32 -5 32 -16l4 4h12q17 -14 100 -40l12 4q13 0 60 -28q45 0 184 -76l4 -12q0 -18 -24 -24 q-24 9 -24 16l-4 -4h-4l-16 4v4h8v4h-4l-12 -4v4l-12 12l-8 -8l-8 8l4 4l-4 4h-4l-4 -4q0 16 -24 16l-4 -4q0 9 -44 24q0 13 -68 24q0 10 -96 40l-4 -4h-12l-12 12l-4 -4h-4l-88 28l-12 -4q-87 36 -408 72q-173 16 -332 16q-543 0 -1116 -156q0 -10 -36 -12l-4 4l-12 -12 l-16 4q-120 -33 -128 -44h-8l-4 4h-4l-12 -12h-8l-4 4h-4l-12 -12h-8l-4 4h-4l-12 -12h-8l-4 4l-96 -32l4 -4v-4h-4l-4 4h-4l-100 -24l-4 4v4q-9 -1 -24 -24h4q-7 -4 -20 -244q0 -261 52 -420l8 -8v-8l-4 -4l48 -104v-4q-11 -20 -32 -20q-41 72 -44 124l-8 8v8l4 4 q-20 60 -44 260v124q0 125 12 272l-4 4l4 4h-4q-64 -8 -64 -20v-4h-12l4 4v4h-12q0 -16 -8 -16l-4 4v4l4 4h-16v-16h-12v4l4 4v4h-16q-8 0 -8 -16h-24v8h16v4h-40v-4h8v-12h-16l-68 -4l-4 4v4l-4 -4h-4q-100 11 -100 28l-228 -340q-217 -288 -296 -288h-24q-50 0 -84 80h4 q9 0 12 -20h4v8l-8 24l-12 -8l-4 4v16h8v-8h4v16q-12 0 -12 8v8zM87 -307h8v20h-4zM163 -115l28 32h4l8 -8v-4q-1 -7 -40 -20zM239 -143l24 8l4 -4v-8l-24 -4l-4 4v4zM755 249q50 -24 136 -24l4 4h4l4 -4q136 12 204 36q80 421 140 564q68 173 212 480l4 20v4h-4 q-354 -510 -704 -1072v-8zM811 181l16 -4l4 4v4h-20v-4zM855 177h36v4h-36v-4zM1659 1672q24 91 84 140q30 12 40 24q95 0 156 -104l4 -20q0 -71 -84 -140l-52 -28l-16 -4l-4 4v4l8 8h-16v-4l4 -4v-4l-12 -8q-48 0 -92 56v8q8 0 8 -12h4v4q-20 21 -20 84l-4 -4h-8z M1671 1593v12h8v-4zM1675 1729v4l8 8h8v-4l-12 -12zM1715 1656q7 -56 48 -56h16q54 0 104 68v36q0 26 -40 52l-12 -4l8 -16q-8 -18 -16 -20h-8l-36 40q-64 -19 -64 -96v-4zM1887 1716l4 -12h4v4l-4 12h-4v-4z" />
<glyph unicode="&#xc6;" horiz-adv-x="2106" d="M83 -303q0 82 100 188q23 0 48 28h16l8 -8v-4q-2 -8 -20 -16l4 -20q-4 -16 -16 -16l4 -4v-20q0 -6 -48 -24q-35 -39 -40 -92q0 -76 40 -76q93 0 260 204q0 14 52 68l204 304l-44 60v4l8 8h4l12 -8l4 32l-16 16v8l12 12h12l8 -8v-24l16 -4q0 28 8 28h12l12 -12l-4 -36 l-12 8h-4l8 -20h8q372 608 764 1160q2 13 40 56v4q-12 0 -12 8q20 37 24 64h4l4 -4h4q24 52 36 52l-4 4v8h8v8l-8 12q8 24 16 24h4q8 0 8 -12q58 72 80 72q24 -9 24 -28q-5 -26 -84 -124l-80 -144q-56 -112 -104 -180q-139 -261 -252 -620q-56 -207 -80 -380h4q0 20 132 48 l4 -4q76 20 88 32h8l4 -4h4l12 12h8l4 -4h4l12 12h8l4 -4h4l12 12l16 -4q119 32 128 44h8l4 -4h4q0 12 36 16l4 -4h4q559 152 1116 152h48q322 0 660 -72l16 4l84 -28l12 4q32 -5 32 -16l4 4h12q17 -14 100 -40l12 4q13 0 60 -28q45 0 184 -76l4 -12q0 -18 -24 -24 q-24 9 -24 16l-4 -4h-4l-16 4v4h8v4h-4l-12 -4v4l-12 12l-8 -8l-8 8l4 4l-4 4h-4l-4 -4q0 16 -24 16l-4 -4q0 9 -44 24q0 13 -68 24q0 10 -96 40l-4 -4h-12l-12 12l-4 -4h-4l-88 28l-12 -4q-87 36 -408 72q-173 16 -332 16q-543 0 -1116 -156q0 -10 -36 -12l-4 4l-12 -12 l-16 4q-120 -33 -128 -44h-8l-4 4h-4l-12 -12h-8l-4 4h-4l-12 -12h-8l-4 4h-4l-12 -12h-8l-4 4l-96 -32l4 -4v-4h-4l-4 4h-4l-100 -24l-4 4v4q-9 -1 -24 -24h4q-7 -4 -20 -244q0 -261 52 -420l8 -8v-8l-4 -4l48 -104v-4q-11 -20 -32 -20q-41 72 -44 124l-8 8v8l4 4 q-20 60 -44 260v124q0 125 12 272l-4 4l4 4h-4q-64 -8 -64 -20v-4h-12l4 4v4h-12q0 -16 -8 -16l-4 4v4l4 4h-16v-16h-12v4l4 4v4h-16q-8 0 -8 -16h-24v8h16v4h-40v-4h8v-12h-16l-68 -4l-4 4v4l-4 -4h-4q-100 11 -100 28l-228 -340q-217 -288 -296 -288h-24q-50 0 -84 80h4 q9 0 12 -20h4v8l-8 24l-12 -8l-4 4v16h8v-8h4v16q-12 0 -12 8v8zM87 -307h8v20h-4zM163 -115l28 32h4l8 -8v-4q-1 -7 -40 -20zM239 -143l24 8l4 -4v-8l-24 -4l-4 4v4zM755 249q50 -24 136 -24l4 4h4l4 -4q136 12 204 36q80 421 140 564q68 173 212 480l4 20v4h-4 q-354 -510 -704 -1072v-8zM811 181l16 -4l4 4v4h-20v-4zM855 177h36v4h-36v-4zM1109 336q13 11 43 128q68 149 174 298q161 172 333 303q74 52 154 94v4l-47 13l-5 -4h-4q-24 0 -64 60v8q0 9 13 9v8h-9q44 120 90 120q53 61 90 81h21q0 19 77 46q0 9 47 30l25 -4q0 11 64 30 q14 18 77 30l4 -5h4q19 9 69 9h17q114 0 132 -81l13 -34v-4q-21 -33 -39 -94l-4 -4h-13l-17 17l9 25l-5 4h-4q0 -12 -8 -12h-5l-8 8q0 16 17 43v25q0 35 -64 43l-34 4v5l21 4v-4l4 4h5l4 -4h4l5 4v4h-56v-4l4 -13l-4 -4l-34 4l-43 -13l-4 5h-4l-17 -5h-5q0 13 -8 13h-4 l-64 -17v4q-13 0 -13 -17q-162 -75 -162 -98q-15 0 -39 -25q-27 0 -51 -43q-37 -43 -38 -68q0 -47 107 -47q49 0 166 38q25 -9 25 -34q-17 -21 -17 -38l-51 -13l-4 4h-4l-22 -4v4l-42 -17l-9 9l-25 -18v5q-138 -44 -397 -273q-178 -174 -192 -226q-132 -207 -132 -290 l-9 -21l5 -18l-9 -8q22 -201 56 -201v-12l-5 -5v-4q136 -126 209 -132q56 -26 73 -26l21 5l13 -13h128q238 0 499 89l17 5l8 -13q0 -18 -230 -77q-145 -30 -290 -30h-119l-43 -4q0 10 -51 21l-13 -4q-22 0 -145 77q-115 92 -115 123q-25 67 -47 218zM1671 1593v12h8v-4z M1675 1729v4l8 8h8v-4l-12 -12zM1706 1227l4 -13h9q-7 18 -13 18v-5zM1774 1185q0 -8 26 -13l4 4v4zM1808 1172l13 -4l4 4v4h-17v-4zM2201 1534l21 5v4h-21v-9zM2422 1419l5 21h8v-21h-13z" />
<glyph unicode="&#xc7;" horiz-adv-x="1378" d="M-350 1088l28 55l-5 14l23 19l5 -5v5l-5 4v5l70 60q66 28 107 28h9q62 0 412 -97q51 -4 51 -14l24 4q25 -18 102 -18q207 199 408 324l139 79q14 0 32 19l19 4h4l10 -9q41 14 60 37l56 9l4 -4h5q17 14 102 23q148 -22 148 -107v-41q-51 -129 -157 -177v5l-28 -23l-5 5h-4 q0 -13 -51 -19q-39 -30 -98 -51q-3 -18 -102 -32q-156 -56 -176 -56l-14 5l-23 -14l-23 4l-10 -9l-37 5q-14 -14 -111 -24l-51 10l-93 -5q-231 -275 -264 -454q-12 -18 -32 -167q18 -183 55 -241q25 -24 37 -56q78 -97 130 -116q68 -56 130 -65l42 -23l28 5q0 -16 143 -24h5 l5 -4l4 4l51 -4q335 -6 604 91l9 -14v-4q0 -18 -316 -82q-136 -19 -264 -19h-28l-204 14l-23 -5l-112 37q-14 24 -79 42q-87 75 -171 172q-7 0 -14 18q-14 0 -14 42q-27 46 -51 232q34 224 111 371q81 131 190 259l-55 10l-19 -5q-66 0 -296 60l-5 -14l-23 10l-5 -5h-5l-9 9 l-4 -4h-5l-9 9l-5 -5q-70 20 -70 28l10 9h-23l4 -4v-14h-18l-10 9q-167 -32 -167 -107l-18 -55l-5 -5h-14l-18 19l4 28v4h-4q0 -14 -9 -14h-10zM-248 1092v14h9v-14h-9zM-123 1213h28v4l-23 5l-5 -5v-4zM-49 1213l10 -10l4 5v5h-14zM146 1143v14h9v-14h-9zM522 1152l9 -9h42 l37 9h42l51 5l23 -5l32 14l23 -4l10 9l32 -5q0 13 46 19l19 -5q125 34 185 70q30 0 89 37q39 0 55 32q163 78 186 163h4v23q-18 0 -18 32l-23 14l-5 -4h-5l-28 13l-18 -4l-19 4h-14v5l5 5v4h-42l-18 5q-36 -23 -84 -23l-4 4v5q-34 -7 -61 -37q-33 -5 -51 -23 q-128 -25 -440 -297zM783 -325q44 63 64 76q47 46 68 80v8h-4q-56 -5 -56 -52l-4 -4h-20l-8 8v8l4 20h-4l-12 -8h-4q-8 0 -8 12l24 36l-4 24l16 20h4q8 0 8 -16q27 16 84 24q48 -25 48 -56q-5 -32 -24 -56q0 -12 -48 -44q-49 -57 -84 -116h-8q-6 0 -16 28l-4 -4h-12v12z M883 -173h12l-8 -8l-4 4v4zM1319 1570l14 -5l5 5v4h-19v-4z" />
<glyph unicode="&#xc8;" horiz-adv-x="958" d="M27 169q13 11 43 128q68 149 174 298q161 172 333 303q74 52 154 94v4l-47 13l-5 -4h-4q-24 0 -64 60v8q0 9 13 9v8h-9q44 120 90 120q53 61 90 81h21q0 19 77 46q0 9 47 30l25 -4q0 11 64 30q14 18 77 30l4 -5h4q19 9 69 9h17q114 0 132 -81l13 -34v-4q-21 -33 -39 -94 l-4 -4h-13l-17 17l9 25l-5 4h-4q0 -12 -8 -12h-5l-8 8q0 16 17 43v25q0 35 -64 43l-34 4v5l21 4v-4l4 4h5l4 -4h4l5 4v4h-56v-4l4 -13l-4 -4l-34 4l-43 -13l-4 5h-4l-17 -5h-5q0 13 -8 13h-4l-64 -17v4q-13 0 -13 -17q-162 -75 -162 -98q-15 0 -39 -25q-27 0 -51 -43 q-37 -43 -38 -68q0 -47 107 -47q49 0 166 38q25 -9 25 -34q-17 -21 -17 -38l-51 -13l-4 4h-4l-22 -4v4l-42 -17l-9 9l-25 -18v5q-138 -44 -397 -273q-178 -174 -192 -226q-132 -207 -132 -290l-9 -21l5 -18l-9 -8q22 -201 56 -201v-12l-5 -5v-4q136 -126 209 -132 q56 -26 73 -26l21 5l13 -13h128q238 0 499 89l17 5l8 -13q0 -18 -230 -77q-145 -30 -290 -30h-119l-43 -4q0 10 -51 21l-13 -4q-22 0 -145 77q-115 92 -115 123q-25 67 -47 218zM624 1060l4 -13h9q-7 18 -13 18v-5zM692 1018q0 -8 26 -13l4 4v4zM726 1005l13 -4l4 4v4h-17 v-4zM999 1750l4 12l-4 24v4q0 8 16 8l4 12l-8 24v4l12 12h8q9 0 12 -20l-4 -4l20 -4q5 20 12 20l8 -8v-4l-4 -4l4 -4v-4l-16 -64q0 -139 188 -292q0 -13 60 -32q2 -9 68 -40l12 4q68 -19 68 -32v-12l-12 -12h-16l-124 60q-20 0 -68 36l-20 4v-8h-4q-42 12 -52 36 q-12 0 -20 36l-4 -4h-4l-16 16l4 4v8q-28 0 -28 16l4 4v4q-16 0 -16 8l4 12l-16 4l4 4v8q-56 95 -56 156h-4l-4 -4h-4zM1007 1726v8h8l4 -24h-4l4 -4v-8h-8zM1019 1678v8l8 -8v-8zM1083 1786v4l4 4h4l4 -4v-4l-4 -4h-4zM1119 1367l21 5v4h-21v-9zM1340 1252l5 21h8v-21h-13z " />
<glyph unicode="&#xc9;" horiz-adv-x="1151" d="M134 346q13 11 43 128q68 149 174 298q161 172 333 303q74 52 154 94v4l-47 13l-5 -4h-4q-24 0 -64 60v8q0 9 13 9v8h-9q44 120 90 120q53 61 90 81h21q0 19 77 46q0 9 47 30l25 -4q0 11 64 30q14 18 77 30l4 -5h4q19 9 69 9h17q114 0 132 -81l13 -34v-4q-21 -33 -39 -94 l-4 -4h-13l-17 17l9 25l-5 4h-4q0 -12 -8 -12h-5l-8 8q0 16 17 43v25q0 35 -64 43l-34 4v5l21 4v-4l4 4h5l4 -4h4l5 4v4h-56v-4l4 -13l-4 -4l-34 4l-43 -13l-4 5h-4l-17 -5h-5q0 13 -8 13h-4l-64 -17v4q-13 0 -13 -17q-162 -75 -162 -98q-15 0 -39 -25q-27 0 -51 -43 q-37 -43 -38 -68q0 -47 107 -47q49 0 166 38q25 -9 25 -34q-17 -21 -17 -38l-51 -13l-4 4h-4l-22 -4v4l-42 -17l-9 9l-25 -18v5q-138 -44 -397 -273q-178 -174 -192 -226q-132 -207 -132 -290l-9 -21l5 -18l-9 -8q22 -201 56 -201v-12l-5 -5v-4q136 -126 209 -132 q56 -26 73 -26l21 5l13 -13h128q238 0 499 89l17 5l8 -13q0 -18 -230 -77q-145 -30 -290 -30h-119l-43 -4q0 10 -51 21l-13 -4q-22 0 -145 77q-115 92 -115 123q-25 67 -47 218zM731 1237l4 -13h9q-7 18 -13 18v-5zM755 1444v8l12 12l12 -8q0 24 8 32q-12 0 -12 8v16l8 8h4 q8 0 8 -12l4 4h16v-8q0 -8 -12 -8v-4h8q48 24 176 168q8 0 32 32q56 48 94 98q5 21 32 44h12l16 -16v-4q-3 -60 -362 -406h-24l-8 8v20q-24 0 -24 8zM799 1195q0 -8 26 -13l4 4v4zM833 1182l13 -4l4 4v4h-17v-4zM1226 1544l21 5v4h-21v-9zM1447 1429l5 21h8v-21h-13z" />
<glyph unicode="&#xca;" horiz-adv-x="1151" d="M134 346q13 11 43 128q68 149 174 298q161 172 333 303q74 52 154 94v4l-47 13l-5 -4h-4q-24 0 -64 60v8q0 9 13 9v8h-9q44 120 90 120q53 61 90 81h21q0 19 77 46q0 9 47 30l25 -4q0 11 64 30q14 18 77 30l4 -5h4q19 9 69 9h17q114 0 132 -81l13 -34v-4q-21 -33 -39 -94 l-4 -4h-13l-17 17l9 25l-5 4h-4q0 -12 -8 -12h-5l-8 8q0 16 17 43v25q0 35 -64 43l-34 4v5l21 4v-4l4 4h5l4 -4h4l5 4v4h-56v-4l4 -13l-4 -4l-34 4l-43 -13l-4 5h-4l-17 -5h-5q0 13 -8 13h-4l-64 -17v4q-13 0 -13 -17q-162 -75 -162 -98q-15 0 -39 -25q-27 0 -51 -43 q-37 -43 -38 -68q0 -47 107 -47q49 0 166 38q25 -9 25 -34q-17 -21 -17 -38l-51 -13l-4 4h-4l-22 -4v4l-42 -17l-9 9l-25 -18v5q-138 -44 -397 -273q-178 -174 -192 -226q-132 -207 -132 -290l-9 -21l5 -18l-9 -8q22 -201 56 -201v-12l-5 -5v-4q136 -126 209 -132 q56 -26 73 -26l21 5l13 -13h128q238 0 499 89l17 5l8 -13q0 -18 -230 -77q-145 -30 -290 -30h-119l-43 -4q0 10 -51 21l-13 -4q-22 0 -145 77q-115 92 -115 123q-25 67 -47 218zM731 1237l4 -13h9q-7 18 -13 18v-5zM791 1510l28 40l-12 12q8 18 16 20h20v-12 q129 150 156 232q8 0 24 28h4q44 0 44 -64q15 -32 68 -44q18 0 28 -20v-8q-6 -16 -32 -16v-4q16 0 16 -8l-4 -4h-16q-67 0 -108 76h-4l-160 -240q0 -24 -12 -24h-24l-8 8v12l4 4v4h-8l-12 -4zM799 1195q0 -8 26 -13l4 4v4zM833 1182l13 -4l4 4v4h-17v-4zM1226 1544l21 5v4 h-21v-9zM1447 1429l5 21h8v-21h-13z" />
<glyph unicode="&#xcb;" horiz-adv-x="1151" d="M134 346q13 11 43 128q68 149 174 298q161 172 333 303q74 52 154 94v4l-47 13l-5 -4h-4q-24 0 -64 60v8q0 9 13 9v8h-9q44 120 90 120q53 61 90 81h21q0 19 77 46q0 9 47 30l25 -4q0 11 64 30q14 18 77 30l4 -5h4q19 9 69 9h17q114 0 132 -81l13 -34v-4q-21 -33 -39 -94 l-4 -4h-13l-17 17l9 25l-5 4h-4q0 -12 -8 -12h-5l-8 8q0 16 17 43v25q0 35 -64 43l-34 4v5l21 4v-4l4 4h5l4 -4h4l5 4v4h-56v-4l4 -13l-4 -4l-34 4l-43 -13l-4 5h-4l-17 -5h-5q0 13 -8 13h-4l-64 -17v4q-13 0 -13 -17q-162 -75 -162 -98q-15 0 -39 -25q-27 0 -51 -43 q-37 -43 -38 -68q0 -47 107 -47q49 0 166 38q25 -9 25 -34q-17 -21 -17 -38l-51 -13l-4 4h-4l-22 -4v4l-42 -17l-9 9l-25 -18v5q-138 -44 -397 -273q-178 -174 -192 -226q-132 -207 -132 -290l-9 -21l5 -18l-9 -8q22 -201 56 -201v-12l-5 -5v-4q136 -126 209 -132 q56 -26 73 -26l21 5l13 -13h128q238 0 499 89l17 5l8 -13q0 -18 -230 -77q-145 -30 -290 -30h-119l-43 -4q0 10 -51 21l-13 -4q-22 0 -145 77q-115 92 -115 123q-25 67 -47 218zM731 1237l4 -13h9q-7 18 -13 18v-5zM799 1195q0 -8 26 -13l4 4v4zM833 1182l13 -4l4 4v4h-17 v-4zM933 1697l32 44h16l44 -16l12 4l8 -12v-4l-8 -8h-8l-16 8h-8v-4q21 0 28 -32l-12 -16h-8l4 -20l-8 -8h-24q-52 40 -52 64zM1005 1745v8h12l-8 -8h-4zM1137 1697v4q18 15 24 60q7 0 36 40l64 16v-8h-16l16 -28q-8 -24 -28 -24l4 -4v-4q-20 -13 -20 -40q-12 0 -16 -44 l-4 -4h-28l-8 8v12l8 12l-20 -4h-4zM1197 1813v4l8 8h4l8 -8v-4h-20zM1226 1544l21 5v4h-21v-9zM1229 1701v4l8 8v-12h-8zM1447 1429l5 21h8v-21h-13z" />
<glyph unicode="&#xcc;" horiz-adv-x="219" d="M29 494l4 28v16h8v12h-8v36l8 8l4 -4v8l-4 12h8v8h-8v4h8v4l-4 20l4 4h4l-4 4v12l8 8l-4 4v12h8l-4 12q0 13 12 24l-4 12l8 8l-4 4l8 8l-4 4v4q6 16 12 16l-4 4v4l8 12l-4 4q7 0 28 72l4 12h4l-4 4v4q16 25 60 148q7 0 16 36l40 76q58 146 256 408q63 72 84 72h12 q24 -14 24 -48h-4l4 -4q-40 -202 -148 -520q-13 0 -48 -136q-7 0 -32 -64l4 -12q0 -13 -24 -52q-164 -418 -178 -513l-52 -220l4 -24q-9 0 -16 -36l4 -24q-10 0 -12 -16l4 -24l-8 -16l4 -4v-4q-5 -32 -12 -32l4 -4v-4l-8 -44l4 -4q-13 -129 -20 -136q-8 0 -8 -12l-4 -4h-8 q-6 0 -16 28l-4 -4h-4l-4 4l16 52h-8v4l12 16v4l-4 16l28 136h4l-4 4v4q0 13 12 28l-4 28q11 0 16 40l-4 20q13 0 36 136q60 253 206 621q0 24 44 112l-4 12l48 124v8l-4 4v4q44 118 76 236l-4 4l8 8l-4 4q8 0 12 28l-4 4l8 8l-4 4l4 4h4l-4 4v4l8 8l-4 4v4l8 12l-4 4l4 4h4 l-4 4l12 32l-4 4v4l12 48l-4 4l4 20v12h-4l-80 -96l-64 -88q-116 -177 -192 -368q-116 -288 -116 -456l4 -4v-4l-4 -4v-4q0 -12 12 -12v-8h-8q0 -18 24 -36v-20q0 -12 -16 -12l8 -12v-8l-8 -8h-28q-40 39 -40 56v12l4 4v4l-4 4h-4zM41 490l4 -12h4v12h-8zM105 498v8l20 4h4 l8 -8v-8l-12 -12h-4zM478 1750l4 12l-4 24v4q0 8 16 8l4 12l-8 24v4l12 12h8q9 0 12 -20l-4 -4l20 -4q5 20 12 20l8 -8v-4l-4 -4l4 -4v-4l-16 -64q0 -139 188 -292q0 -13 60 -32q2 -9 68 -40l12 4q68 -19 68 -32v-12l-12 -12h-16l-124 60q-20 0 -68 36l-20 4v-8h-4 q-42 12 -52 36q-12 0 -20 36l-4 -4h-4l-16 16l4 4v8q-28 0 -28 16l4 4v4q-16 0 -16 8l4 12l-16 4l4 4v8q-56 95 -56 156h-4l-4 -4h-4zM486 1726v8h8l4 -24h-4l4 -4v-8h-8zM498 1678v8l8 -8v-8zM562 1786v4l4 4h4l4 -4v-4l-4 -4h-4z" />
<glyph unicode="&#xcd;" horiz-adv-x="219" d="M29 494l4 28v16h8v12h-8v36l8 8l4 -4v8l-4 12h8v8h-8v4h8v4l-4 20l4 4h4l-4 4v12l8 8l-4 4v12h8l-4 12q0 13 12 24l-4 12l8 8l-4 4l8 8l-4 4v4q6 16 12 16l-4 4v4l8 12l-4 4q7 0 28 72l4 12h4l-4 4v4q16 25 60 148q7 0 16 36l40 76q58 146 256 408q63 72 84 72h12 q24 -14 24 -48h-4l4 -4q-40 -202 -148 -520q-13 0 -48 -136q-7 0 -32 -64l4 -12q0 -13 -24 -52q-164 -418 -178 -513l-52 -220l4 -24q-9 0 -16 -36l4 -24q-10 0 -12 -16l4 -24l-8 -16l4 -4v-4q-5 -32 -12 -32l4 -4v-4l-8 -44l4 -4q-13 -129 -20 -136q-8 0 -8 -12l-4 -4h-8 q-6 0 -16 28l-4 -4h-4l-4 4l16 52h-8v4l12 16v4l-4 16l28 136h4l-4 4v4q0 13 12 28l-4 28q11 0 16 40l-4 20q13 0 36 136q60 253 206 621q0 24 44 112l-4 12l48 124v8l-4 4v4q44 118 76 236l-4 4l8 8l-4 4q8 0 12 28l-4 4l8 8l-4 4l4 4h4l-4 4v4l8 8l-4 4v4l8 12l-4 4l4 4h4 l-4 4l12 32l-4 4v4l12 48l-4 4l4 20v12h-4l-80 -96l-64 -88q-116 -177 -192 -368q-116 -288 -116 -456l4 -4v-4l-4 -4v-4q0 -12 12 -12v-8h-8q0 -18 24 -36v-20q0 -12 -16 -12l8 -12v-8l-8 -8h-28q-40 39 -40 56v12l4 4v4l-4 4h-4zM41 490l4 -12h4v12h-8zM105 498v8l20 4h4 l8 -8v-8l-12 -12h-4zM228 1461v8l12 12l12 -8q0 24 8 32q-12 0 -12 8v16l8 8h4q8 0 8 -12l4 4h16v-8q0 -8 -12 -8v-4h8q48 24 176 168q8 0 32 32q56 48 94 98q5 21 32 44h12l16 -16v-4q-3 -60 -362 -406h-24l-8 8v20q-24 0 -24 8z" />
<glyph unicode="&#xce;" horiz-adv-x="219" d="M29 494l4 28v16h8v12h-8v36l8 8l4 -4v8l-4 12h8v8h-8v4h8v4l-4 20l4 4h4l-4 4v12l8 8l-4 4v12h8l-4 12q0 13 12 24l-4 12l8 8l-4 4l8 8l-4 4v4q6 16 12 16l-4 4v4l8 12l-4 4q7 0 28 72l4 12h4l-4 4v4q16 25 60 148q7 0 16 36l40 76q58 146 256 408q63 72 84 72h12 q24 -14 24 -48h-4l4 -4q-40 -202 -148 -520q-13 0 -48 -136q-7 0 -32 -64l4 -12q0 -13 -24 -52q-164 -418 -178 -513l-52 -220l4 -24q-9 0 -16 -36l4 -24q-10 0 -12 -16l4 -24l-8 -16l4 -4v-4q-5 -32 -12 -32l4 -4v-4l-8 -44l4 -4q-13 -129 -20 -136q-8 0 -8 -12l-4 -4h-8 q-6 0 -16 28l-4 -4h-4l-4 4l16 52h-8v4l12 16v4l-4 16l28 136h4l-4 4v4q0 13 12 28l-4 28q11 0 16 40l-4 20q13 0 36 136q60 253 206 621q0 24 44 112l-4 12l48 124v8l-4 4v4q44 118 76 236l-4 4l8 8l-4 4q8 0 12 28l-4 4l8 8l-4 4l4 4h4l-4 4v4l8 8l-4 4v4l8 12l-4 4l4 4h4 l-4 4l12 32l-4 4v4l12 48l-4 4l4 20v12h-4l-80 -96l-64 -88q-116 -177 -192 -368q-116 -288 -116 -456l4 -4v-4l-4 -4v-4q0 -12 12 -12v-8h-8q0 -18 24 -36v-20q0 -12 -16 -12l8 -12v-8l-8 -8h-28q-40 39 -40 56v12l4 4v4l-4 4h-4zM41 490l4 -12h4v12h-8zM105 498v8l20 4h4 l8 -8v-8l-12 -12h-4zM324 1516l28 40l-12 12q8 18 16 20h20v-12q129 150 156 232q8 0 24 28h4q44 0 44 -64q15 -32 68 -44q18 0 28 -20v-8q-6 -16 -32 -16v-4q16 0 16 -8l-4 -4h-16q-67 0 -108 76h-4l-160 -240q0 -24 -12 -24h-24l-8 8v12l4 4v4h-8l-12 -4z" />
<glyph unicode="&#xcf;" horiz-adv-x="219" d="M29 494l4 28v16h8v12h-8v36l8 8l4 -4v8l-4 12h8v8h-8v4h8v4l-4 20l4 4h4l-4 4v12l8 8l-4 4v12h8l-4 12q0 13 12 24l-4 12l8 8l-4 4l8 8l-4 4v4q6 16 12 16l-4 4v4l8 12l-4 4q7 0 28 72l4 12h4l-4 4v4q16 25 60 148q7 0 16 36l40 76q58 146 256 408q63 72 84 72h12 q24 -14 24 -48h-4l4 -4q-40 -202 -148 -520q-13 0 -48 -136q-7 0 -32 -64l4 -12q0 -13 -24 -52q-164 -418 -178 -513l-52 -220l4 -24q-9 0 -16 -36l4 -24q-10 0 -12 -16l4 -24l-8 -16l4 -4v-4q-5 -32 -12 -32l4 -4v-4l-8 -44l4 -4q-13 -129 -20 -136q-8 0 -8 -12l-4 -4h-8 q-6 0 -16 28l-4 -4h-4l-4 4l16 52h-8v4l12 16v4l-4 16l28 136h4l-4 4v4q0 13 12 28l-4 28q11 0 16 40l-4 20q13 0 36 136q60 253 206 621q0 24 44 112l-4 12l48 124v8l-4 4v4q44 118 76 236l-4 4l8 8l-4 4q8 0 12 28l-4 4l8 8l-4 4l4 4h4l-4 4v4l8 8l-4 4v4l8 12l-4 4l4 4h4 l-4 4l12 32l-4 4v4l12 48l-4 4l4 20v12h-4l-80 -96l-64 -88q-116 -177 -192 -368q-116 -288 -116 -456l4 -4v-4l-4 -4v-4q0 -12 12 -12v-8h-8q0 -18 24 -36v-20q0 -12 -16 -12l8 -12v-8l-8 -8h-28q-40 39 -40 56v12l4 4v4l-4 4h-4zM41 490l4 -12h4v12h-8zM105 498v8l20 4h4 l8 -8v-8l-12 -12h-4zM407 1707l32 44h16l44 -16l12 4l8 -12v-4l-8 -8h-8l-16 8h-8v-4q21 0 28 -32l-12 -16h-8l4 -20l-8 -8h-24q-52 40 -52 64zM479 1755v8h12l-8 -8h-4zM611 1707v4q18 15 24 60q7 0 36 40l64 16v-8h-16l16 -28q-8 -24 -28 -24l4 -4v-4q-20 -13 -20 -40 q-12 0 -16 -44l-4 -4h-28l-8 8v12l8 12l-20 -4h-4zM671 1823v4l8 8h4l8 -8v-4h-20zM703 1711v4l8 8v-12h-8z" />
<glyph unicode="&#xd0;" horiz-adv-x="1518" />
<glyph unicode="&#xd1;" horiz-adv-x="814" d="M15 8v4q24 21 32 40q-12 0 -12 8v8q0 7 28 24q8 0 8 -16l52 48q3 19 140 176l57 68l36 60l104 156q31 48 88 208q97 219 160 328q10 51 112 152l28 8q22 0 32 -20v-16q-41 -109 -84 -148q0 -26 -64 -108l-224 -376q-88 -308 -88 -408v-76l-4 -4l4 -4l-4 -48v-88l8 -8 q0 22 72 56q94 102 120 168q69 81 176 284q254 436 348 760l-8 24h-4l12 24h-8v8h8v52l16 16h12l16 -16v-36q0 -42 -48 -168q-93 -286 -440 -892q-38 -94 -148 -240q-82 -96 -112 -96l-12 8v-4q0 -105 52 -276q118 -309 309 -505t430 -289t497 -56.5t392 162.5 q72 66 104 156q36 110 36 228l-8 112l12 8q16 0 24 -120q0 -147 -64 -296q-37 -58 -124 -144q-148 -113 -424.5 -136.5t-487.5 71t-387.5 279.5t-220.5 286q-34 47 -132 296q-40 210 -40 344h4l-4 4l4 48v40q0 173 68 404v4h-4l-56 -104q-10 -23 -28 -36q0 -21 -44 -68 q0 -15 -49 -60q0 -15 -148 -180l-40 -80q-14 -32 -28 -44h-20l-8 8v4l8 24l-4 4h-4l-12 -12h-4zM103 12v4l12 12v-8l-8 -8h-4zM420 16l16 16l28 -4q-17 -24 -36 -24zM420 -48v-12h4l8 16v4h-4zM556 744h4q177 295 188 328l16 28q15 8 52 100h-8q-141 -172 -184 -304 q-24 -40 -68 -148v-4zM625 1550v8l24 28l-12 20q3 15 32 28l4 -12q123 148 176 160q0 9 20 12l24 -4v8h4q0 -14 32 -20q24 -25 36 -168q0 -86 60 -152q37 -24 64 -24q68 0 168 56q24 0 64 48l80 56h8q0 15 64 76h16l12 -12v-20q-38 -49 -120 -108q0 -7 -40 -36l-4 4h-4 q0 -9 -28 -16l-44 -36q-15 -5 -24 -20l-16 -8l-12 4v-8l-4 4h-8v-8l-4 4h-8v-12h-4v8h-8v-12h-4v8q-64 -10 -64 -28l-16 -8h-4q-76 24 -76 36l-16 24q-20 0 -20 8v4h8q-42 35 -64 188l-8 76h-8v-4l4 -12h-8l-8 36l-4 -4h-16l-4 4q-126 -59 -184 -204l-8 -8h-16l-12 12l8 24 l-4 4h-4q0 -12 -8 -12h-4zM709 1550v4l4 16h8v-16l-8 -8zM849 1798l8 8h4v-8h-12zM1037 1394l24 -8l4 4v4l-24 4h-4v-4z" />
<glyph unicode="&#xd2;" d="M-14 212q0 246 160 560q73 110 208 260q95 79 220 156q0 19 116 40l40 8l8 8l20 -4l4 4v4l224 -20l20 4q10 0 56 -32l4 4h12q42 -36 84 -44q0 -6 48 -28q58 -57 80 -96q44 -41 48 -76l-4 -4q16 -5 16 -36l-4 -4q8 0 12 -32l-4 -12q3 -56 12 -56l-4 -40v-4l8 -24 q-3 -33 -20 -52v-4l4 -28q-13 0 -44 -88q-157 -334 -524 -544q-3 -9 -136 -60q-154 -72 -284 -72l-88 -4l-60 20l-12 -4q-32 28 -32 36l-4 -4h-8q0 16 -8 16l-4 -4h-4q0 13 -32 48q-35 59 -48 104l4 12l-4 60v72l-4 36q16 34 56 196q0 18 16 28q15 53 28 64q13 20 24 60 q103 197 216 224h28l12 8q22 -7 40 -28v4l-4 16l4 4h4q32 -5 32 -32l-12 -4l-12 4l8 -24v-12q0 -12 -16 -12l8 -24l-16 -12h-8q-43 48 -60 52q-61 -19 -104 -64q-48 -48 -112 -164q-8 0 -8 -28q-15 0 -36 -72q-10 0 -48 -156l4 -16q-16 -48 -16 -116q0 -28 16 -76l-4 -12 q10 -5 44 -68q85 -96 184 -96l4 -4h36q166 0 388 124q0 5 40 16q356 214 496 536l24 84l4 12h4l-8 20l16 52v8q0 20 -8 20l4 40v8l-28 104l-24 44l-24 44l-40 28l4 4l-20 4v4l4 4v4l-48 36l-64 40q-21 0 -60 24l-88 20l-92 8h-64l-12 -8l-20 4l-8 -8l-16 4q-45 0 -100 -32 q-104 -22 -296 -200q-194 -233 -204 -300q-116 -226 -116 -468l-4 -4h-12zM518 792v8h4l8 -8l-4 -4h-4zM639 1653l4 12l-4 24v4q0 8 16 8l4 12l-8 24v4l12 12h8q9 0 12 -20l-4 -4l20 -4q5 20 12 20l8 -8v-4l-4 -4l4 -4v-4l-16 -64q0 -139 188 -292q0 -13 60 -32q2 -9 68 -40 l12 4q68 -19 68 -32v-12l-12 -12h-16l-124 60q-20 0 -68 36l-20 4v-8h-4q-42 12 -52 36q-12 0 -20 36l-4 -4h-4l-16 16l4 4v8q-28 0 -28 16l4 4v4q-16 0 -16 8l4 12l-16 4l4 4v8q-56 95 -56 156h-4l-4 -4h-4zM647 1629v8h8l4 -24h-4l4 -4v-8h-8zM659 1581v8l8 -8v-8z M723 1689v4l4 4h4l4 -4v-4l-4 -4h-4z" />
<glyph unicode="&#xd3;" d="M-14 212q0 246 160 560q73 110 208 260q95 79 220 156q0 19 116 40l40 8l8 8l20 -4l4 4v4l224 -20l20 4q10 0 56 -32l4 4h12q42 -36 84 -44q0 -6 48 -28q58 -57 80 -96q44 -41 48 -76l-4 -4q16 -5 16 -36l-4 -4q8 0 12 -32l-4 -12q3 -56 12 -56l-4 -40v-4l8 -24 q-3 -33 -20 -52v-4l4 -28q-13 0 -44 -88q-157 -334 -524 -544q-3 -9 -136 -60q-154 -72 -284 -72l-88 -4l-60 20l-12 -4q-32 28 -32 36l-4 -4h-8q0 16 -8 16l-4 -4h-4q0 13 -32 48q-35 59 -48 104l4 12l-4 60v72l-4 36q16 34 56 196q0 18 16 28q15 53 28 64q13 20 24 60 q103 197 216 224h28l12 8q22 -7 40 -28v4l-4 16l4 4h4q32 -5 32 -32l-12 -4l-12 4l8 -24v-12q0 -12 -16 -12l8 -24l-16 -12h-8q-43 48 -60 52q-61 -19 -104 -64q-48 -48 -112 -164q-8 0 -8 -28q-15 0 -36 -72q-10 0 -48 -156l4 -16q-16 -48 -16 -116q0 -28 16 -76l-4 -12 q10 -5 44 -68q85 -96 184 -96l4 -4h36q166 0 388 124q0 5 40 16q356 214 496 536l24 84l4 12h4l-8 20l16 52v8q0 20 -8 20l4 40v8l-28 104l-24 44l-24 44l-40 28l4 4l-20 4v4l4 4v4l-48 36l-64 40q-21 0 -60 24l-88 20l-92 8h-64l-12 -8l-20 4l-8 -8l-16 4q-45 0 -100 -32 q-104 -22 -296 -200q-194 -233 -204 -300q-116 -226 -116 -468l-4 -4h-12zM518 792v8h4l8 -8l-4 -4h-4zM609 1315v8l12 12l12 -8q0 24 8 32q-12 0 -12 8v16l8 8h4q8 0 8 -12l4 4h16v-8q0 -8 -12 -8v-4h8q48 24 176 168q8 0 32 32q56 48 94 98q5 21 32 44h12l16 -16v-4 q-3 -60 -362 -406h-24l-8 8v20q-24 0 -24 8z" />
<glyph unicode="&#xd4;" d="M-14 212q0 246 160 560q73 110 208 260q95 79 220 156q0 19 116 40l40 8l8 8l20 -4l4 4v4l224 -20l20 4q10 0 56 -32l4 4h12q42 -36 84 -44q0 -6 48 -28q58 -57 80 -96q44 -41 48 -76l-4 -4q16 -5 16 -36l-4 -4q8 0 12 -32l-4 -12q3 -56 12 -56l-4 -40v-4l8 -24 q-3 -33 -20 -52v-4l4 -28q-13 0 -44 -88q-157 -334 -524 -544q-3 -9 -136 -60q-154 -72 -284 -72l-88 -4l-60 20l-12 -4q-32 28 -32 36l-4 -4h-8q0 16 -8 16l-4 -4h-4q0 13 -32 48q-35 59 -48 104l4 12l-4 60v72l-4 36q16 34 56 196q0 18 16 28q15 53 28 64q13 20 24 60 q103 197 216 224h28l12 8q22 -7 40 -28v4l-4 16l4 4h4q32 -5 32 -32l-12 -4l-12 4l8 -24v-12q0 -12 -16 -12l8 -24l-16 -12h-8q-43 48 -60 52q-61 -19 -104 -64q-48 -48 -112 -164q-8 0 -8 -28q-15 0 -36 -72q-10 0 -48 -156l4 -16q-16 -48 -16 -116q0 -28 16 -76l-4 -12 q10 -5 44 -68q85 -96 184 -96l4 -4h36q166 0 388 124q0 5 40 16q356 214 496 536l24 84l4 12h4l-8 20l16 52v8q0 20 -8 20l4 40v8l-28 104l-24 44l-24 44l-40 28l4 4l-20 4v4l4 4v4l-48 36l-64 40q-21 0 -60 24l-88 20l-92 8h-64l-12 -8l-20 4l-8 -8l-16 4q-45 0 -100 -32 q-104 -22 -296 -200q-194 -233 -204 -300q-116 -226 -116 -468l-4 -4h-12zM506 1269l28 40l-12 12q8 18 16 20h20v-12q129 150 156 232q8 0 24 28h4q44 0 44 -64q15 -32 68 -44q18 0 28 -20v-8q-6 -16 -32 -16v-4q16 0 16 -8l-4 -4h-16q-67 0 -108 76h-4l-160 -240 q0 -24 -12 -24h-24l-8 8v12l4 4v4h-8l-12 -4zM518 792v8h4l8 -8l-4 -4h-4z" />
<glyph unicode="&#xd5;" d="M-14 212q0 246 160 560q73 110 208 260q95 79 220 156q0 19 116 40l40 8l8 8l20 -4l4 4v4l224 -20l20 4q10 0 56 -32l4 4h12q42 -36 84 -44q0 -6 48 -28q58 -57 80 -96q44 -41 48 -76l-4 -4q16 -5 16 -36l-4 -4q8 0 12 -32l-4 -12q3 -56 12 -56l-4 -40v-4l8 -24 q-3 -33 -20 -52v-4l4 -28q-13 0 -44 -88q-157 -334 -524 -544q-3 -9 -136 -60q-154 -72 -284 -72l-88 -4l-60 20l-12 -4q-32 28 -32 36l-4 -4h-8q0 16 -8 16l-4 -4h-4q0 13 -32 48q-35 59 -48 104l4 12l-4 60v72l-4 36q16 34 56 196q0 18 16 28q15 53 28 64q13 20 24 60 q103 197 216 224h28l12 8q22 -7 40 -28v4l-4 16l4 4h4q32 -5 32 -32l-12 -4l-12 4l8 -24v-12q0 -12 -16 -12l8 -24l-16 -12h-8q-43 48 -60 52q-61 -19 -104 -64q-48 -48 -112 -164q-8 0 -8 -28q-15 0 -36 -72q-10 0 -48 -156l4 -16q-16 -48 -16 -116q0 -28 16 -76l-4 -12 q10 -5 44 -68q85 -96 184 -96l4 -4h36q166 0 388 124q0 5 40 16q356 214 496 536l24 84l4 12h4l-8 20l16 52v8q0 20 -8 20l4 40v8l-28 104l-24 44l-24 44l-40 28l4 4l-20 4v4l4 4v4l-48 36l-64 40q-21 0 -60 24l-88 20l-92 8h-64l-12 -8l-20 4l-8 -8l-16 4q-45 0 -100 -32 q-104 -22 -296 -200q-194 -233 -204 -300q-116 -226 -116 -468l-4 -4h-12zM518 792v8h4l8 -8l-4 -4h-4zM551 1469v8l24 28l-12 20q3 15 32 28l4 -12q123 148 176 160q0 9 20 12l24 -4v8h4q0 -14 32 -20q24 -25 36 -168q0 -86 60 -152q37 -24 64 -24q68 0 168 56q24 0 64 48 l80 56h8q0 15 64 76h16l12 -12v-20q-38 -49 -120 -108q0 -7 -40 -36l-4 4h-4q0 -9 -28 -16l-44 -36q-15 -5 -24 -20l-16 -8l-12 4v-8l-4 4h-8v-8l-4 4h-8v-12h-4v8h-8v-12h-4v8q-64 -10 -64 -28l-16 -8h-4q-76 24 -76 36l-16 24q-20 0 -20 8v4h8q-42 35 -64 188l-8 76h-8v-4 l4 -12h-8l-8 36l-4 -4h-16l-4 4q-126 -59 -184 -204l-8 -8h-16l-12 12l8 24l-4 4h-4q0 -12 -8 -12h-4zM635 1469v4l4 16h8v-16l-8 -8zM775 1717l8 8h4v-8h-12zM963 1313l24 -8l4 4v4l-24 4h-4v-4z" />
<glyph unicode="&#xd6;" d="M-14 212q0 246 160 560q73 110 208 260q95 79 220 156q0 19 116 40l40 8l8 8l20 -4l4 4v4l224 -20l20 4q10 0 56 -32l4 4h12q42 -36 84 -44q0 -6 48 -28q58 -57 80 -96q44 -41 48 -76l-4 -4q16 -5 16 -36l-4 -4q8 0 12 -32l-4 -12q3 -56 12 -56l-4 -40v-4l8 -24 q-3 -33 -20 -52v-4l4 -28q-13 0 -44 -88q-157 -334 -524 -544q-3 -9 -136 -60q-154 -72 -284 -72l-88 -4l-60 20l-12 -4q-32 28 -32 36l-4 -4h-8q0 16 -8 16l-4 -4h-4q0 13 -32 48q-35 59 -48 104l4 12l-4 60v72l-4 36q16 34 56 196q0 18 16 28q15 53 28 64q13 20 24 60 q103 197 216 224h28l12 8q22 -7 40 -28v4l-4 16l4 4h4q32 -5 32 -32l-12 -4l-12 4l8 -24v-12q0 -12 -16 -12l8 -24l-16 -12h-8q-43 48 -60 52q-61 -19 -104 -64q-48 -48 -112 -164q-8 0 -8 -28q-15 0 -36 -72q-10 0 -48 -156l4 -16q-16 -48 -16 -116q0 -28 16 -76l-4 -12 q10 -5 44 -68q85 -96 184 -96l4 -4h36q166 0 388 124q0 5 40 16q356 214 496 536l24 84l4 12h4l-8 20l16 52v8q0 20 -8 20l4 40v8l-28 104l-24 44l-24 44l-40 28l4 4l-20 4v4l4 4v4l-48 36l-64 40q-21 0 -60 24l-88 20l-92 8h-64l-12 -8l-20 4l-8 -8l-16 4q-45 0 -100 -32 q-104 -22 -296 -200q-194 -233 -204 -300q-116 -226 -116 -468l-4 -4h-12zM518 792v8h4l8 -8l-4 -4h-4zM680 1461l32 44h16l44 -16l12 4l8 -12v-4l-8 -8h-8l-16 8h-8v-4q21 0 28 -32l-12 -16h-8l4 -20l-8 -8h-24q-52 40 -52 64zM752 1509v8h12l-8 -8h-4zM884 1461v4 q18 15 24 60q7 0 36 40l64 16v-8h-16l16 -28q-8 -24 -28 -24l4 -4v-4q-20 -13 -20 -40q-12 0 -16 -44l-4 -4h-28l-8 8v12l8 12l-20 -4h-4zM944 1577v4l8 8h4l8 -8v-4h-20zM976 1465v4l8 8v-12h-8z" />
<glyph unicode="&#xd7;" horiz-adv-x="777" d="M43 420v4q0 23 16 40q-12 0 -12 8v4q0 12 40 12l4 -4v-4l-8 -12h4l40 12l4 -4v-4l-24 -4q6 -20 52 -20h128l32 -8h24q68 131 68 152q16 4 16 24v4q-12 0 -12 8l4 28l-16 -12h-4q-8 0 -8 12l20 36l-8 12v8q30 22 84 112q22 28 36 28l-8 12v4h4l40 -20l8 -36 q-43 -102 -68 -120l4 -4v-8q-26 -25 -44 -80l-16 -16l4 -4v-4q-68 -103 -68 -132q39 -12 148 -16l28 4q0 -12 44 -12l28 4q0 -12 76 -16l32 4l12 -16v-12l-12 -12h-16l-24 12l-4 -4l-56 8l-20 -4q-20 12 -40 12l-44 -4q0 13 -120 16l-32 -4l-24 8q-22 -39 -28 -80 q-18 -11 -48 -104l4 -4v-4l-20 -80v-4l4 -68l-16 -16l4 -16l-4 -4h-12q-12 0 -12 32l-12 -8h-8v32h8v-8h4v40h-8v12l12 16l-4 4q15 63 44 108l36 100l28 52h-8l-32 -8h-148v-4h40v-8l-100 -8q-32 0 -32 32z" />
<glyph unicode="&#xd8;" d="M-14 212q0 246 160 560q73 110 208 260q95 79 220 156q0 19 116 40l40 8l8 8l20 -4l4 4v4l224 -20l20 4q10 0 56 -32l4 4h12q42 -36 84 -44q0 -6 48 -28q58 -57 80 -96q44 -41 48 -76l-4 -4q16 -5 16 -36l-4 -4q8 0 12 -32l-4 -12q3 -56 12 -56l-4 -40v-4l8 -24 q-3 -33 -20 -52v-4l4 -28q-13 0 -44 -88q-157 -334 -524 -544q-3 -9 -136 -60q-154 -72 -284 -72l-88 -4l-60 20l-12 -4q-32 28 -32 36l-4 -4h-8q0 16 -8 16l-4 -4h-4q0 13 -32 48q-35 59 -48 104l4 12l-4 60v72l-4 36q16 34 56 196q0 18 16 28q15 53 28 64q13 20 24 60 q103 197 216 224h28l12 8q22 -7 40 -28v4l-4 16l4 4h4q32 -5 32 -32l-12 -4l-12 4l8 -24v-12q0 -12 -16 -12l8 -24l-16 -12h-8q-43 48 -60 52q-61 -19 -104 -64q-48 -48 -112 -164q-8 0 -8 -28q-15 0 -36 -72q-10 0 -48 -156l4 -16q-16 -48 -16 -116q0 -28 16 -76l-4 -12 q10 -5 44 -68q85 -96 184 -96l4 -4h36q166 0 388 124q0 5 40 16q356 214 496 536l24 84l4 12h4l-8 20l16 52v8q0 20 -8 20l4 40v8l-28 104l-24 44l-24 44l-40 28l4 4l-20 4v4l4 4v4l-48 36l-64 40q-21 0 -60 24l-88 20l-92 8h-64l-12 -8l-20 4l-8 -8l-16 4q-45 0 -100 -32 q-104 -22 -296 -200q-194 -233 -204 -300q-116 -226 -116 -468l-4 -4h-12zM221 -20l24 44l-4 12l24 28l4 -4h4l164 224q0 14 100 116q97 137 416 492q0 12 88 100q85 80 116 80h4l16 -16v-16l-16 -16l4 -4v-4q0 -10 -48 -20q-56 -40 -72 -60l-60 -60l-16 -4l4 -4v-8 q-20 0 -176 -184q-264 -300 -300 -384l-124 -168q-92 -122 -92 -180l-24 -8l-12 12v4l4 28l-16 -12h-4q-8 0 -8 12zM309 -12l8 8v-12h-8v4zM518 792v8h4l8 -8l-4 -4h-4z" />
<glyph unicode="&#xd9;" horiz-adv-x="718" d="M-5 111v20l4 52l-4 32l4 4h4l-4 4v4l12 36l-4 24q7 0 12 20l-4 4v4q60 218 184 472q25 31 96 192q12 0 12 28q18 0 52 100l52 112h4l-4 4v4l20 44l-4 4v4l4 4h4l-4 4v4q0 20 12 20v20l-4 20l8 8v4l-4 -4h-12v24l-24 4q-77 -25 -136 -92q-180 -271 -180 -480v-84l4 4h8 l12 -20v-8q0 -8 -16 -8l4 -4v-4q-5 -36 -16 -36l4 -20v-4l-8 -8h-20q-9 0 -12 28q-20 0 -20 8v16l4 16l-4 4v4l4 24v8l12 4l-4 16l-4 -4h-8v60l8 8l4 -4v16h-8v28l8 8l4 -4v8h-8q0 26 36 148q0 19 108 224q48 82 124 156q78 56 112 56h8q64 0 64 -104v-12 q-13 -111 -124 -296q-8 0 -28 -56q-10 0 -16 -32q-23 -10 -168 -324q-72 -161 -100 -284l4 -4v-4q-4 -22 -16 -36l4 -28q-9 0 -12 -20l4 -20l-12 -56v-4l8 -12v-32q0 -92 56 -92h20q68 0 188 180q40 42 40 64q41 93 76 152q0 17 32 72l28 60q12 68 88 280l20 48q0 26 24 72 l24 48q0 36 44 100l-4 4v4q67 160 104 160h16q7 0 16 -24q-16 -69 -96 -236h-8v-8q0 -24 -28 -56l-44 -116q-18 -12 -88 -188h-4l4 -12q-24 -26 -24 -60q-21 0 -40 -104l4 -20q-11 0 -16 -36l4 -20l-8 -8l4 -24q-20 -16 -20 -124l-4 -4l8 -24v-16l-8 -12l8 -20h-4l4 -4v-8 l-4 -4q23 -136 76 -136q16 -8 44 -8h12l56 12h16q0 18 60 36h8q16 -6 16 -28q-29 -28 -44 -28v-4l-4 4h-8l4 -4v-4l-20 4q-10 0 -24 -16q-12 0 -28 -20l-20 -8h-12v4q12 0 12 8h-28l-48 8l-4 -12q-30 0 -56 40h8v4h-4l-12 -4v4l-8 12v4l12 -8v4q-44 52 -44 164l4 4h4l-4 20 v28q8 0 20 136h-4l-56 -104q-16 -5 -36 -68q-22 -43 -88 -120l-84 -80q-11 0 -32 -20h-8l-4 4h-4l-8 -8h-12q-80 22 -80 44l-16 12v12q8 0 8 -12h4v4q-16 46 -16 80zM115 671l8 8v-16zM410 1729l4 12l-4 24v4q0 8 16 8l4 12l-8 24v4l12 12h8q9 0 12 -20l-4 -4l20 -4 q5 20 12 20l8 -8v-4l-4 -4l4 -4v-4l-16 -64q0 -139 188 -292q0 -13 60 -32q2 -9 68 -40l12 4q68 -19 68 -32v-12l-12 -12h-16l-124 60q-20 0 -68 36l-20 4v-8h-4q-42 12 -52 36q-12 0 -20 36l-4 -4h-4l-16 16l4 4v8q-28 0 -28 16l4 4v4q-16 0 -16 8l4 12l-16 4l4 4v8 q-56 95 -56 156h-4l-4 -4h-4zM418 1705v8h8l4 -24h-4l4 -4v-8h-8zM430 1657v8l8 -8v-8zM494 1765v4l4 4h4l4 -4v-4l-4 -4h-4zM499 -25v-8l12 4v4h-12zM631 923h4l4 16q-8 0 -8 -12v-4zM747 1283v8h12l-8 -8h-4z" />
<glyph unicode="&#xda;" horiz-adv-x="718" d="M-5 111v20l4 52l-4 32l4 4h4l-4 4v4l12 36l-4 24q7 0 12 20l-4 4v4q60 218 184 472q25 31 96 192q12 0 12 28q18 0 52 100l52 112h4l-4 4v4l20 44l-4 4v4l4 4h4l-4 4v4q0 20 12 20v20l-4 20l8 8v4l-4 -4h-12v24l-24 4q-77 -25 -136 -92q-180 -271 -180 -480v-84l4 4h8 l12 -20v-8q0 -8 -16 -8l4 -4v-4q-5 -36 -16 -36l4 -20v-4l-8 -8h-20q-9 0 -12 28q-20 0 -20 8v16l4 16l-4 4v4l4 24v8l12 4l-4 16l-4 -4h-8v60l8 8l4 -4v16h-8v28l8 8l4 -4v8h-8q0 26 36 148q0 19 108 224q48 82 124 156q78 56 112 56h8q64 0 64 -104v-12 q-13 -111 -124 -296q-8 0 -28 -56q-10 0 -16 -32q-23 -10 -168 -324q-72 -161 -100 -284l4 -4v-4q-4 -22 -16 -36l4 -28q-9 0 -12 -20l4 -20l-12 -56v-4l8 -12v-32q0 -92 56 -92h20q68 0 188 180q40 42 40 64q41 93 76 152q0 17 32 72l28 60q12 68 88 280l20 48q0 26 24 72 l24 48q0 36 44 100l-4 4v4q67 160 104 160h16q7 0 16 -24q-16 -69 -96 -236h-8v-8q0 -24 -28 -56l-44 -116q-18 -12 -88 -188h-4l4 -12q-24 -26 -24 -60q-21 0 -40 -104l4 -20q-11 0 -16 -36l4 -20l-8 -8l4 -24q-20 -16 -20 -124l-4 -4l8 -24v-16l-8 -12l8 -20h-4l4 -4v-8 l-4 -4q23 -136 76 -136q16 -8 44 -8h12l56 12h16q0 18 60 36h8q16 -6 16 -28q-29 -28 -44 -28v-4l-4 4h-8l4 -4v-4l-20 4q-10 0 -24 -16q-12 0 -28 -20l-20 -8h-12v4q12 0 12 8h-28l-48 8l-4 -12q-30 0 -56 40h8v4h-4l-12 -4v4l-8 12v4l12 -8v4q-44 52 -44 164l4 4h4l-4 20 v28q8 0 20 136h-4l-56 -104q-16 -5 -36 -68q-22 -43 -88 -120l-84 -80q-11 0 -32 -20h-8l-4 4h-4l-8 -8h-12q-80 22 -80 44l-16 12v12q8 0 8 -12h4v4q-16 46 -16 80zM115 671l8 8v-16zM499 -25v-8l12 4v4h-12zM584 1423v8l12 12l12 -8q0 24 8 32q-12 0 -12 8v16l8 8h4 q8 0 8 -12l4 4h16v-8q0 -8 -12 -8v-4h8q48 24 176 168q8 0 32 32q56 48 94 98q5 21 32 44h12l16 -16v-4q-3 -60 -362 -406h-24l-8 8v20q-24 0 -24 8zM631 923h4l4 16q-8 0 -8 -12v-4zM747 1283v8h12l-8 -8h-4z" />
<glyph unicode="&#xdb;" horiz-adv-x="718" d="M-5 111v20l4 52l-4 32l4 4h4l-4 4v4l12 36l-4 24q7 0 12 20l-4 4v4q60 218 184 472q25 31 96 192q12 0 12 28q18 0 52 100l52 112h4l-4 4v4l20 44l-4 4v4l4 4h4l-4 4v4q0 20 12 20v20l-4 20l8 8v4l-4 -4h-12v24l-24 4q-77 -25 -136 -92q-180 -271 -180 -480v-84l4 4h8 l12 -20v-8q0 -8 -16 -8l4 -4v-4q-5 -36 -16 -36l4 -20v-4l-8 -8h-20q-9 0 -12 28q-20 0 -20 8v16l4 16l-4 4v4l4 24v8l12 4l-4 16l-4 -4h-8v60l8 8l4 -4v16h-8v28l8 8l4 -4v8h-8q0 26 36 148q0 19 108 224q48 82 124 156q78 56 112 56h8q64 0 64 -104v-12 q-13 -111 -124 -296q-8 0 -28 -56q-10 0 -16 -32q-23 -10 -168 -324q-72 -161 -100 -284l4 -4v-4q-4 -22 -16 -36l4 -28q-9 0 -12 -20l4 -20l-12 -56v-4l8 -12v-32q0 -92 56 -92h20q68 0 188 180q40 42 40 64q41 93 76 152q0 17 32 72l28 60q12 68 88 280l20 48q0 26 24 72 l24 48q0 36 44 100l-4 4v4q67 160 104 160h16q7 0 16 -24q-16 -69 -96 -236h-8v-8q0 -24 -28 -56l-44 -116q-18 -12 -88 -188h-4l4 -12q-24 -26 -24 -60q-21 0 -40 -104l4 -20q-11 0 -16 -36l4 -20l-8 -8l4 -24q-20 -16 -20 -124l-4 -4l8 -24v-16l-8 -12l8 -20h-4l4 -4v-8 l-4 -4q23 -136 76 -136q16 -8 44 -8h12l56 12h16q0 18 60 36h8q16 -6 16 -28q-29 -28 -44 -28v-4l-4 4h-8l4 -4v-4l-20 4q-10 0 -24 -16q-12 0 -28 -20l-20 -8h-12v4q12 0 12 8h-28l-48 8l-4 -12q-30 0 -56 40h8v4h-4l-12 -4v4l-8 12v4l12 -8v4q-44 52 -44 164l4 4h4l-4 20 v28q8 0 20 136h-4l-56 -104q-16 -5 -36 -68q-22 -43 -88 -120l-84 -80q-11 0 -32 -20h-8l-4 4h-4l-8 -8h-12q-80 22 -80 44l-16 12v12q8 0 8 -12h4v4q-16 46 -16 80zM115 671l8 8v-16zM499 -25v-8l12 4v4h-12zM508 1494l28 40l-12 12q8 18 16 20h20v-12q129 150 156 232 q8 0 24 28h4q44 0 44 -64q15 -32 68 -44q18 0 28 -20v-8q-6 -16 -32 -16v-4q16 0 16 -8l-4 -4h-16q-67 0 -108 76h-4l-160 -240q0 -24 -12 -24h-24l-8 8v12l4 4v4h-8l-12 -4zM631 923h4l4 16q-8 0 -8 -12v-4zM747 1283v8h12l-8 -8h-4z" />
</font>
</defs>
</svg>
